{
.appVersion = "1352";
DisplayStrings = (
abcdefghijklmnopqrstuvwxyz,
"/.notdef"
);
copyright = "Copyright 2013-2021 The Nauthigal Project Authors (https://github.com/googlefonts/the-nautigal)";
customParameters = (
{
name = licenseURL;
value = "https://scripts.sil.org/OFL";
},
{
name = license;
value = "This Font Software is licensed under the SIL Open Font License, Version 1.1. This license is available with a FAQ at: https://scripts.sil.org/OFL";
},
{
name = vendorID;
value = GOOG;
},
{
name = "Disable Subroutines";
value = 1;
},
{
name = glyphOrder;
value = (
.notdef,
CR,
NULL,
space,
nbspace
);
},
{
name = fsType;
value = (
);
},
{
name = "Use Typo Metrics";
value = 1;
},
{
name = Axes;
value = (
{
Name = Weight;
Tag = wght;
}
);
}
);
date = "2021-10-20 20:54:06 +0000";
designer = "Robert E. Leuschke";
designerURL = www.typesetit.com;
familyName = "The Nautigal";
featurePrefixes = (
{
automatic = 1;
code = "languagesystem DFLT dflt;\012\012languagesystem latn dflt;\012";
name = Languagesystems;
}
);
features = (
{
automatic = 1;
code = "feature sups;\012feature frac;\012feature ordn;\012";
name = aalt;
},
{
automatic = 1;
code = "lookup ccmp_latn_1 {\012	lookupflag 0;\012	sub brevecomb acutecomb by brevecomb_acutecomb;\012	sub brevecomb gravecomb by brevecomb_gravecomb;\012	sub brevecomb hookabovecomb by brevecomb_hookabovecomb;\012	sub brevecomb tildecomb by brevecomb_tildecomb;\012	sub circumflexcomb acutecomb by circumflexcomb_acutecomb;\012	sub circumflexcomb gravecomb by circumflexcomb_gravecomb;\012	sub circumflexcomb hookabovecomb by circumflexcomb_hookabovecomb;\012	sub circumflexcomb tildecomb by circumflexcomb_tildecomb;\012} ccmp_latn_1;\012\012script latn;\012lookup ccmp_latn_1;\012";
name = ccmp;
},
{
automatic = 1;
code = "sub one by onesuperior;\012sub two by twosuperior;\012sub three by threesuperior;\012";
name = sups;
},
{
automatic = 1;

glyphs = (
{
glyphname = .notdef;
lastChange = "2021-10-20 21:03:57 +0000";
layers = (
{
layerId = "E1C4CDDB-EFDF-468A-8ACC-65E2DFDE53DF";
paths = (
{
closed = 1;
nodes = (
"469 13 LINE",
"478 21 LINE",
"478 634 LINE",
"469 643 LINE",
"48 643 LINE",
"40 633 LINE",
"40 22 LINE",
"48 13 LINE"
);
},
{
closed = 1;
nodes = (
"57 29 LINE",
"57 626 LINE",
"461 626 LINE",
"461 29 LINE"
);
},
{
closed = 1;
nodes = (
"427 62 LINE",
"427 590 LINE",
"92 590 LINE",
"92 62 LINE"
);
},
{
closed = 1;
nodes = (
"144 163 LINE",
"234 329 LINE",
"144 492 LINE",
"163 527 LINE",
"253 363 LINE",
"344 527 LINE",
"363 492 LINE",
"273 327 LINE",
"363 163 LINE",
"344 129 LINE",
"253 292 LINE",
"163 129 LINE"
);
}
);
width = 518;
},
{
layerId = "10EE7422-BC27-45A8-8DF8-0D41623AEA15";
paths = (
{
closed = 1;
nodes = (
"469 13 LINE",
"478 21 LINE",
"478 634 LINE",
"469 643 LINE",
"48 643 LINE",
"40 633 LINE",
"40 22 LINE",
"48 13 LINE"
);
},
{
closed = 1;
nodes = (
"57 29 LINE",
"57 626 LINE",
"461 626 LINE",
"461 29 LINE"
);
},
{
closed = 1;
nodes = (
"427 62 LINE",
"427 590 LINE",
"92 590 LINE",
"92 62 LINE"
);
},
{
closed = 1;
nodes = (
"144 163 LINE",
"234 329 LINE",
"144 492 LINE",
"163 527 LINE",
"253 363 LINE",
"344 527 LINE",
"363 492 LINE",
"273 327 LINE",
"363 163 LINE",
"344 129 LINE",
"253 292 LINE",
"163 129 LINE"
);
}
);
width = 518;
}
);
note = .notdef;
},
{
glyphname = A;
lastChange = "2021-10-20 21:03:02 +0000";
layers = (
{
layerId = "E1C4CDDB-EFDF-468A-8ACC-65E2DFDE53DF";
paths = (
{
closed = 1;
nodes = (
"169 -169 OFFCURVE",
"370 127 OFFCURVE",
"486 272 CURVE",
"524 280 OFFCURVE",
"562 287 OFFCURVE",
"601 287 CURVE SMOOTH",
"608 287 OFFCURVE",
"614 286 OFFCURVE",
"621 286 CURVE",
"585 200 OFFCURVE",
"543 104 OFFCURVE",
"543 46 CURVE SMOOTH",
"543 41 OFFCURVE",
"544 37 OFFCURVE",
"544 33 CURVE SMOOTH",
"546 19 OFFCURVE",
"554 -2 OFFCURVE",
"566 -12 CURVE SMOOTH",
"578 -21 OFFCURVE",
"602 -36 OFFCURVE",
"613 -36 CURVE SMOOTH",
"638 -36 OFFCURVE",
"656 9 OFFCURVE",
"668 26 CURVE SMOOTH",
"672 33 OFFCURVE",
"676 39 OFFCURVE",
"679 46 CURVE SMOOTH",
"683 55 OFFCURVE",
"675 51 OFFCURVE",
"670 44 CURVE SMOOTH",
"656 24 OFFCURVE",
"627 -10 OFFCURVE",
"600 -10 CURVE SMOOTH",
"583 -10 OFFCURVE",
"580 10 OFFCURVE",
"580 23 CURVE SMOOTH",
"580 34 OFFCURVE",
"582 44 OFFCURVE",
"584 55 CURVE SMOOTH",
"599 120 OFFCURVE",
"630 208 OFFCURVE",
"669 278 CURVE",
"689 270 OFFCURVE",
"711 252 OFFCURVE",
"711 232 CURVE SMOOTH",
"711 188 OFFCURVE",
"677 167 OFFCURVE",
"658 152 CURVE SMOOTH",
"656 150 OFFCURVE",
"659 146 OFFCURVE",
"661 147 CURVE SMOOTH",
"694 169 OFFCURVE",
"744 190 OFFCURVE",
"744 212 CURVE SMOOTH",
"744 225 OFFCURVE",
"741 231 OFFCURVE",
"731 240 CURVE",
"734 265 OFFCURVE",
"698 286 OFFCURVE",
"677 294 CURVE",
"698 332 OFFCURVE",
"772 456 OFFCURVE",
"822 534 CURVE SMOOTH",
"830 545 OFFCURVE",
"841 571 OFFCURVE",
"838 586 CURVE SMOOTH",
"830 624 OFFCURVE",
"794 610 OFFCURVE",
"765 625 CURVE",
"745 604 OFFCURVE",
"733 582 OFFCURVE",
"712 561 CURVE SMOOTH",
"644 489 OFFCURVE",
"588 418 OFFCURVE",
"522 345 CURVE SMOOTH",
"478 297 LINE",
"357 278 OFFCURVE",
"226 230 OFFCURVE",
"98 211 CURVE SMOOTH",
"90 210 OFFCURVE",
"83 209 OFFCURVE",
"77 209 CURVE SMOOTH",
"53 209 OFFCURVE",
"40 217 OFFCURVE",
"40 229 CURVE SMOOTH",
"40 243 OFFCURVE",
"56 261 OFFCURVE",
"91 277 CURVE SMOOTH",
"132 297 OFFCURVE",
"195 317 OFFCURVE",
"226 323 CURVE SMOOTH",
"234 324 OFFCURVE",
"240 328 OFFCURVE",
"240 330 CURVE SMOOTH",
"240 332 OFFCURVE",
"237 334 OFFCURVE",
"228 334 CURVE SMOOTH",
"183 334 OFFCURVE",
"11 275 OFFCURVE",
"11 233 CURVE SMOOTH",
"11 212 OFFCURVE",
"27 189 OFFCURVE",
"43 178 CURVE SMOOTH",
"54 171 OFFCURVE",
"65 168 OFFCURVE",
"76 168 CURVE SMOOTH",
"95 168 OFFCURVE",
"114 175 OFFCURVE",
"133 178 CURVE SMOOTH",
"241 197 OFFCURVE",
"354 242 OFFCURVE",
"457 267 CURVE",
"428 234 OFFCURVE",
"375 172 OFFCURVE",
"347 138 CURVE SMOOTH",
"254 28 OFFCURVE",
"148 -114 OFFCURVE",
"-6 -135 CURVE SMOOTH",
"-20 -136 OFFCURVE",
"-34 -137 OFFCURVE",
"-48 -137 CURVE SMOOTH",
"-82 -137 OFFCURVE",
"-137 -123 OFFCURVE",
"-137 -75 CURVE SMOOTH",
"-137 -70 OFFCURVE",
"-140 -67 OFFCURVE",
"-143 -67 CURVE SMOOTH",
"-146 -67 OFFCURVE",
"-149 -69 OFFCURVE",
"-149 -74 CURVE SMOOTH",
"-149 -147 OFFCURVE",
"-81 -169 OFFCURVE",
"-19 -169 CURVE SMOOTH"
);
},
{
closed = 1;
nodes = (
"553 352 OFFCURVE",
"687 502 OFFCURVE",
"742 550 CURVE SMOOTH",
"761 566 OFFCURVE",
"779 575 OFFCURVE",
"779 566 CURVE SMOOTH",
"779 563 OFFCURVE",
"777 558 OFFCURVE",
"772 550 CURVE SMOOTH",
"741 504 OFFCURVE",
"646 346 OFFCURVE",
"628 306 CURVE",
"595 306 LINE SMOOTH",
"566 306 OFFCURVE",
"538 305 OFFCURVE",
"508 301 CURVE"
);
}
);
width = 703;
},
{
anchors = (
{
name = bottom;
position = "{357, -62}";
},
{
name = ogonek;
position = "{687, -25}";
},
{
name = top;
position = "{848, 713}";
}
);
layerId = "10EE7422-BC27-45A8-8DF8-0D41623AEA15";
paths = (
{
closed = 1;
nodes = (
"186 -180 OFFCURVE",
"357 115 OFFCURVE",
"473 260 CURVE",
"511 267 OFFCURVE",
"550 272 OFFCURVE",
"589 272 CURVE SMOOTH",
"595 272 OFFCURVE",
"603 272 OFFCURVE",
"611 271 CURVE",
"572 184 OFFCURVE",
"540 94 OFFCURVE",
"540 36 CURVE SMOOTH",
"540 18 OFFCURVE",
"542 1 OFFCURVE",
"558 -11 CURVE SMOOTH",
"568 -19 OFFCURVE",
"610 -44 OFFCURVE",
"623 -44 CURVE SMOOTH",
"649 -44 OFFCURVE",
"661 5 OFFCURVE",
"670 25 CURVE SMOOTH",
"674 33 OFFCURVE",
"677 38 OFFCURVE",
"679 46 CURVE SMOOTH",
"682 55 OFFCURVE",
"675 51 OFFCURVE",
"670 44 CURVE SMOOTH",
"656 24 OFFCURVE",
"627 -10 OFFCURVE",
"600 -10 CURVE SMOOTH",
"583 -10 OFFCURVE",
"580 10 OFFCURVE",
"580 23 CURVE SMOOTH",
"580 34 OFFCURVE",
"582 44 OFFCURVE",
"584 55 CURVE SMOOTH",
"599 120 OFFCURVE",
"632 191 OFFCURVE",
"670 261 CURVE",
"690 253 OFFCURVE",
"706 241 OFFCURVE",
"706 221 CURVE SMOOTH",
"706 178 OFFCURVE",
"654 152 OFFCURVE",
"654 145 CURVE SMOOTH",
"654 143 OFFCURVE",
"655 140 OFFCURVE",
"657 140 CURVE SMOOTH",
"665 140 OFFCURVE",
"680 154 OFFCURVE",
"689 158 CURVE SMOOTH",
"712 169 OFFCURVE",
"740 172 OFFCURVE",
"740 205 CURVE SMOOTH",
"740 218 OFFCURVE",
"728 236 OFFCURVE",
"722 247 CURVE",
"725 272 OFFCURVE",
"711 287 OFFCURVE",
"689 295 CURVE",
"723 354 OFFCURVE",
"759 410 OFFCURVE",
"789 458 CURVE SMOOTH",
"807 486 OFFCURVE",
"825 514 OFFCURVE",
"841 543 CURVE SMOOTH",
"848 554 OFFCURVE",
"853 567 OFFCURVE",
"852 582 CURVE SMOOTH",
"847 631 OFFCURVE",
"794 610 OFFCURVE",
"765 625 CURVE",
"745 604 OFFCURVE",
"733 582 OFFCURVE",
"712 561 CURVE SMOOTH",
"644 489 OFFCURVE",
"578 417 OFFCURVE",
"512 344 CURVE SMOOTH",
"468 295 LINE",
"347 276 OFFCURVE",
"224 238 OFFCURVE",
"104 226 CURVE SMOOTH",
"98 225 OFFCURVE",
"91 225 OFFCURVE",
"85 225 CURVE SMOOTH",
"77 225 OFFCURVE",
"47 226 OFFCURVE",
"47 238 CURVE SMOOTH",
"47 266 OFFCURVE",
"208 315 OFFCURVE",
"238 325 CURVE",
"238 326 OFFCURVE",
"240 329 OFFCURVE",
"240 330 CURVE SMOOTH",
"240 334 OFFCURVE",
"230 334 OFFCURVE",
"228 334 CURVE SMOOTH",
"183 334 OFFCURVE",
"11 286 OFFCURVE",
"11 233 CURVE SMOOTH",
"11 198 OFFCURVE",
"26 159 OFFCURVE",
"66 159 CURVE SMOOTH",
"72 159 LINE SMOOTH",
"194 171 OFFCURVE",
"308 220 OFFCURVE",
"427 250 CURVE",
"397 217 OFFCURVE",
"368 184 OFFCURVE",
"339 150 CURVE SMOOTH",
"246 40 OFFCURVE",
"143 -109 OFFCURVE",
"-11 -130 CURVE SMOOTH",
"-25 -131 OFFCURVE",
"-39 -132 OFFCURVE",
"-53 -132 CURVE SMOOTH",
"-91 -132 OFFCURVE",
"-137 -123 OFFCURVE",
"-137 -75 CURVE SMOOTH",
"-137 -71 OFFCURVE",
"-139 -67 OFFCURVE",
"-143 -67 CURVE SMOOTH",
"-147 -67 OFFCURVE",
"-149 -71 OFFCURVE",
"-149 -74 CURVE SMOOTH",
"-149 -147 OFFCURVE",
"-64 -180 OFFCURVE",
"-2 -180 CURVE SMOOTH"
);
},
{
closed = 1;
nodes = (
"562 362 OFFCURVE",
"702 517 OFFCURVE",
"724 517 CURVE SMOOTH",
"726 517 OFFCURVE",
"726 515 OFFCURVE",
"726 513 CURVE SMOOTH",
"727 505 OFFCURVE",
"720 493 OFFCURVE",
"717 487 CURVE SMOOTH",
"696 445 OFFCURVE",
"660 378 OFFCURVE",
"627 306 CURVE",
"615 307 OFFCURVE",
"605 307 OFFCURVE",
"596 307 CURVE SMOOTH",
"567 307 OFFCURVE",
"538 305 OFFCURVE",
"508 301 CURVE"
);
}
);
width = 703;
}
);
note = A;
unicode = 0041;
},
{
glyphname = AE;
lastChange = "2021-10-20 21:03:02 +0000";
layers = (
{
layerId = "E1C4CDDB-EFDF-468A-8ACC-65E2DFDE53DF";
paths = (
{
closed = 1;
nodes = (
"169 -169 OFFCURVE",
"370 127 OFFCURVE",
"486 272 CURVE",
"524 280 OFFCURVE",
"562 287 OFFCURVE",
"601 287 CURVE SMOOTH",
"608 287 OFFCURVE",
"614 286 OFFCURVE",
"621 286 CURVE",
"582 193 OFFCURVE",
"539 111 OFFCURVE",
"545 53 CURVE SMOOTH",
"546 47 OFFCURVE",
"555 35 OFFCURVE",
"565 24 CURVE",
"600 -39 OFFCURVE",
"690 -61 OFFCURVE",
"761 -61 CURVE SMOOTH",
"834 -61 OFFCURVE",
"915 -43 OFFCURVE",
"982 -15 CURVE SMOOTH",
"1023 2 OFFCURVE",
"1159 77 OFFCURVE",
"1159 143 CURVE SMOOTH",
"1159 153 OFFCURVE",
"1156 163 OFFCURVE",
"1149 172 CURVE",
"1149 198 OFFCURVE",
"1123 228 OFFCURVE",
"1098 239 CURVE",
"1094 237 OFFCURVE",
"1091 238 OFFCURVE",
"1091 238 CURVE",
"1091 238 OFFCURVE",
"1092 238 OFFCURVE",
"1093 236 CURVE",
"1103 229 OFFCURVE",
"1126 211 OFFCURVE",
"1126 182 CURVE SMOOTH",
"1126 117 OFFCURVE",
"1015 44 OFFCURVE",
"963 20 CURVE SMOOTH",
"897 -10 OFFCURVE",
"803 -31 OFFCURVE",
"732 -31 CURVE SMOOTH",
"685 -31 OFFCURVE",
"627 -23 OFFCURVE",
"595 8 CURVE",
"587 23 OFFCURVE",
"584 39 OFFCURVE",
"584 57 CURVE SMOOTH",
"584 89 OFFCURVE",
"594 125 OFFCURVE",
"608 159 CURVE",
"628 181 OFFCURVE",
"654 199 OFFCURVE",
"678 214 CURVE SMOOTH",
"743 255 OFFCURVE",
"909 311 OFFCURVE",
"985 311 CURVE SMOOTH",
"993 311 OFFCURVE",
"1000 311 OFFCURVE",
"1007 309 CURVE",
"1004 334 OFFCURVE",
"991 356 OFFCURVE",
"963 356 CURVE SMOOTH",
"935 356 OFFCURVE",
"898 347 OFFCURVE",
"867 346 CURVE",
"863 345 OFFCURVE",
"829 351 OFFCURVE",
"824 352 CURVE",
"801 361 OFFCURVE",
"791 376 OFFCURVE",
"791 393 CURVE SMOOTH",
"791 461 OFFCURVE",
"939 573 OFFCURVE",
"1079 573 CURVE SMOOTH",
"1103 573 OFFCURVE",
"1124 570 OFFCURVE",
"1136 559 CURVE",
"1126 545 OFFCURVE",
"1078 476 OFFCURVE",
"1078 430 CURVE SMOOTH",
"1078 407 OFFCURVE",
"1093 385 OFFCURVE",
"1118 385 CURVE SMOOTH",
"1119 385 OFFCURVE",
"1121 385 OFFCURVE",
"1121 387 CURVE SMOOTH",
"1121 392 OFFCURVE",
"1099 398 OFFCURVE",
"1099 423 CURVE SMOOTH",
"1099 456 OFFCURVE",
"1134 520 OFFCURVE",
"1160 539 CURVE",
"1174 538 OFFCURVE",
"1178 484 OFFCURVE",
"1178 473 CURVE SMOOTH",
"1178 467 OFFCURVE",
"1177 453 OFFCURVE",
"1180 453 CURVE SMOOTH",
"1181 453 OFFCURVE",
"1182 455 OFFCURVE",
"1185 462 CURVE SMOOTH",
"1190 476 OFFCURVE",
"1192 500 OFFCURVE",
"1192 505 CURVE SMOOTH",
"1192 526 OFFCURVE",
"1189 544 OFFCURVE",
"1177 562 CURVE",
"1199 591 OFFCURVE",
"1226 611 OFFCURVE",
"1251 637 CURVE",
"1249 657 OFFCURVE",
"1230 661 OFFCURVE",
"1212 662 CURVE",
"1187 639 OFFCURVE",
"1166 610 OFFCURVE",
"1147 581 CURVE",
"1120 603 OFFCURVE",
"1085 611 OFFCURVE",
"1050 611 CURVE SMOOTH",
"991 611 OFFCURVE",
"845 568 OFFCURVE",
"783 479 CURVE",
"808 524 LINE SMOOTH",
"814 535 OFFCURVE",
"827 561 OFFCURVE",
"824 576 CURVE SMOOTH",
"816 614 OFFCURVE",
"794 610 OFFCURVE",
"765 625 CURVE",
"745 604 OFFCURVE",
"733 582 OFFCURVE",
"712 561 CURVE SMOOTH",
"644 489 OFFCURVE",
"588 418 OFFCURVE",
"522 345 CURVE SMOOTH",
"478 297 LINE",
"357 278 OFFCURVE",
"226 230 OFFCURVE",
"98 211 CURVE SMOOTH",
"90 210 OFFCURVE",
"83 209 OFFCURVE",
"77 209 CURVE SMOOTH",
"53 209 OFFCURVE",
"40 217 OFFCURVE",
"40 229 CURVE SMOOTH",
"40 243 OFFCURVE",
"56 261 OFFCURVE",
"91 277 CURVE SMOOTH",
"132 297 OFFCURVE",
"195 317 OFFCURVE",
"226 323 CURVE SMOOTH",
"234 324 OFFCURVE",
"240 328 OFFCURVE",
"240 330 CURVE SMOOTH",
"240 332 OFFCURVE",
"237 334 OFFCURVE",
"228 334 CURVE SMOOTH",
"183 334 OFFCURVE",
"11 275 OFFCURVE",
"11 233 CURVE SMOOTH",
"11 212 OFFCURVE",
"27 189 OFFCURVE",
"43 178 CURVE SMOOTH",
"54 171 OFFCURVE",
"65 168 OFFCURVE",
"76 168 CURVE SMOOTH",
"95 168 OFFCURVE",
"114 175 OFFCURVE",
"133 178 CURVE SMOOTH",
"241 197 OFFCURVE",
"354 242 OFFCURVE",
"457 267 CURVE",
"428 234 OFFCURVE",
"375 172 OFFCURVE",
"347 138 CURVE SMOOTH",
"254 28 OFFCURVE",
"148 -114 OFFCURVE",
"-6 -135 CURVE SMOOTH",
"-20 -136 OFFCURVE",
"-34 -137 OFFCURVE",
"-48 -137 CURVE SMOOTH",
"-82 -137 OFFCURVE",
"-137 -123 OFFCURVE",
"-137 -75 CURVE SMOOTH",
"-137 -70 OFFCURVE",
"-140 -67 OFFCURVE",
"-143 -67 CURVE SMOOTH",
"-146 -67 OFFCURVE",
"-149 -69 OFFCURVE",
"-149 -74 CURVE SMOOTH",
"-149 -147 OFFCURVE",
"-81 -169 OFFCURVE",
"-19 -169 CURVE SMOOTH"
);
},
{
closed = 1;
nodes = (
"650 249 LINE SMOOTH",
"675 303 OFFCURVE",
"718 384 OFFCURVE",
"748 432 CURVE",
"747 426 OFFCURVE",
"746 420 OFFCURVE",
"746 414 CURVE SMOOTH",
"746 360 OFFCURVE",
"805 335 OFFCURVE",
"845 331 CURVE",
"793 316 OFFCURVE",
"707 281 OFFCURVE",
"641 232 CURVE"
);
},
{
closed = 1;
nodes = (
"553 352 OFFCURVE",
"687 502 OFFCURVE",
"742 550 CURVE SMOOTH",
"761 566 OFFCURVE",
"779 575 OFFCURVE",
"779 566 CURVE SMOOTH",
"779 563 OFFCURVE",
"777 558 OFFCURVE",
"772 550 CURVE SMOOTH",
"741 504 OFFCURVE",
"646 346 OFFCURVE",
"628 306 CURVE",
"595 306 LINE SMOOTH",
"566 306 OFFCURVE",
"538 305 OFFCURVE",
"508 301 CURVE"
);
}
);
width = 1256;
},
{
layerId = "10EE7422-BC27-45A8-8DF8-0D41623AEA15";
paths = (
{
closed = 1;
nodes = (
"186 -180 OFFCURVE",
"357 115 OFFCURVE",
"473 260 CURVE",
"511 267 OFFCURVE",
"584 271 OFFCURVE",
"623 271 CURVE",
"575 166 OFFCURVE",
"563 133 OFFCURVE",
"568 133 CURVE SMOOTH",
"578 133 OFFCURVE",
"641 235 OFFCURVE",
"658 229 CURVE",
"700 292 OFFCURVE",
"749 393 OFFCURVE",
"789 458 CURVE SMOOTH",
"807 486 OFFCURVE",
"825 514 OFFCURVE",
"841 543 CURVE SMOOTH",
"848 554 OFFCURVE",
"853 567 OFFCURVE",
"852 582 CURVE SMOOTH",
"847 631 OFFCURVE",
"794 610 OFFCURVE",
"765 625 CURVE",
"745 604 OFFCURVE",
"733 582 OFFCURVE",
"712 561 CURVE SMOOTH",
"644 489 OFFCURVE",
"578 417 OFFCURVE",
"512 344 CURVE SMOOTH",
"468 295 LINE",
"347 276 OFFCURVE",
"224 238 OFFCURVE",
"104 226 CURVE SMOOTH",
"98 225 OFFCURVE",
"91 225 OFFCURVE",
"85 225 CURVE SMOOTH",
"77 225 OFFCURVE",
"47 226 OFFCURVE",
"47 238 CURVE SMOOTH",
"47 266 OFFCURVE",
"208 315 OFFCURVE",
"238 325 CURVE",
"238 326 OFFCURVE",
"240 329 OFFCURVE",
"240 330 CURVE SMOOTH",
"240 334 OFFCURVE",
"230 334 OFFCURVE",
"228 334 CURVE SMOOTH",
"183 334 OFFCURVE",
"11 286 OFFCURVE",
"11 233 CURVE SMOOTH",
"11 198 OFFCURVE",
"26 159 OFFCURVE",
"66 159 CURVE SMOOTH",
"72 159 LINE SMOOTH",
"194 171 OFFCURVE",
"308 220 OFFCURVE",
"427 250 CURVE",
"397 217 OFFCURVE",
"368 184 OFFCURVE",
"339 150 CURVE SMOOTH",
"246 40 OFFCURVE",
"143 -109 OFFCURVE",
"-11 -130 CURVE SMOOTH",
"-25 -131 OFFCURVE",
"-39 -132 OFFCURVE",
"-53 -132 CURVE SMOOTH",
"-91 -132 OFFCURVE",
"-137 -123 OFFCURVE",
"-137 -75 CURVE SMOOTH",
"-137 -71 OFFCURVE",
"-139 -67 OFFCURVE",
"-143 -67 CURVE SMOOTH",
"-147 -67 OFFCURVE",
"-149 -71 OFFCURVE",
"-149 -74 CURVE SMOOTH",
"-149 -147 OFFCURVE",
"-64 -180 OFFCURVE",
"-2 -180 CURVE SMOOTH"
);
},
{
closed = 1;
nodes = (
"562 362 OFFCURVE",
"702 517 OFFCURVE",
"724 517 CURVE SMOOTH",
"726 517 OFFCURVE",
"726 515 OFFCURVE",
"726 513 CURVE SMOOTH",
"727 505 OFFCURVE",
"720 493 OFFCURVE",
"717 487 CURVE SMOOTH",
"696 445 OFFCURVE",
"660 378 OFFCURVE",
"627 306 CURVE",
"615 307 OFFCURVE",
"605 307 OFFCURVE",
"596 307 CURVE SMOOTH",
"567 307 OFFCURVE",
"538 305 OFFCURVE",
"508 301 CURVE"
);
},
{
closed = 1;
nodes = (
"913 -64 OFFCURVE",
"1113 3 OFFCURVE",
"1159 123 CURVE SMOOTH",
"1162 130 OFFCURVE",
"1163 136 OFFCURVE",
"1163 142 CURVE SMOOTH",
"1163 151 OFFCURVE",
"1160 160 OFFCURVE",
"1154 170 CURVE",
"1154 194 OFFCURVE",
"1121 245 OFFCURVE",
"1091 250 CURVE",
"1087 249 OFFCURVE",
"1084 247 OFFCURVE",
"1084 244 CURVE SMOOTH",
"1084 242 OFFCURVE",
"1086 238 OFFCURVE",
"1092 234 CURVE SMOOTH",
"1107 222 OFFCURVE",
"1112 208 OFFCURVE",
"1112 194 CURVE SMOOTH",
"1112 168 OFFCURVE",
"1095 140 OFFCURVE",
"1078 118 CURVE SMOOTH",
"1043 74 OFFCURVE",
"994 50 OFFCURVE",
"942 25 CURVE SMOOTH",
"896 4 OFFCURVE",
"797 -24 OFFCURVE",
"713 -24 CURVE SMOOTH",
"636 -24 OFFCURVE",
"572 -1 OFFCURVE",
"572 73 CURVE SMOOTH",
"572 96 OFFCURVE",
"580 118 OFFCURVE",
"591 138 CURVE SMOOTH",
"609 167 OFFCURVE",
"640 188 OFFCURVE",
"668 205 CURVE SMOOTH",
"723 240 OFFCURVE",
"864 303 OFFCURVE",
"959 303 CURVE SMOOTH",
"971 303 OFFCURVE",
"982 302 OFFCURVE",
"992 300 CURVE SMOOTH",
"997 299 OFFCURVE",
"1009 293 OFFCURVE",
"1015 293 CURVE SMOOTH",
"1017 293 OFFCURVE",
"1019 294 OFFCURVE",
"1019 295 CURVE SMOOTH",
"1018 324 OFFCURVE",
"992 360 OFFCURVE",
"961 360 CURVE SMOOTH",
"943 360 OFFCURVE",
"890 349 OFFCURVE",
"848 349 CURVE SMOOTH",
"816 349 OFFCURVE",
"790 355 OFFCURVE",
"790 377 CURVE SMOOTH",
"790 459 OFFCURVE",
"999 556 OFFCURVE",
"1086 556 CURVE SMOOTH",
"1093 556 OFFCURVE",
"1109 556 OFFCURVE",
"1109 549 CURVE SMOOTH",
"1109 548 OFFCURVE",
"1109 547 OFFCURVE",
"1108 546 CURVE",
"1094 522 OFFCURVE",
"1069 473 OFFCURVE",
"1069 436 CURVE SMOOTH",
"1069 412 OFFCURVE",
"1079 392 OFFCURVE",
"1109 385 CURVE SMOOTH",
"1118 383 OFFCURVE",
"1122 387 OFFCURVE",
"1122 390 CURVE SMOOTH",
"1122 391 OFFCURVE",
"1121 393 OFFCURVE",
"1119 393 CURVE",
"1112 397 OFFCURVE",
"1106 405 OFFCURVE",
"1106 413 CURVE SMOOTH",
"1106 432 OFFCURVE",
"1151 519 OFFCURVE",
"1169 519 CURVE SMOOTH",
"1176 519 OFFCURVE",
"1178 503 OFFCURVE",
"1178 487 CURVE SMOOTH",
"1178 475 OFFCURVE",
"1176 462 OFFCURVE",
"1175 458 CURVE SMOOTH",
"1174 454 OFFCURVE",
"1174 450 OFFCURVE",
"1174 448 CURVE SMOOTH",
"1174 442 OFFCURVE",
"1176 439 OFFCURVE",
"1179 439 CURVE SMOOTH",
"1187 439 OFFCURVE",
"1200 458 OFFCURVE",
"1200 496 CURVE SMOOTH",
"1200 516 OFFCURVE",
"1197 538 OFFCURVE",
"1191 547 CURVE",
"1200 556 OFFCURVE",
"1248 614 OFFCURVE",
"1259 624 CURVE",
"1260 649 OFFCURVE",
"1228 662 OFFCURVE",
"1208 662 CURVE",
"1182 640 OFFCURVE",
"1162 612 OFFCURVE",
"1143 584 CURVE",
"1120 602 OFFCURVE",
"1088 612 OFFCURVE",
"1049 612 CURVE SMOOTH",
"1014 612 OFFCURVE",
"973 604 OFFCURVE",
"927 588 CURVE SMOOTH",
"867 567 OFFCURVE",
"725 484 OFFCURVE",
"725 408 CURVE SMOOTH",
"725 366 OFFCURVE",
"755 334 OFFCURVE",
"820 327 CURVE",
"774 311 LINE SMOOTH",
"690 281 OFFCURVE",
"541 189 OFFCURVE",
"541 88 CURVE SMOOTH",
"541 -33 OFFCURVE",
"688 -64 OFFCURVE",
"780 -64 CURVE SMOOTH"
);
}
);
width = 1169;
}
);
note = AE;
unicode = 00C6;
},
{
glyphname = B;
lastChange = "2021-10-20 21:03:02 +0000";
layers = (
{
layerId = "E1C4CDDB-EFDF-468A-8ACC-65E2DFDE53DF";
paths = (
{
closed = 1;
nodes = (
"328 -34 OFFCURVE",
"420 -12 OFFCURVE",
"471 7 CURVE SMOOTH",
"569 43 OFFCURVE",
"655 106 OFFCURVE",
"692 167 CURVE SMOOTH",
"696 173 OFFCURVE",
"697 179 OFFCURVE",
"697 184 CURVE SMOOTH",
"697 193 OFFCURVE",
"692 201 OFFCURVE",
"684 209 CURVE SMOOTH",
"680 214 OFFCURVE",
"673 220 OFFCURVE",
"673 227 CURVE SMOOTH",
"673 228 LINE SMOOTH",
"670 262 OFFCURVE",
"580 278 OFFCURVE",
"529 278 CURVE SMOOTH",
"521 278 OFFCURVE",
"520 282 OFFCURVE",
"526 283 CURVE SMOOTH",
"587 288 OFFCURVE",
"745 350 OFFCURVE",
"745 430 CURVE SMOOTH",
"745 444 OFFCURVE",
"740 458 OFFCURVE",
"729 473 CURVE",
"721 537 OFFCURVE",
"645 552 OFFCURVE",
"590 564 CURVE",
"617 588 OFFCURVE",
"634 605 OFFCURVE",
"637 615 CURVE SMOOTH",
"638 619 OFFCURVE",
"639 622 OFFCURVE",
"639 625 CURVE SMOOTH",
"639 646 OFFCURVE",
"610 654 OFFCURVE",
"592 655 CURVE",
"581 643 OFFCURVE",
"556 629 OFFCURVE",
"541 616 CURVE SMOOTH",
"531 606 OFFCURVE",
"524 600 OFFCURVE",
"524 592 CURVE SMOOTH",
"524 588 OFFCURVE",
"526 584 OFFCURVE",
"531 579 CURVE",
"523 571 LINE",
"496 573 OFFCURVE",
"468 574 OFFCURVE",
"440 574 CURVE SMOOTH",
"372 574 OFFCURVE",
"306 569 OFFCURVE",
"257 563 CURVE SMOOTH",
"118 547 OFFCURVE",
"-14 505 OFFCURVE",
"-14 456 CURVE SMOOTH",
"-14 440 OFFCURVE",
"5 402 OFFCURVE",
"37 385 CURVE SMOOTH",
"41 383 OFFCURVE",
"44 387 OFFCURVE",
"44 390 CURVE SMOOTH",
"44 391 OFFCURVE",
"44 392 OFFCURVE",
"43 393 CURVE SMOOTH",
"38 397 OFFCURVE",
"28 407 OFFCURVE",
"26 414 CURVE SMOOTH",
"25 417 OFFCURVE",
"25 420 OFFCURVE",
"25 423 CURVE SMOOTH",
"25 465 OFFCURVE",
"115 509 OFFCURVE",
"272 538 CURVE SMOOTH",
"301 543 OFFCURVE",
"441 553 OFFCURVE",
"511 551 CURVE",
"404 437 OFFCURVE",
"241 219 OFFCURVE",
"241 109 CURVE SMOOTH",
"241 64 OFFCURVE",
"267 31 OFFCURVE",
"297 31 CURVE SMOOTH",
"304 31 OFFCURVE",
"306 36 OFFCURVE",
"301 36 CURVE SMOOTH",
"272 39 OFFCURVE",
"267 64 OFFCURVE",
"267 88 CURVE SMOOTH",
"267 222 OFFCURVE",
"466 435 OFFCURVE",
"545 523 CURVE SMOOTH",
"550 529 OFFCURVE",
"559 537 OFFCURVE",
"571 547 CURVE",
"644 541 OFFCURVE",
"716 520 OFFCURVE",
"716 471 CURVE SMOOTH",
"716 457 OFFCURVE",
"711 442 OFFCURVE",
"704 430 CURVE SMOOTH",
"658 355 OFFCURVE",
"570 313 OFFCURVE",
"492 285 CURVE SMOOTH",
"479 280 OFFCURVE",
"463 278 OFFCURVE",
"447 277 CURVE SMOOTH",
"431 276 OFFCURVE",
"415 276 OFFCURVE",
"402 273 CURVE SMOOTH",
"381 269 OFFCURVE",
"373 258 OFFCURVE",
"373 247 CURVE SMOOTH",
"373 235 OFFCURVE",
"383 224 OFFCURVE",
"396 224 CURVE SMOOTH",
"417 224 OFFCURVE",
"444 250 OFFCURVE",
"466 255 CURVE SMOOTH",
"478 258 OFFCURVE",
"503 260 OFFCURVE",
"530 260 CURVE SMOOTH",
"589 260 OFFCURVE",
"662 250 OFFCURVE",
"662 216 CURVE SMOOTH",
"662 156 OFFCURVE",
"487 63 OFFCURVE",
"441 44 CURVE SMOOTH",
"381 19 OFFCURVE",
"296 -10 OFFCURVE",
"230 -10 CURVE SMOOTH",
"140 -10 OFFCURVE",
"108 28 OFFCURVE",
"108 75 CURVE SMOOTH",
"108 134 OFFCURVE",
"160 206 OFFCURVE",
"211 228 CURVE SMOOTH",
"217 231 OFFCURVE",
"220 239 OFFCURVE",
"206 233 CURVE SMOOTH",
"154 212 OFFCURVE",
"84 172 OFFCURVE",
"84 105 CURVE SMOOTH",
"84 92 OFFCURVE",
"87 78 OFFCURVE",
"93 63 CURVE SMOOTH",
"107 28 OFFCURVE",
"133 -3 OFFCURVE",
"167 -19 CURVE SMOOTH",
"190 -30 OFFCURVE",
"220 -34 OFFCURVE",
"253 -34 CURVE SMOOTH"
);
}
);
width = 682;
},
{
layerId = "10EE7422-BC27-45A8-8DF8-0D41623AEA15";
paths = (
{
closed = 1;
nodes = (
"351 -39 OFFCURVE",
"442 -19 OFFCURVE",
"493 0 CURVE SMOOTH",
"592 36 OFFCURVE",
"663 94 OFFCURVE",
"701 156 CURVE SMOOTH",
"705 163 OFFCURVE",
"707 169 OFFCURVE",
"707 175 CURVE SMOOTH",
"707 198 OFFCURVE",
"680 210 OFFCURVE",
"682 218 CURVE",
"679 269 OFFCURVE",
"596 281 OFFCURVE",
"547 281 CURVE SMOOTH",
"541 281 OFFCURVE",
"538 283 OFFCURVE",
"538 284 CURVE SMOOTH",
"538 286 OFFCURVE",
"539 287 OFFCURVE",
"542 287 CURVE SMOOTH",
"608 292 OFFCURVE",
"749 334 OFFCURVE",
"749 420 CURVE SMOOTH",
"749 437 OFFCURVE",
"744 455 OFFCURVE",
"732 475 CURVE",
"721 477 OFFCURVE",
"743 502 OFFCURVE",
"696 530 CURVE SMOOTH",
"673 544 OFFCURVE",
"642 554 OFFCURVE",
"608 561 CURVE",
"628 578 OFFCURVE",
"645 595 OFFCURVE",
"650 607 CURVE SMOOTH",
"651 610 OFFCURVE",
"652 614 OFFCURVE",
"652 618 CURVE SMOOTH",
"652 641 OFFCURVE",
"604 655 OFFCURVE",
"586 655 CURVE",
"568 641 OFFCURVE",
"518 614 OFFCURVE",
"518 589 CURVE SMOOTH",
"518 584 OFFCURVE",
"520 579 OFFCURVE",
"524 575 CURVE",
"521 572 LINE",
"492 574 OFFCURVE",
"462 575 OFFCURVE",
"433 575 CURVE SMOOTH",
"367 575 OFFCURVE",
"304 571 OFFCURVE",
"256 565 CURVE SMOOTH",
"120 549 OFFCURVE",
"-19 507 OFFCURVE",
"-19 454 CURVE SMOOTH",
"-19 429 OFFCURVE",
"27 388 OFFCURVE",
"50 385 CURVE SMOOTH",
"57 384 OFFCURVE",
"61 385 OFFCURVE",
"61 388 CURVE SMOOTH",
"61 389 OFFCURVE",
"60 391 OFFCURVE",
"58 393 CURVE",
"48 393 OFFCURVE",
"39 399 OFFCURVE",
"39 406 CURVE SMOOTH",
"39 453 OFFCURVE",
"182 510 OFFCURVE",
"296 523 CURVE SMOOTH",
"326 527 OFFCURVE",
"406 536 OFFCURVE",
"489 538 CURVE",
"395 435 OFFCURVE",
"236 222 OFFCURVE",
"236 112 CURVE SMOOTH",
"236 84 OFFCURVE",
"259 34 OFFCURVE",
"293 34 CURVE SMOOTH",
"298 34 OFFCURVE",
"302 35 OFFCURVE",
"306 37 CURVE",
"306 45 LINE",
"277 45 OFFCURVE",
"272 66 OFFCURVE",
"272 91 CURVE SMOOTH",
"272 221 OFFCURVE",
"470 426 OFFCURVE",
"556 514 CURVE SMOOTH",
"562 520 OFFCURVE",
"570 528 OFFCURVE",
"580 536 CURVE",
"653 530 OFFCURVE",
"711 512 OFFCURVE",
"711 469 CURVE SMOOTH",
"711 456 OFFCURVE",
"706 442 OFFCURVE",
"699 431 CURVE SMOOTH",
"655 358 OFFCURVE",
"568 318 OFFCURVE",
"491 290 CURVE SMOOTH",
"466 281 OFFCURVE",
"427 283 OFFCURVE",
"402 279 CURVE SMOOTH",
"377 275 OFFCURVE",
"368 261 OFFCURVE",
"368 248 CURVE SMOOTH",
"368 234 OFFCURVE",
"380 220 OFFCURVE",
"396 220 CURVE SMOOTH",
"419 220 OFFCURVE",
"446 246 OFFCURVE",
"467 251 CURVE SMOOTH",
"480 254 OFFCURVE",
"508 257 OFFCURVE",
"539 257 CURVE SMOOTH",
"594 257 OFFCURVE",
"657 248 OFFCURVE",
"657 217 CURVE SMOOTH",
"657 163 OFFCURVE",
"487 72 OFFCURVE",
"439 53 CURVE SMOOTH",
"379 28 OFFCURVE",
"295 0 OFFCURVE",
"230 0 CURVE SMOOTH",
"144 0 OFFCURVE",
"114 36 OFFCURVE",
"114 80 CURVE SMOOTH",
"114 136 OFFCURVE",
"164 204 OFFCURVE",
"213 225 CURVE SMOOTH",
"219 227 OFFCURVE",
"221 231 OFFCURVE",
"221 235 CURVE SMOOTH",
"221 238 OFFCURVE",
"219 241 OFFCURVE",
"213 241 CURVE SMOOTH",
"210 241 OFFCURVE",
"207 240 OFFCURVE",
"204 239 CURVE SMOOTH",
"153 219 OFFCURVE",
"79 177 OFFCURVE",
"79 108 CURVE SMOOTH",
"79 95 OFFCURVE",
"82 81 OFFCURVE",
"88 65 CURVE SMOOTH",
"103 28 OFFCURVE",
"148 -8 OFFCURVE",
"183 -24 CURVE SMOOTH",
"207 -35 OFFCURVE",
"239 -39 OFFCURVE",
"274 -39 CURVE SMOOTH"
);
}
);
width = 682;
}
);
note = B;
unicode = 0042;
},
{
glyphname = C;
lastChange = "2021-10-20 21:03:02 +0000";
layers = (
{
layerId = "E1C4CDDB-EFDF-468A-8ACC-65E2DFDE53DF";
paths = (
{
closed = 1;
nodes = (
"321 -43 OFFCURVE",
"402 -15 OFFCURVE",
"468 17 CURVE SMOOTH",
"510 38 OFFCURVE",
"554 72 OFFCURVE",
"584 100 CURVE SMOOTH",
"587 103 OFFCURVE",
"590 107 OFFCURVE",
"590 109 CURVE SMOOTH",
"590 110 OFFCURVE",
"589 111 OFFCURVE",
"588 111 CURVE SMOOTH",
"586 111 OFFCURVE",
"582 109 OFFCURVE",
"576 105 CURVE SMOOTH",
"501 54 OFFCURVE",
"404 8 OFFCURVE",
"291 -13 CURVE SMOOTH",
"268 -17 OFFCURVE",
"245 -20 OFFCURVE",
"222 -20 CURVE SMOOTH",
"140 -20 OFFCURVE",
"68 11 OFFCURVE",
"68 93 CURVE SMOOTH",
"68 98 OFFCURVE",
"68 103 OFFCURVE",
"69 108 CURVE SMOOTH",
"94 361 OFFCURVE",
"413 548 OFFCURVE",
"586 548 CURVE SMOOTH",
"638 548 OFFCURVE",
"659 530 OFFCURVE",
"659 502 CURVE SMOOTH",
"659 426 OFFCURVE",
"505 279 OFFCURVE",
"450 258 CURVE",
"445 252 OFFCURVE",
"446 249 OFFCURVE",
"450 249 CURVE SMOOTH",
"452 249 OFFCURVE",
"455 250 OFFCURVE",
"458 253 CURVE",
"526 289 OFFCURVE",
"685 393 OFFCURVE",
"685 494 CURVE SMOOTH",
"685 514 OFFCURVE",
"679 534 OFFCURVE",
"665 553 CURVE",
"663 581 OFFCURVE",
"627 594 OFFCURVE",
"577 594 CURVE SMOOTH",
"539 594 OFFCURVE",
"494 586 OFFCURVE",
"451 571 CURVE SMOOTH",
"260 504 OFFCURVE",
"28 305 OFFCURVE",
"12 149 CURVE SMOOTH",
"7 95 OFFCURVE",
"38 40 OFFCURVE",
"81 14 CURVE",
"127 -27 OFFCURVE",
"184 -43 OFFCURVE",
"243 -43 CURVE SMOOTH"
);
}
);
width = 561;
},
{
anchors = (
{
name = bottom;
position = "{195, -21}";
},
{
name = top;
position = "{661, 710}";
}
);
layerId = "10EE7422-BC27-45A8-8DF8-0D41623AEA15";
paths = (
{
closed = 1;
nodes = (
"328 -42 OFFCURVE",
"405 -15 OFFCURVE",
"470 17 CURVE SMOOTH",
"513 38 OFFCURVE",
"557 71 OFFCURVE",
"587 99 CURVE SMOOTH",
"596 108 OFFCURVE",
"602 116 OFFCURVE",
"602 120 CURVE SMOOTH",
"602 121 OFFCURVE",
"601 122 OFFCURVE",
"599 122 CURVE SMOOTH",
"594 122 OFFCURVE",
"584 118 OFFCURVE",
"567 107 CURVE SMOOTH",
"508 70 OFFCURVE",
"325 -7 OFFCURVE",
"202 -7 CURVE SMOOTH",
"132 -7 OFFCURVE",
"81 17 OFFCURVE",
"81 87 CURVE SMOOTH",
"81 92 OFFCURVE",
"81 97 OFFCURVE",
"82 103 CURVE SMOOTH",
"102 307 OFFCURVE",
"382 527 OFFCURVE",
"586 527 CURVE SMOOTH",
"629 527 OFFCURVE",
"643 510 OFFCURVE",
"643 488 CURVE SMOOTH",
"643 462 OFFCURVE",
"625 428 OFFCURVE",
"610 401 CURVE SMOOTH",
"582 351 OFFCURVE",
"529 298 OFFCURVE",
"447 258 CURVE",
"445 256 OFFCURVE",
"443 253 OFFCURVE",
"443 251 CURVE SMOOTH",
"443 247 OFFCURVE",
"446 245 OFFCURVE",
"450 245 CURVE SMOOTH",
"453 245 OFFCURVE",
"457 246 OFFCURVE",
"461 249 CURVE",
"561 301 OFFCURVE",
"605 340 OFFCURVE",
"661 411 CURVE SMOOTH",
"679 435 OFFCURVE",
"689 463 OFFCURVE",
"689 491 CURVE SMOOTH",
"689 512 OFFCURVE",
"683 533 OFFCURVE",
"670 550 CURVE",
"668 581 OFFCURVE",
"630 594 OFFCURVE",
"579 594 CURVE SMOOTH",
"539 594 OFFCURVE",
"491 586 OFFCURVE",
"449 571 CURVE SMOOTH",
"258 505 OFFCURVE",
"23 308 OFFCURVE",
"7 151 CURVE SMOOTH",
"6 134 OFFCURVE",
"9 107 OFFCURVE",
"15 98 CURVE SMOOTH",
"27 82 OFFCURVE",
"46 68 OFFCURVE",
"61 52 CURVE SMOOTH",
"75 39 OFFCURVE",
"83 24 OFFCURVE",
"92 16 CURVE SMOOTH",
"140 -26 OFFCURVE",
"196 -42 OFFCURVE",
"253 -42 CURVE SMOOTH"
);
}
);
width = 561;
}
);
note = C;
unicode = 0043;
},
{
glyphname = D;
lastChange = "2021-10-20 21:03:02 +0000";
layers = (
{
layerId = "E1C4CDDB-EFDF-468A-8ACC-65E2DFDE53DF";
paths = (
{
closed = 1;
nodes = (
"332 -30 OFFCURVE",
"370 -26 OFFCURVE",
"404 -20 CURVE SMOOTH",
"592 15 OFFCURVE",
"783 155 OFFCURVE",
"854 288 CURVE SMOOTH",
"873 323 OFFCURVE",
"883 358 OFFCURVE",
"883 390 CURVE SMOOTH",
"883 445 OFFCURVE",
"854 494 OFFCURVE",
"784 527 CURVE SMOOTH",
"752 542 OFFCURVE",
"696 559 OFFCURVE",
"630 567 CURVE",
"655 591 OFFCURVE",
"669 606 OFFCURVE",
"673 615 CURVE SMOOTH",
"674 618 OFFCURVE",
"675 621 OFFCURVE",
"675 625 CURVE SMOOTH",
"675 645 OFFCURVE",
"642 654 OFFCURVE",
"624 655 CURVE",
"619 651 OFFCURVE",
"611 646 OFFCURVE",
"603 640 CURVE SMOOTH",
"594 634 OFFCURVE",
"585 627 OFFCURVE",
"577 620 CURVE SMOOTH",
"567 611 OFFCURVE",
"561 602 OFFCURVE",
"561 594 CURVE SMOOTH",
"561 589 OFFCURVE",
"563 584 OFFCURVE",
"568 579 CURVE",
"561 571 LINE",
"420 571 OFFCURVE",
"33 550 OFFCURVE",
"33 439 CURVE SMOOTH",
"33 423 OFFCURVE",
"55 400 OFFCURVE",
"76 386 CURVE",
"78 384 OFFCURVE",
"87 384 OFFCURVE",
"82 390 CURVE SMOOTH",
"73 401 OFFCURVE",
"68 411 OFFCURVE",
"68 421 CURVE SMOOTH",
"68 432 OFFCURVE",
"74 442 OFFCURVE",
"86 452 CURVE SMOOTH",
"175 527 OFFCURVE",
"419 544 OFFCURVE",
"538 548 CURVE",
"470 472 OFFCURVE",
"382 358 OFFCURVE",
"326 254 CURVE",
"246 225 OFFCURVE",
"207 203 OFFCURVE",
"173 168 CURVE SMOOTH",
"145 139 OFFCURVE",
"134 105 OFFCURVE",
"134 75 CURVE SMOOTH",
"134 40 OFFCURVE",
"149 11 OFFCURVE",
"166 6 CURVE",
"190 -21 OFFCURVE",
"241 -30 OFFCURVE",
"296 -30 CURVE SMOOTH"
);
},
{
closed = 1;
nodes = (
"231 -16 OFFCURVE",
"201 -9 OFFCURVE",
"183 10 CURVE SMOOTH",
"172 22 OFFCURVE",
"165 37 OFFCURVE",
"165 58 CURVE SMOOTH",
"165 62 OFFCURVE",
"166 66 OFFCURVE",
"166 70 CURVE SMOOTH",
"171 119 OFFCURVE",
"220 181 OFFCURVE",
"317 235 CURVE",
"290 178 OFFCURVE",
"278 139 OFFCURVE",
"278 109 CURVE SMOOTH",
"278 81 OFFCURVE",
"301 35 OFFCURVE",
"330 35 CURVE SMOOTH",
"333 35 OFFCURVE",
"336 36 OFFCURVE",
"338 36 CURVE SMOOTH",
"309 39 OFFCURVE",
"304 64 OFFCURVE",
"304 88 CURVE SMOOTH",
"304 138 OFFCURVE",
"328 193 OFFCURVE",
"367 254 CURVE",
"406 269 OFFCURVE",
"449 277 OFFCURVE",
"495 287 CURVE SMOOTH",
"500 288 OFFCURVE",
"502 290 OFFCURVE",
"502 292 CURVE SMOOTH",
"502 294 OFFCURVE",
"499 296 OFFCURVE",
"495 296 CURVE SMOOTH",
"493 296 LINE SMOOTH",
"456 290 OFFCURVE",
"422 282 OFFCURVE",
"378 270 CURVE",
"451 376 OFFCURVE",
"530 471 OFFCURVE",
"580 523 CURVE",
"587 529 OFFCURVE",
"596 538 OFFCURVE",
"609 549 CURVE",
"787 539 OFFCURVE",
"858 482 OFFCURVE",
"858 407 CURVE SMOOTH",
"858 372 OFFCURVE",
"842 333 OFFCURVE",
"815 294 CURVE SMOOTH",
"706 137 OFFCURVE",
"443 -16 OFFCURVE",
"264 -16 CURVE SMOOTH"
);
}
);
width = 755;
},
{
layerId = "10EE7422-BC27-45A8-8DF8-0D41623AEA15";
paths = (
{
closed = 1;
nodes = (
"324 -32 OFFCURVE",
"367 -27 OFFCURVE",
"405 -20 CURVE SMOOTH",
"594 14 OFFCURVE",
"792 143 OFFCURVE",
"863 276 CURVE SMOOTH",
"880 307 OFFCURVE",
"888 339 OFFCURVE",
"888 369 CURVE SMOOTH",
"888 432 OFFCURVE",
"853 489 OFFCURVE",
"787 528 CURVE SMOOTH",
"755 546 OFFCURVE",
"706 558 OFFCURVE",
"650 565 CURVE",
"668 581 OFFCURVE",
"683 596 OFFCURVE",
"687 607 CURVE SMOOTH",
"688 610 OFFCURVE",
"689 614 OFFCURVE",
"689 618 CURVE SMOOTH",
"689 641 OFFCURVE",
"641 655 OFFCURVE",
"623 655 CURVE",
"605 641 OFFCURVE",
"555 614 OFFCURVE",
"555 589 CURVE SMOOTH",
"555 584 OFFCURVE",
"557 579 OFFCURVE",
"561 575 CURVE",
"559 573 LINE",
"534 574 OFFCURVE",
"510 574 OFFCURVE",
"485 574 CURVE SMOOTH",
"411 574 OFFCURVE",
"341 570 OFFCURVE",
"293 565 CURVE SMOOTH",
"157 549 OFFCURVE",
"18 507 OFFCURVE",
"18 454 CURVE SMOOTH",
"18 429 OFFCURVE",
"64 388 OFFCURVE",
"87 385 CURVE SMOOTH",
"94 384 OFFCURVE",
"98 385 OFFCURVE",
"98 388 CURVE SMOOTH",
"98 389 OFFCURVE",
"97 391 OFFCURVE",
"95 393 CURVE",
"85 393 OFFCURVE",
"76 399 OFFCURVE",
"76 406 CURVE SMOOTH",
"76 453 OFFCURVE",
"219 510 OFFCURVE",
"333 523 CURVE SMOOTH",
"383 529 OFFCURVE",
"454 537 OFFCURVE",
"526 539 CURVE",
"466 473 OFFCURVE",
"378 360 OFFCURVE",
"323 259 CURVE",
"244 231 OFFCURVE",
"187 196 OFFCURVE",
"152 161 CURVE SMOOTH",
"127 136 OFFCURVE",
"117 104 OFFCURVE",
"117 74 CURVE SMOOTH",
"117 50 OFFCURVE",
"124 28 OFFCURVE",
"135 15 CURVE SMOOTH",
"145 3 OFFCURVE",
"162 -2 OFFCURVE",
"168 0 CURVE",
"190 -24 OFFCURVE",
"234 -32 OFFCURVE",
"284 -32 CURVE SMOOTH"
);
},
{
closed = 1;
nodes = (
"210 -8 OFFCURVE",
"164 12 OFFCURVE",
"171 73 CURVE SMOOTH",
"176 119 OFFCURVE",
"223 179 OFFCURVE",
"306 225 CURVE",
"285 182 OFFCURVE",
"273 143 OFFCURVE",
"273 112 CURVE SMOOTH",
"273 84 OFFCURVE",
"296 34 OFFCURVE",
"330 34 CURVE SMOOTH",
"335 34 OFFCURVE",
"339 35 OFFCURVE",
"343 37 CURVE",
"343 45 LINE",
"314 45 OFFCURVE",
"309 66 OFFCURVE",
"309 91 CURVE SMOOTH",
"309 139 OFFCURVE",
"335 197 OFFCURVE",
"374 256 CURVE",
"411 270 OFFCURVE",
"453 280 OFFCURVE",
"500 287 CURVE",
"506 289 OFFCURVE",
"508 293 OFFCURVE",
"508 297 CURVE SMOOTH",
"508 300 OFFCURVE",
"506 303 OFFCURVE",
"500 303 CURVE SMOOTH",
"497 303 OFFCURVE",
"494 302 OFFCURVE",
"491 301 CURVE",
"455 295 OFFCURVE",
"421 288 OFFCURVE",
"390 279 CURVE",
"455 372 OFFCURVE",
"543 463 OFFCURVE",
"593 514 CURVE SMOOTH",
"599 520 OFFCURVE",
"609 529 OFFCURVE",
"620 538 CURVE",
"790 529 OFFCURVE",
"855 477 OFFCURVE",
"855 409 CURVE SMOOTH",
"855 375 OFFCURVE",
"839 336 OFFCURVE",
"811 297 CURVE SMOOTH",
"756 219 OFFCURVE",
"562 86 OFFCURVE",
"402 21 CURVE SMOOTH",
"365 6 OFFCURVE",
"312 -8 OFFCURVE",
"265 -8 CURVE SMOOTH"
);
}
);
width = 755;
}
);
note = D;
unicode = 0044;
},
{
glyphname = Eth;
lastChange = "2021-10-20 21:03:02 +0000";
layers = (
{
layerId = "E1C4CDDB-EFDF-468A-8ACC-65E2DFDE53DF";
paths = (
{
closed = 1;
nodes = (
"329 -31 OFFCURVE",
"368 -26 OFFCURVE",
"404 -20 CURVE SMOOTH",
"592 15 OFFCURVE",
"783 155 OFFCURVE",
"854 288 CURVE SMOOTH",
"873 323 OFFCURVE",
"883 358 OFFCURVE",
"883 390 CURVE SMOOTH",
"883 445 OFFCURVE",
"854 494 OFFCURVE",
"784 527 CURVE SMOOTH",
"752 542 OFFCURVE",
"696 559 OFFCURVE",
"630 567 CURVE",
"655 591 OFFCURVE",
"669 606 OFFCURVE",
"673 615 CURVE SMOOTH",
"674 618 OFFCURVE",
"675 621 OFFCURVE",
"675 625 CURVE SMOOTH",
"675 645 OFFCURVE",
"642 654 OFFCURVE",
"624 655 CURVE",
"619 651 OFFCURVE",
"611 646 OFFCURVE",
"603 640 CURVE SMOOTH",
"594 634 OFFCURVE",
"585 627 OFFCURVE",
"577 620 CURVE SMOOTH",
"567 611 OFFCURVE",
"561 602 OFFCURVE",
"561 594 CURVE SMOOTH",
"561 589 OFFCURVE",
"563 584 OFFCURVE",
"568 579 CURVE",
"561 571 LINE",
"420 571 OFFCURVE",
"33 550 OFFCURVE",
"33 439 CURVE SMOOTH",
"33 423 OFFCURVE",
"55 400 OFFCURVE",
"76 386 CURVE",
"78 384 OFFCURVE",
"87 384 OFFCURVE",
"82 390 CURVE SMOOTH",
"73 401 OFFCURVE",
"68 411 OFFCURVE",
"68 421 CURVE SMOOTH",
"68 432 OFFCURVE",
"74 442 OFFCURVE",
"86 452 CURVE SMOOTH",
"175 527 OFFCURVE",
"419 544 OFFCURVE",
"538 548 CURVE",
"432 430 OFFCURVE",
"278 217 OFFCURVE",
"278 109 CURVE SMOOTH",
"278 81 OFFCURVE",
"301 35 OFFCURVE",
"330 35 CURVE SMOOTH",
"333 35 OFFCURVE",
"336 36 OFFCURVE",
"338 36 CURVE SMOOTH",
"309 39 OFFCURVE",
"304 64 OFFCURVE",
"304 88 CURVE SMOOTH",
"304 138 OFFCURVE",
"328 193 OFFCURVE",
"367 254 CURVE SMOOTH",
"437 356 OFFCURVE",
"517 457 OFFCURVE",
"580 523 CURVE",
"587 529 OFFCURVE",
"596 538 OFFCURVE",
"609 549 CURVE",
"787 539 OFFCURVE",
"858 482 OFFCURVE",
"858 407 CURVE SMOOTH",
"858 372 OFFCURVE",
"842 333 OFFCURVE",
"815 294 CURVE SMOOTH",
"706 137 OFFCURVE",
"443 -16 OFFCURVE",
"264 -16 CURVE SMOOTH",
"231 -16 OFFCURVE",
"201 -9 OFFCURVE",
"183 10 CURVE SMOOTH",
"175 19 OFFCURVE",
"169 30 OFFCURVE",
"166 45 CURVE SMOOTH",
"164 55 OFFCURVE",
"157 59 OFFCURVE",
"150 59 CURVE SMOOTH",
"143 59 OFFCURVE",
"137 55 OFFCURVE",
"137 49 CURVE SMOOTH",
"137 47 OFFCURVE",
"137 45 OFFCURVE",
"139 42 CURVE",
"145 23 OFFCURVE",
"158 14 OFFCURVE",
"166 6 CURVE SMOOTH",
"192 -22 OFFCURVE",
"240 -31 OFFCURVE",
"292 -31 CURVE SMOOTH"
);
},
{
closed = 1;
nodes = (
"249 118 OFFCURVE",
"286 121 OFFCURVE",
"294 121 CURVE SMOOTH",
"310 121 OFFCURVE",
"379 125 OFFCURVE",
"420 133 CURVE SMOOTH",
"452 140 OFFCURVE",
"454 148 OFFCURVE",
"443 148 CURVE SMOOTH",
"418 148 OFFCURVE",
"383 149 OFFCURVE",
"371 149 CURVE SMOOTH",
"308 149 OFFCURVE",
"243 148 OFFCURVE",
"179 148 CURVE SMOOTH",
"170 148 OFFCURVE",
"160 139 OFFCURVE",
"160 129 CURVE SMOOTH",
"160 120 OFFCURVE",
"187 118 OFFCURVE",
"216 118 CURVE SMOOTH"
);
}
);
width = 755;
},
{
background = {
paths = (
{
closed = 1;
nodes = (
"278 217 OFFCURVE",
"278 109 CURVE SMOOTH",
"278 81 OFFCURVE",
"301 35 OFFCURVE",
"330 35 CURVE SMOOTH",
"333 35 OFFCURVE",
"336 36 OFFCURVE",
"338 36 CURVE SMOOTH",
"309 39 OFFCURVE",
"304 64 OFFCURVE",
"304 88 CURVE SMOOTH",
"304 138 OFFCURVE",
"328 193 OFFCURVE",
"367 254 CURVE SMOOTH",
"437 356 OFFCURVE",
"517 457 OFFCURVE",
"580 523 CURVE",
"587 529 OFFCURVE",
"596 538 OFFCURVE",
"609 549 CURVE",
"870 535 OFFCURVE",
"901 417 OFFCURVE",
"815 294 CURVE SMOOTH",
"707 139 OFFCURVE",
"449 -13 OFFCURVE",
"271 -16 CURVE SMOOTH",
"235 -17 OFFCURVE",
"202 -10 OFFCURVE",
"183 10 CURVE SMOOTH",
"175 19 OFFCURVE",
"169 30 OFFCURVE",
"166 45 CURVE",
"163 67 OFFCURVE",
"127 61 OFFCURVE",
"139 42 CURVE",
"145 23 OFFCURVE",
"158 14 OFFCURVE",
"166 6 CURVE SMOOTH",
"211 -41 OFFCURVE",
"318 -35 OFFCURVE",
"404 -20 CURVE SMOOTH",
"592 15 OFFCURVE",
"783 155 OFFCURVE",
"854 288 CURVE SMOOTH",
"904 382 OFFCURVE",
"895 474 OFFCURVE",
"784 527 CURVE SMOOTH",
"752 542 OFFCURVE",
"696 559 OFFCURVE",
"630 567 CURVE",
"655 591 OFFCURVE",
"669 606 OFFCURVE",
"673 615 CURVE SMOOTH",
"674 618 OFFCURVE",
"675 621 OFFCURVE",
"675 625 CURVE SMOOTH",
"675 645 OFFCURVE",
"642 654 OFFCURVE",
"624 655 CURVE",
"619 651 OFFCURVE",
"611 646 OFFCURVE",
"603 640 CURVE SMOOTH",
"594 634 OFFCURVE",
"585 627 OFFCURVE",
"577 620 CURVE SMOOTH",
"561 605 OFFCURVE",
"555 593 OFFCURVE",
"568 579 CURVE",
"561 571 LINE",
"420 571 OFFCURVE",
"33 550 OFFCURVE",
"33 439 CURVE SMOOTH",
"33 423 OFFCURVE",
"55 400 OFFCURVE",
"76 386 CURVE",
"78 384 OFFCURVE",
"87 384 OFFCURVE",
"82 390 CURVE SMOOTH",
"62 414 OFFCURVE",
"63 433 OFFCURVE",
"86 452 CURVE SMOOTH",
"175 527 OFFCURVE",
"419 544 OFFCURVE",
"538 548 CURVE",
"432 430 OFFCURVE"
);
},
{
closed = 1;
nodes = (
"418 148 OFFCURVE",
"383 149 OFFCURVE",
"371 149 CURVE SMOOTH",
"308 149 OFFCURVE",
"243 148 OFFCURVE",
"179 148 CURVE SMOOTH",
"170 148 OFFCURVE",
"160 139 OFFCURVE",
"160 129 CURVE SMOOTH",
"160 111 OFFCURVE",
"279 121 OFFCURVE",
"294 121 CURVE SMOOTH",
"310 121 OFFCURVE",
"379 125 OFFCURVE",
"420 133 CURVE SMOOTH",
"452 140 OFFCURVE",
"454 148 OFFCURVE",
"443 148 CURVE SMOOTH"
);
}
);
};
layerId = "10EE7422-BC27-45A8-8DF8-0D41623AEA15";
paths = (
{
closed = 1;
nodes = (
"318 -34 OFFCURVE",
"364 -27 OFFCURVE",
"405 -20 CURVE SMOOTH",
"594 14 OFFCURVE",
"792 143 OFFCURVE",
"863 276 CURVE SMOOTH",
"880 307 OFFCURVE",
"888 339 OFFCURVE",
"888 369 CURVE SMOOTH",
"888 432 OFFCURVE",
"853 489 OFFCURVE",
"787 528 CURVE SMOOTH",
"755 546 OFFCURVE",
"706 558 OFFCURVE",
"650 565 CURVE",
"668 581 OFFCURVE",
"683 596 OFFCURVE",
"687 607 CURVE SMOOTH",
"688 610 OFFCURVE",
"689 614 OFFCURVE",
"689 618 CURVE SMOOTH",
"689 641 OFFCURVE",
"641 655 OFFCURVE",
"623 655 CURVE",
"605 641 OFFCURVE",
"555 614 OFFCURVE",
"555 589 CURVE SMOOTH",
"555 584 OFFCURVE",
"557 579 OFFCURVE",
"561 575 CURVE",
"559 573 LINE",
"534 574 OFFCURVE",
"510 574 OFFCURVE",
"485 574 CURVE SMOOTH",
"411 574 OFFCURVE",
"341 570 OFFCURVE",
"293 565 CURVE SMOOTH",
"157 549 OFFCURVE",
"18 507 OFFCURVE",
"18 454 CURVE SMOOTH",
"18 429 OFFCURVE",
"64 388 OFFCURVE",
"87 385 CURVE SMOOTH",
"94 384 OFFCURVE",
"98 385 OFFCURVE",
"98 388 CURVE SMOOTH",
"98 389 OFFCURVE",
"97 391 OFFCURVE",
"95 393 CURVE",
"85 393 OFFCURVE",
"76 399 OFFCURVE",
"76 406 CURVE SMOOTH",
"76 453 OFFCURVE",
"219 510 OFFCURVE",
"333 523 CURVE SMOOTH",
"383 529 OFFCURVE",
"454 537 OFFCURVE",
"526 539 CURVE",
"454 460 OFFCURVE",
"343 305 OFFCURVE",
"306 225 CURVE SMOOTH",
"286 181 OFFCURVE",
"273 143 OFFCURVE",
"273 112 CURVE SMOOTH",
"273 84 OFFCURVE",
"296 34 OFFCURVE",
"330 34 CURVE SMOOTH",
"335 34 OFFCURVE",
"339 35 OFFCURVE",
"343 37 CURVE",
"343 45 LINE",
"314 45 OFFCURVE",
"309 66 OFFCURVE",
"309 91 CURVE SMOOTH",
"309 204 OFFCURVE",
"455 373 OFFCURVE",
"593 514 CURVE SMOOTH",
"599 520 OFFCURVE",
"609 529 OFFCURVE",
"620 538 CURVE",
"790 529 OFFCURVE",
"855 477 OFFCURVE",
"855 409 CURVE SMOOTH",
"855 375 OFFCURVE",
"839 336 OFFCURVE",
"811 297 CURVE SMOOTH",
"756 219 OFFCURVE",
"562 86 OFFCURVE",
"402 21 CURVE SMOOTH",
"365 6 OFFCURVE",
"312 -8 OFFCURVE",
"265 -8 CURVE SMOOTH",
"213 -8 OFFCURVE",
"170 10 OFFCURVE",
"170 62 CURVE SMOOTH",
"170 74 OFFCURVE",
"159 82 OFFCURVE",
"146 82 CURVE SMOOTH",
"136 82 OFFCURVE",
"127 76 OFFCURVE",
"127 61 CURVE",
"130 45 OFFCURVE",
"137 25 OFFCURVE",
"144 15 CURVE SMOOTH",
"167 -22 OFFCURVE",
"218 -34 OFFCURVE",
"275 -34 CURVE SMOOTH"
);
},
{
closed = 1;
nodes = (
"327 181 OFFCURVE",
"471 201 OFFCURVE",
"471 220 CURVE SMOOTH",
"471 221 OFFCURVE",
"471 222 OFFCURVE",
"469 223 CURVE",
"445 221 OFFCURVE",
"420 221 OFFCURVE",
"395 221 CURVE SMOOTH",
"330 221 OFFCURVE",
"263 220 OFFCURVE",
"196 220 CURVE SMOOTH",
"186 220 OFFCURVE",
"177 211 OFFCURVE",
"177 201 CURVE SMOOTH",
"177 183 OFFCURVE",
"281 181 OFFCURVE",
"298 181 CURVE SMOOTH"
);
}
);
width = 755;
}
);
unicode = 00D0;
},
{
glyphname = E;
lastChange = "2021-10-20 21:03:02 +0000";
layers = (
{
layerId = "E1C4CDDB-EFDF-468A-8ACC-65E2DFDE53DF";
paths = (
{
closed = 1;
nodes = (
"289 -61 OFFCURVE",
"371 -43 OFFCURVE",
"438 -15 CURVE SMOOTH",
"479 2 OFFCURVE",
"615 77 OFFCURVE",
"615 143 CURVE SMOOTH",
"615 153 OFFCURVE",
"612 163 OFFCURVE",
"605 172 CURVE",
"604 198 OFFCURVE",
"578 228 OFFCURVE",
"554 239 CURVE",
"547 236 OFFCURVE",
"545 240 OFFCURVE",
"549 236 CURVE SMOOTH",
"558 229 OFFCURVE",
"581 211 OFFCURVE",
"581 182 CURVE SMOOTH",
"581 117 OFFCURVE",
"471 44 OFFCURVE",
"418 20 CURVE SMOOTH",
"353 -10 OFFCURVE",
"259 -31 OFFCURVE",
"187 -31 CURVE SMOOTH",
"119 -31 OFFCURVE",
"26 -14 OFFCURVE",
"26 70 CURVE SMOOTH",
"26 136 OFFCURVE",
"82 182 OFFCURVE",
"134 214 CURVE SMOOTH",
"199 255 OFFCURVE",
"365 311 OFFCURVE",
"441 311 CURVE SMOOTH",
"448 311 OFFCURVE",
"456 311 OFFCURVE",
"463 309 CURVE",
"460 334 OFFCURVE",
"447 356 OFFCURVE",
"419 356 CURVE SMOOTH",
"391 356 OFFCURVE",
"353 347 OFFCURVE",
"323 346 CURVE",
"318 345 OFFCURVE",
"284 351 OFFCURVE",
"280 352 CURVE SMOOTH",
"257 361 OFFCURVE",
"246 376 OFFCURVE",
"246 394 CURVE SMOOTH",
"246 461 OFFCURVE",
"395 573 OFFCURVE",
"535 573 CURVE SMOOTH",
"558 573 OFFCURVE",
"579 570 OFFCURVE",
"592 559 CURVE",
"582 545 OFFCURVE",
"534 476 OFFCURVE",
"534 430 CURVE SMOOTH",
"534 407 OFFCURVE",
"549 385 OFFCURVE",
"574 385 CURVE SMOOTH",
"575 385 OFFCURVE",
"577 385 OFFCURVE",
"577 387 CURVE SMOOTH",
"577 392 OFFCURVE",
"555 398 OFFCURVE",
"555 423 CURVE SMOOTH",
"555 456 OFFCURVE",
"590 520 OFFCURVE",
"616 539 CURVE",
"630 538 OFFCURVE",
"634 484 OFFCURVE",
"634 473 CURVE SMOOTH",
"634 467 OFFCURVE",
"633 453 OFFCURVE",
"636 453 CURVE SMOOTH",
"637 453 OFFCURVE",
"638 455 OFFCURVE",
"641 462 CURVE SMOOTH",
"646 476 OFFCURVE",
"648 500 OFFCURVE",
"648 505 CURVE SMOOTH",
"648 526 OFFCURVE",
"645 544 OFFCURVE",
"632 562 CURVE",
"655 591 OFFCURVE",
"682 611 OFFCURVE",
"707 637 CURVE",
"705 657 OFFCURVE",
"685 661 OFFCURVE",
"668 662 CURVE",
"642 639 OFFCURVE",
"622 610 OFFCURVE",
"603 581 CURVE",
"575 603 OFFCURVE",
"541 611 OFFCURVE",
"506 611 CURVE SMOOTH",
"408 611 OFFCURVE",
"189 513 OFFCURVE",
"189 409 CURVE SMOOTH",
"189 351 OFFCURVE",
"254 335 OFFCURVE",
"301 331 CURVE",
"207 304 OFFCURVE",
"5 213 OFFCURVE",
"5 86 CURVE SMOOTH",
"5 -25 OFFCURVE",
"127 -61 OFFCURVE",
"217 -61 CURVE SMOOTH"
);
}
);
width = 632;
},
{
anchors = (
{
name = bottom;
position = "{200, -48}";
},
{
name = ogonek;
position = "{314, -51}";
},
{
name = top;
position = "{565, 730}";
},
{
name = topleft;
position = "{20, 688}";
}
);
layerId = "10EE7422-BC27-45A8-8DF8-0D41623AEA15";
paths = (
{
closed = 1;
nodes = (
"372 -64 OFFCURVE",
"571 3 OFFCURVE",
"618 123 CURVE SMOOTH",
"621 129 OFFCURVE",
"622 135 OFFCURVE",
"622 141 CURVE SMOOTH",
"622 151 OFFCURVE",
"618 160 OFFCURVE",
"613 170 CURVE",
"613 194 OFFCURVE",
"579 245 OFFCURVE",
"549 250 CURVE",
"545 249 OFFCURVE",
"542 247 OFFCURVE",
"542 244 CURVE SMOOTH",
"542 242 OFFCURVE",
"545 238 OFFCURVE",
"550 234 CURVE SMOOTH",
"565 222 OFFCURVE",
"571 208 OFFCURVE",
"571 194 CURVE SMOOTH",
"571 168 OFFCURVE",
"553 140 OFFCURVE",
"536 118 CURVE SMOOTH",
"502 74 OFFCURVE",
"453 50 OFFCURVE",
"400 25 CURVE SMOOTH",
"354 4 OFFCURVE",
"255 -24 OFFCURVE",
"172 -24 CURVE SMOOTH",
"95 -24 OFFCURVE",
"31 -1 OFFCURVE",
"31 73 CURVE SMOOTH",
"31 96 OFFCURVE",
"38 118 OFFCURVE",
"50 138 CURVE SMOOTH",
"68 167 OFFCURVE",
"99 188 OFFCURVE",
"127 205 CURVE SMOOTH",
"182 240 OFFCURVE",
"323 303 OFFCURVE",
"419 303 CURVE SMOOTH",
"441 303 OFFCURVE",
"461 299 OFFCURVE",
"477 291 CURVE",
"477 292 LINE",
"478 295 LINE",
"476 324 OFFCURVE",
"451 360 OFFCURVE",
"419 360 CURVE SMOOTH",
"402 360 OFFCURVE",
"349 349 OFFCURVE",
"307 349 CURVE SMOOTH",
"275 349 OFFCURVE",
"249 355 OFFCURVE",
"249 377 CURVE SMOOTH",
"249 459 OFFCURVE",
"458 556 OFFCURVE",
"544 556 CURVE SMOOTH",
"551 556 OFFCURVE",
"568 556 OFFCURVE",
"568 549 CURVE SMOOTH",
"568 548 OFFCURVE",
"568 547 OFFCURVE",
"567 546 CURVE",
"553 522 OFFCURVE",
"528 473 OFFCURVE",
"528 436 CURVE SMOOTH",
"528 411 OFFCURVE",
"538 392 OFFCURVE",
"568 385 CURVE SMOOTH",
"576 383 OFFCURVE",
"580 387 OFFCURVE",
"580 390 CURVE SMOOTH",
"580 391 OFFCURVE",
"579 393 OFFCURVE",
"577 393 CURVE",
"570 397 OFFCURVE",
"565 405 OFFCURVE",
"565 413 CURVE SMOOTH",
"565 432 OFFCURVE",
"610 519 OFFCURVE",
"628 519 CURVE SMOOTH",
"635 519 OFFCURVE",
"637 503 OFFCURVE",
"637 487 CURVE SMOOTH",
"637 475 OFFCURVE",
"635 462 OFFCURVE",
"634 458 CURVE SMOOTH",
"633 454 OFFCURVE",
"633 450 OFFCURVE",
"633 448 CURVE SMOOTH",
"633 442 OFFCURVE",
"635 439 OFFCURVE",
"638 439 CURVE SMOOTH",
"646 439 OFFCURVE",
"659 458 OFFCURVE",
"659 496 CURVE SMOOTH",
"659 516 OFFCURVE",
"656 538 OFFCURVE",
"650 547 CURVE",
"659 556 OFFCURVE",
"707 614 OFFCURVE",
"718 624 CURVE",
"718 649 OFFCURVE",
"687 662 OFFCURVE",
"666 662 CURVE",
"641 640 OFFCURVE",
"621 612 OFFCURVE",
"602 584 CURVE",
"579 602 OFFCURVE",
"547 612 OFFCURVE",
"508 612 CURVE SMOOTH",
"473 612 OFFCURVE",
"432 604 OFFCURVE",
"386 588 CURVE SMOOTH",
"326 567 OFFCURVE",
"184 484 OFFCURVE",
"184 408 CURVE SMOOTH",
"184 366 OFFCURVE",
"214 334 OFFCURVE",
"278 327 CURVE",
"232 311 LINE SMOOTH",
"148 282 OFFCURVE",
"0 189 OFFCURVE",
"0 88 CURVE SMOOTH",
"0 -33 OFFCURVE",
"147 -64 OFFCURVE",
"239 -64 CURVE SMOOTH"
);
}
);
width = 632;
}
);
note = E;
unicode = 0045;
},
{
glyphname = F;
lastChange = "2021-10-20 21:03:02 +0000";
layers = (
{
layerId = "E1C4CDDB-EFDF-468A-8ACC-65E2DFDE53DF";
paths = (
{
closed = 1;
nodes = (
"424 -54 OFFCURVE",
"431 -51 OFFCURVE",
"434 -47 CURVE",
"443 -26 OFFCURVE",
"456 -4 OFFCURVE",
"463 12 CURVE SMOOTH",
"466 20 OFFCURVE",
"475 33 OFFCURVE",
"475 38 CURVE SMOOTH",
"475 39 OFFCURVE",
"474 40 OFFCURVE",
"473 40 CURVE",
"473 40 OFFCURVE",
"472 40 OFFCURVE",
"470 39 CURVE SMOOTH",
"467 38 OFFCURVE",
"460 32 OFFCURVE",
"454 26 CURVE SMOOTH",
"451 23 OFFCURVE",
"449 31 OFFCURVE",
"447 31 CURVE",
"492 119 OFFCURVE",
"555 202 OFFCURVE",
"621 274 CURVE",
"633 276 OFFCURVE",
"653 277 OFFCURVE",
"675 277 CURVE SMOOTH",
"726 277 OFFCURVE",
"788 268 OFFCURVE",
"788 225 CURVE SMOOTH",
"788 181 OFFCURVE",
"754 160 OFFCURVE",
"735 145 CURVE SMOOTH",
"733 143 OFFCURVE",
"736 139 OFFCURVE",
"738 140 CURVE SMOOTH",
"771 162 OFFCURVE",
"821 183 OFFCURVE",
"821 205 CURVE SMOOTH",
"821 218 OFFCURVE",
"818 224 OFFCURVE",
"808 233 CURVE",
"815 290 OFFCURVE",
"675 301 OFFCURVE",
"640 300 CURVE",
"690 354 OFFCURVE",
"846 511 OFFCURVE",
"846 572 CURVE SMOOTH",
"846 627 OFFCURVE",
"791 648 OFFCURVE",
"707 648 CURVE SMOOTH",
"633 648 OFFCURVE",
"536 632 OFFCURVE",
"434 606 CURVE SMOOTH",
"217 551 OFFCURVE",
"10 459 OFFCURVE",
"10 419 CURVE SMOOTH",
"10 394 OFFCURVE",
"70 356 OFFCURVE",
"86 353 CURVE SMOOTH",
"94 351 OFFCURVE",
"96 356 OFFCURVE",
"96 358 CURVE SMOOTH",
"96 359 LINE",
"76 365 OFFCURVE",
"68 377 OFFCURVE",
"68 390 CURVE SMOOTH",
"68 400 OFFCURVE",
"74 412 OFFCURVE",
"84 420 CURVE SMOOTH",
"150 477 OFFCURVE",
"268 532 OFFCURVE",
"401 571 CURVE SMOOTH",
"524 608 OFFCURVE",
"662 631 OFFCURVE",
"728 631 CURVE SMOOTH",
"776 631 OFFCURVE",
"793 621 OFFCURVE",
"793 603 CURVE SMOOTH",
"793 586 OFFCURVE",
"778 562 OFFCURVE",
"758 532 CURVE SMOOTH",
"712 460 OFFCURVE",
"637 366 OFFCURVE",
"579 290 CURVE",
"491 275 OFFCURVE",
"406 249 OFFCURVE",
"365 239 CURVE SMOOTH",
"339 233 OFFCURVE",
"270 216 OFFCURVE",
"217 208 CURVE SMOOTH",
"204 206 OFFCURVE",
"192 205 OFFCURVE",
"180 205 CURVE SMOOTH",
"145 205 OFFCURVE",
"118 214 OFFCURVE",
"118 229 CURVE SMOOTH",
"118 243 OFFCURVE",
"139 261 OFFCURVE",
"195 284 CURVE SMOOTH",
"227 297 OFFCURVE",
"265 313 OFFCURVE",
"286 316 CURVE SMOOTH",
"301 319 OFFCURVE",
"308 322 OFFCURVE",
"308 325 CURVE SMOOTH",
"308 327 OFFCURVE",
"302 329 OFFCURVE",
"293 329 CURVE SMOOTH",
"289 329 OFFCURVE",
"285 329 OFFCURVE",
"281 328 CURVE SMOOTH",
"218 318 OFFCURVE",
"102 266 OFFCURVE",
"102 232 CURVE SMOOTH",
"102 196 OFFCURVE",
"118 158 OFFCURVE",
"158 162 CURVE SMOOTH",
"219 168 OFFCURVE",
"282 185 OFFCURVE",
"347 205 CURVE SMOOTH",
"412 225 OFFCURVE",
"479 248 OFFCURVE",
"560 265 CURVE",
"540 240 OFFCURVE",
"531 227 OFFCURVE",
"523 216 CURVE SMOOTH",
"459 124 OFFCURVE",
"386 10 OFFCURVE",
"386 -14 CURVE SMOOTH",
"386 -43 OFFCURVE",
"403 -54 OFFCURVE",
"417 -54 CURVE SMOOTH"
);
}
);
width = 752;
},
{
layerId = "10EE7422-BC27-45A8-8DF8-0D41623AEA15";
paths = (
{
closed = 1;
nodes = (
"431 -54 OFFCURVE",
"439 -51 OFFCURVE",
"443 -45 CURVE",
"457 -14 OFFCURVE",
"478 18 OFFCURVE",
"478 32 CURVE SMOOTH",
"478 36 OFFCURVE",
"476 39 OFFCURVE",
"470 39 CURVE SMOOTH",
"464 39 OFFCURVE",
"463 40 OFFCURVE",
"460 40 CURVE",
"472 63 OFFCURVE",
"489 92 OFFCURVE",
"494 99 CURVE SMOOTH",
"527 152 OFFCURVE",
"580 212 OFFCURVE",
"634 270 CURVE",
"648 271 OFFCURVE",
"661 272 OFFCURVE",
"675 272 CURVE SMOOTH",
"708 272 OFFCURVE",
"792 267 OFFCURVE",
"792 221 CURVE SMOOTH",
"792 192 OFFCURVE",
"767 166 OFFCURVE",
"745 152 CURVE SMOOTH",
"741 149 OFFCURVE",
"739 147 OFFCURVE",
"739 145 CURVE SMOOTH",
"739 142 OFFCURVE",
"741 140 OFFCURVE",
"743 140 CURVE",
"757 143 OFFCURVE",
"765 154 OFFCURVE",
"774 158 CURVE SMOOTH",
"799 169 OFFCURVE",
"826 172 OFFCURVE",
"826 204 CURVE SMOOTH",
"826 216 OFFCURVE",
"820 224 OFFCURVE",
"808 247 CURVE",
"814 293 OFFCURVE",
"764 299 OFFCURVE",
"738 303 CURVE SMOOTH",
"717 307 OFFCURVE",
"693 307 OFFCURVE",
"668 306 CURVE",
"731 373 OFFCURVE",
"791 434 OFFCURVE",
"820 476 CURVE SMOOTH",
"851 519 OFFCURVE",
"860 529 OFFCURVE",
"860 565 CURVE SMOOTH",
"860 624 OFFCURVE",
"797 647 OFFCURVE",
"706 647 CURVE SMOOTH",
"459 647 OFFCURVE",
"5 482 OFFCURVE",
"5 417 CURVE SMOOTH",
"5 388 OFFCURVE",
"65 356 OFFCURVE",
"81 353 CURVE SMOOTH",
"95 351 OFFCURVE",
"101 353 OFFCURVE",
"101 357 CURVE SMOOTH",
"101 359 OFFCURVE",
"99 361 OFFCURVE",
"96 363 CURVE",
"78 363 OFFCURVE",
"70 370 OFFCURVE",
"70 380 CURVE SMOOTH",
"70 388 OFFCURVE",
"77 398 OFFCURVE",
"87 407 CURVE SMOOTH",
"212 515 OFFCURVE",
"611 626 OFFCURVE",
"729 626 CURVE SMOOTH",
"772 626 OFFCURVE",
"788 616 OFFCURVE",
"788 600 CURVE SMOOTH",
"788 583 OFFCURVE",
"772 559 OFFCURVE",
"754 531 CURVE SMOOTH",
"708 461 OFFCURVE",
"633 368 OFFCURVE",
"576 295 CURVE",
"490 280 OFFCURVE",
"405 255 OFFCURVE",
"364 245 CURVE SMOOTH",
"338 239 OFFCURVE",
"267 222 OFFCURVE",
"214 219 CURVE SMOOTH",
"165 216 OFFCURVE",
"127 221 OFFCURVE",
"127 235 CURVE SMOOTH",
"127 245 OFFCURVE",
"147 260 OFFCURVE",
"197 280 CURVE SMOOTH",
"236 296 OFFCURVE",
"274 309 OFFCURVE",
"323 325 CURVE",
"321 331 OFFCURVE",
"312 334 OFFCURVE",
"300 334 CURVE SMOOTH",
"294 334 OFFCURVE",
"287 333 OFFCURVE",
"280 332 CURVE SMOOTH",
"219 323 OFFCURVE",
"97 272 OFFCURVE",
"97 233 CURVE SMOOTH",
"97 197 OFFCURVE",
"113 155 OFFCURVE",
"158 159 CURVE SMOOTH",
"282 170 OFFCURVE",
"413 229 OFFCURVE",
"547 258 CURVE",
"536 244 OFFCURVE",
"527 231 OFFCURVE",
"519 220 CURVE SMOOTH",
"456 130 OFFCURVE",
"381 16 OFFCURVE",
"381 -10 CURVE SMOOTH",
"381 -41 OFFCURVE",
"403 -54 OFFCURVE",
"421 -54 CURVE SMOOTH"
);
}
);
width = 752;
}
);
note = F;
unicode = 0046;
},
{
glyphname = G;
lastChange = "2021-10-20 21:03:02 +0000";
layers = (
{
layerId = "E1C4CDDB-EFDF-468A-8ACC-65E2DFDE53DF";
paths = (
{
closed = 1;
nodes = (
"388 -42 OFFCURVE",
"516 1 OFFCURVE",
"627 102 CURVE SMOOTH",
"665 137 OFFCURVE",
"691 181 OFFCURVE",
"691 221 CURVE SMOOTH",
"691 251 OFFCURVE",
"677 279 OFFCURVE",
"643 300 CURVE",
"655 301 OFFCURVE",
"667 301 OFFCURVE",
"679 301 CURVE SMOOTH",
"711 301 OFFCURVE",
"741 296 OFFCURVE",
"770 266 CURVE",
"774 266 OFFCURVE",
"779 267 OFFCURVE",
"779 270 CURVE SMOOTH",
"779 271 LINE",
"772 285 OFFCURVE",
"756 299 OFFCURVE",
"742 307 CURVE SMOOTH",
"711 324 OFFCURVE",
"648 332 OFFCURVE",
"578 332 CURVE SMOOTH",
"441 332 OFFCURVE",
"279 302 OFFCURVE",
"274 253 CURVE SMOOTH",
"272 235 OFFCURVE",
"289 231 OFFCURVE",
"306 231 CURVE SMOOTH",
"318 231 OFFCURVE",
"331 233 OFFCURVE",
"335 233 CURVE SMOOTH",
"342 233 OFFCURVE",
"345 234 OFFCURVE",
"345 236 CURVE SMOOTH",
"345 238 OFFCURVE",
"342 240 OFFCURVE",
"337 240 CURVE SMOOTH",
"332 240 OFFCURVE",
"324 241 OFFCURVE",
"313 243 CURVE",
"391 276 OFFCURVE",
"476 301 OFFCURVE",
"542 301 CURVE SMOOTH",
"572 301 OFFCURVE",
"650 296 OFFCURVE",
"644 237 CURVE SMOOTH",
"637 169 OFFCURVE",
"573 101 OFFCURVE",
"498 59 CURVE SMOOTH",
"440 27 OFFCURVE",
"324 -14 OFFCURVE",
"227 -14 CURVE SMOOTH",
"176 -14 OFFCURVE",
"131 -3 OFFCURVE",
"101 26 CURVE SMOOTH",
"83 43 OFFCURVE",
"70 73 OFFCURVE",
"73 107 CURVE SMOOTH",
"94 314 OFFCURVE",
"353 510 OFFCURVE",
"544 548 CURVE SMOOTH",
"561 551 OFFCURVE",
"577 553 OFFCURVE",
"593 553 CURVE SMOOTH",
"647 553 OFFCURVE",
"691 533 OFFCURVE",
"691 493 CURVE SMOOTH",
"691 475 OFFCURVE",
"682 452 OFFCURVE",
"660 425 CURVE SMOOTH",
"657 421 OFFCURVE",
"654 416 OFFCURVE",
"654 414 CURVE SMOOTH",
"654 413 OFFCURVE",
"654 413 OFFCURVE",
"655 413 CURVE SMOOTH",
"656 413 OFFCURVE",
"659 415 OFFCURVE",
"664 418 CURVE SMOOTH",
"673 424 OFFCURVE",
"695 440 OFFCURVE",
"705 451 CURVE SMOOTH",
"713 459 OFFCURVE",
"716 469 OFFCURVE",
"716 479 CURVE SMOOTH",
"716 490 OFFCURVE",
"712 502 OFFCURVE",
"706 514 CURVE SMOOTH",
"697 531 OFFCURVE",
"681 546 OFFCURVE",
"664 559 CURVE SMOOTH",
"631 584 OFFCURVE",
"593 594 OFFCURVE",
"555 594 CURVE SMOOTH",
"475 594 OFFCURVE",
"391 552 OFFCURVE",
"326 514 CURVE SMOOTH",
"171 424 OFFCURVE",
"57 292 OFFCURVE",
"29 171 CURVE SMOOTH",
"24 151 OFFCURVE",
"22 134 OFFCURVE",
"22 119 CURVE SMOOTH",
"22 83 OFFCURVE",
"37 60 OFFCURVE",
"76 32 CURVE",
"137 -30 OFFCURVE",
"220 -42 OFFCURVE",
"284 -42 CURVE SMOOTH"
);
}
);
width = 664;
},
{
anchors = (
{
name = bottom;
position = "{244, -27}";
},
{
name = top;
position = "{649, 710}";
}
);
layerId = "10EE7422-BC27-45A8-8DF8-0D41623AEA15";
paths = (
{
closed = 1;
nodes = (
"389 -42 OFFCURVE",
"519 0 OFFCURVE",
"631 101 CURVE SMOOTH",
"669 136 OFFCURVE",
"698 176 OFFCURVE",
"701 209 CURVE SMOOTH",
"706 259 OFFCURVE",
"674 281 OFFCURVE",
"663 290 CURVE",
"676 293 OFFCURVE",
"688 295 OFFCURVE",
"700 295 CURVE SMOOTH",
"721 295 OFFCURVE",
"743 287 OFFCURVE",
"768 262 CURVE",
"776 262 OFFCURVE",
"776 261 OFFCURVE",
"777 270 CURVE SMOOTH",
"779 287 OFFCURVE",
"758 304 OFFCURVE",
"744 311 CURVE SMOOTH",
"711 329 OFFCURVE",
"639 338 OFFCURVE",
"562 338 CURVE SMOOTH",
"427 338 OFFCURVE",
"275 311 OFFCURVE",
"269 260 CURVE SMOOTH",
"268 249 OFFCURVE",
"280 225 OFFCURVE",
"292 227 CURVE SMOOTH",
"376 243 LINE",
"376 244 OFFCURVE",
"375 246 OFFCURVE",
"375 246 CURVE",
"366 246 OFFCURVE",
"354 245 OFFCURVE",
"344 245 CURVE SMOOTH",
"340 245 OFFCURVE",
"335 245 OFFCURVE",
"332 246 CURVE",
"392 271 OFFCURVE",
"477 296 OFFCURVE",
"542 296 CURVE SMOOTH",
"570 296 OFFCURVE",
"644 293 OFFCURVE",
"639 238 CURVE SMOOTH",
"625 105 OFFCURVE",
"379 17 OFFCURVE",
"272 1 CURVE SMOOTH",
"258 -1 OFFCURVE",
"242 -2 OFFCURVE",
"225 -2 CURVE SMOOTH",
"155 -2 OFFCURVE",
"73 21 OFFCURVE",
"81 103 CURVE SMOOTH",
"102 306 OFFCURVE",
"382 527 OFFCURVE",
"586 527 CURVE SMOOTH",
"595 527 OFFCURVE",
"696 525 OFFCURVE",
"696 488 CURVE SMOOTH",
"696 465 OFFCURVE",
"650 422 OFFCURVE",
"649 415 CURVE SMOOTH",
"649 412 OFFCURVE",
"650 411 OFFCURVE",
"650 410 CURVE",
"652 410 OFFCURVE",
"651 408 OFFCURVE",
"655 408 CURVE SMOOTH",
"667 408 OFFCURVE",
"714 450 OFFCURVE",
"713 464 CURVE SMOOTH",
"713 468 OFFCURVE",
"716 474 OFFCURVE",
"716 477 CURVE SMOOTH",
"721 525 OFFCURVE",
"655 575 OFFCURVE",
"616 587 CURVE SMOOTH",
"581 596 OFFCURVE",
"580 593 OFFCURVE",
"564 593 CURVE SMOOTH",
"366 593 OFFCURVE",
"26 343 OFFCURVE",
"7 151 CURVE SMOOTH",
"5 134 OFFCURVE",
"9 107 OFFCURVE",
"15 98 CURVE SMOOTH",
"26 82 OFFCURVE",
"45 68 OFFCURVE",
"61 52 CURVE SMOOTH",
"74 39 OFFCURVE",
"83 24 OFFCURVE",
"92 16 CURVE SMOOTH",
"140 -27 OFFCURVE",
"220 -42 OFFCURVE",
"284 -42 CURVE SMOOTH"
);
}
);
width = 664;
}
);
note = G;
unicode = 0047;
},
{
glyphname = H;
lastChange = "2021-10-20 21:03:02 +0000";
layers = (
{
layerId = "E1C4CDDB-EFDF-468A-8ACC-65E2DFDE53DF";
paths = (
{
closed = 1;
nodes = (
"428 -54 OFFCURVE",
"435 -51 OFFCURVE",
"438 -47 CURVE",
"448 -26 OFFCURVE",
"461 -5 OFFCURVE",
"468 11 CURVE SMOOTH",
"471 19 OFFCURVE",
"476 27 OFFCURVE",
"476 32 CURVE SMOOTH",
"476 34 OFFCURVE",
"475 35 OFFCURVE",
"472 35 CURVE SMOOTH",
"466 35 OFFCURVE",
"459 31 OFFCURVE",
"451 31 CURVE",
"488 99 OFFCURVE",
"525 176 OFFCURVE",
"576 234 CURVE",
"605 235 OFFCURVE",
"636 235 OFFCURVE",
"666 235 CURVE SMOOTH",
"759 235 LINE SMOOTH",
"800 235 OFFCURVE",
"840 235 OFFCURVE",
"876 237 CURVE",
"829 158 OFFCURVE",
"799 81 OFFCURVE",
"799 33 CURVE SMOOTH",
"799 5 OFFCURVE",
"812 -34 OFFCURVE",
"856 -34 CURVE SMOOTH",
"858 -34 OFFCURVE",
"863 -32 OFFCURVE",
"859 -31 CURVE",
"829 -28 OFFCURVE",
"824 -3 OFFCURVE",
"824 21 CURVE SMOOTH",
"824 84 OFFCURVE",
"868 163 OFFCURVE",
"924 240 CURVE",
"964 242 OFFCURVE",
"996 245 OFFCURVE",
"1021 249 CURVE SMOOTH",
"1033 251 OFFCURVE",
"1038 253 OFFCURVE",
"1038 254 CURVE SMOOTH",
"1038 256 OFFCURVE",
"1033 257 OFFCURVE",
"1027 257 CURVE SMOOTH",
"1020 257 LINE",
"1003 253 OFFCURVE",
"962 251 OFFCURVE",
"929 251 CURVE",
"983 332 OFFCURVE",
"1054 405 OFFCURVE",
"1122 473 CURVE SMOOTH",
"1160 512 OFFCURVE",
"1195 544 OFFCURVE",
"1196 547 CURVE SMOOTH",
"1197 550 OFFCURVE",
"1198 554 OFFCURVE",
"1198 557 CURVE SMOOTH",
"1198 579 OFFCURVE",
"1164 587 OFFCURVE",
"1145 588 CURVE",
"1128 576 OFFCURVE",
"1083 551 OFFCURVE",
"1083 526 CURVE SMOOTH",
"1083 522 OFFCURVE",
"1085 517 OFFCURVE",
"1089 512 CURVE",
"1040 464 OFFCURVE",
"952 359 OFFCURVE",
"884 251 CURVE",
"819 251 OFFCURVE",
"716 251 OFFCURVE",
"596 255 CURVE",
"618 279 OFFCURVE",
"698 382 OFFCURVE",
"769 455 CURVE SMOOTH",
"814 502 OFFCURVE",
"841 545 OFFCURVE",
"841 579 CURVE SMOOTH",
"841 607 OFFCURVE",
"824 628 OFFCURVE",
"784 641 CURVE SMOOTH",
"764 648 OFFCURVE",
"738 651 OFFCURVE",
"708 651 CURVE SMOOTH",
"635 651 OFFCURVE",
"538 633 OFFCURVE",
"433 606 CURVE SMOOTH",
"217 551 OFFCURVE",
"10 459 OFFCURVE",
"10 419 CURVE SMOOTH",
"10 394 OFFCURVE",
"68 356 OFFCURVE",
"84 353 CURVE",
"84 354 LINE",
"90 353 OFFCURVE",
"94 354 OFFCURVE",
"94 356 CURVE SMOOTH",
"94 357 OFFCURVE",
"92 359 OFFCURVE",
"88 359 CURVE",
"70 362 OFFCURVE",
"63 372 OFFCURVE",
"63 384 CURVE SMOOTH",
"63 395 OFFCURVE",
"69 408 OFFCURVE",
"79 416 CURVE SMOOTH",
"206 526 OFFCURVE",
"610 636 OFFCURVE",
"729 636 CURVE SMOOTH",
"773 636 OFFCURVE",
"789 624 OFFCURVE",
"789 604 CURVE SMOOTH",
"789 582 OFFCURVE",
"769 551 OFFCURVE",
"745 517 CURVE SMOOTH",
"689 439 OFFCURVE",
"615 339 OFFCURVE",
"555 259 CURVE",
"522 260 OFFCURVE",
"483 260 OFFCURVE",
"441 260 CURVE SMOOTH",
"336 260 OFFCURVE",
"217 255 OFFCURVE",
"148 224 CURVE SMOOTH",
"129 216 OFFCURVE",
"106 196 OFFCURVE",
"106 167 CURVE SMOOTH",
"106 160 OFFCURVE",
"107 152 OFFCURVE",
"110 144 CURVE",
"105 124 OFFCURVE",
"102 115 OFFCURVE",
"102 106 CURVE SMOOTH",
"102 101 OFFCURVE",
"103 97 OFFCURVE",
"105 91 CURVE",
"113 75 OFFCURVE",
"127 73 OFFCURVE",
"142 71 CURVE SMOOTH",
"163 69 OFFCURVE",
"191 48 OFFCURVE",
"191 56 CURVE SMOOTH",
"191 58 OFFCURVE",
"188 60 OFFCURVE",
"187 60 CURVE",
"158 70 OFFCURVE",
"120 96 OFFCURVE",
"120 133 CURVE SMOOTH",
"120 180 OFFCURVE",
"189 198 OFFCURVE",
"225 206 CURVE SMOOTH",
"293 223 OFFCURVE",
"408 232 OFFCURVE",
"539 235 CURVE",
"537 233 OFFCURVE",
"386 20 OFFCURVE",
"386 -15 CURVE SMOOTH",
"386 -44 OFFCURVE",
"405 -54 OFFCURVE",
"420 -54 CURVE SMOOTH"
);
}
);
width = 936;
},
{
layerId = "10EE7422-BC27-45A8-8DF8-0D41623AEA15";
paths = (
{
closed = 1;
nodes = (
"431 -54 OFFCURVE",
"439 -51 OFFCURVE",
"443 -45 CURVE",
"457 -14 OFFCURVE",
"478 18 OFFCURVE",
"478 32 CURVE SMOOTH",
"478 36 OFFCURVE",
"476 39 OFFCURVE",
"470 39 CURVE SMOOTH",
"464 39 OFFCURVE",
"463 40 OFFCURVE",
"460 40 CURVE",
"472 63 OFFCURVE",
"489 92 OFFCURVE",
"494 99 CURVE SMOOTH",
"519 138 OFFCURVE",
"554 181 OFFCURVE",
"593 225 CURVE",
"688 228 OFFCURVE",
"785 229 OFFCURVE",
"867 233 CURVE",
"825 163 OFFCURVE",
"794 94 OFFCURVE",
"794 46 CURVE SMOOTH",
"794 17 OFFCURVE",
"817 -32 OFFCURVE",
"851 -32 CURVE SMOOTH",
"856 -32 OFFCURVE",
"860 -31 OFFCURVE",
"864 -29 CURVE",
"864 -21 LINE",
"835 -21 OFFCURVE",
"829 0 OFFCURVE",
"829 25 CURVE SMOOTH",
"829 85 OFFCURVE",
"872 162 OFFCURVE",
"927 236 CURVE",
"964 238 OFFCURVE",
"997 241 OFFCURVE",
"1022 245 CURVE SMOOTH",
"1039 248 OFFCURVE",
"1045 251 OFFCURVE",
"1045 254 CURVE SMOOTH",
"1045 258 OFFCURVE",
"1034 262 OFFCURVE",
"1024 262 CURVE SMOOTH",
"1019 262 LINE",
"1003 259 OFFCURVE",
"978 257 OFFCURVE",
"943 256 CURVE",
"1002 333 OFFCURVE",
"1072 405 OFFCURVE",
"1114 448 CURVE SMOOTH",
"1135 469 OFFCURVE",
"1199 517 OFFCURVE",
"1207 540 CURVE SMOOTH",
"1209 544 OFFCURVE",
"1210 548 OFFCURVE",
"1210 552 CURVE SMOOTH",
"1210 575 OFFCURVE",
"1162 588 OFFCURVE",
"1144 589 CURVE",
"1126 574 OFFCURVE",
"1076 547 OFFCURVE",
"1076 523 CURVE SMOOTH",
"1076 518 OFFCURVE",
"1078 513 OFFCURVE",
"1082 509 CURVE",
"1036 465 OFFCURVE",
"948 361 OFFCURVE",
"882 256 CURVE",
"819 257 OFFCURVE",
"736 259 OFFCURVE",
"627 262 CURVE",
"703 345 OFFCURVE",
"784 425 OFFCURVE",
"820 476 CURVE SMOOTH",
"851 519 OFFCURVE",
"860 529 OFFCURVE",
"860 565 CURVE SMOOTH",
"860 624 OFFCURVE",
"797 647 OFFCURVE",
"706 647 CURVE SMOOTH",
"459 647 OFFCURVE",
"5 482 OFFCURVE",
"5 417 CURVE SMOOTH",
"5 388 OFFCURVE",
"65 356 OFFCURVE",
"81 353 CURVE SMOOTH",
"95 351 OFFCURVE",
"101 353 OFFCURVE",
"101 357 CURVE SMOOTH",
"101 359 OFFCURVE",
"99 361 OFFCURVE",
"96 363 CURVE",
"78 363 OFFCURVE",
"70 370 OFFCURVE",
"70 380 CURVE SMOOTH",
"70 388 OFFCURVE",
"77 398 OFFCURVE",
"87 407 CURVE SMOOTH",
"212 515 OFFCURVE",
"611 626 OFFCURVE",
"729 626 CURVE SMOOTH",
"772 626 OFFCURVE",
"788 616 OFFCURVE",
"788 600 CURVE SMOOTH",
"788 583 OFFCURVE",
"772 559 OFFCURVE",
"754 531 CURVE SMOOTH",
"702 451 OFFCURVE",
"611 341 OFFCURVE",
"553 265 CURVE",
"544 265 LINE SMOOTH",
"515 266 OFFCURVE",
"460 269 OFFCURVE",
"399 269 CURVE SMOOTH",
"312 269 OFFCURVE",
"212 263 OFFCURVE",
"154 237 CURVE SMOOTH",
"133 228 OFFCURVE",
"101 200 OFFCURVE",
"101 166 CURVE SMOOTH",
"101 159 OFFCURVE",
"102 152 OFFCURVE",
"105 145 CURVE",
"101 126 OFFCURVE",
"97 117 OFFCURVE",
"97 108 CURVE SMOOTH",
"97 103 OFFCURVE",
"98 98 OFFCURVE",
"101 92 CURVE SMOOTH",
"112 69 OFFCURVE",
"134 71 OFFCURVE",
"159 67 CURVE SMOOTH",
"169 65 OFFCURVE",
"180 57 OFFCURVE",
"194 57 CURVE SMOOTH",
"196 57 OFFCURVE",
"200 65 OFFCURVE",
"189 69 CURVE SMOOTH",
"164 77 OFFCURVE",
"134 96 OFFCURVE",
"127 124 CURVE SMOOTH",
"126 127 OFFCURVE",
"126 130 OFFCURVE",
"126 133 CURVE SMOOTH",
"126 171 OFFCURVE",
"194 187 OFFCURVE",
"225 194 CURVE SMOOTH",
"292 211 OFFCURVE",
"402 218 OFFCURVE",
"521 223 CURVE",
"519 220 LINE SMOOTH",
"456 130 OFFCURVE",
"381 16 OFFCURVE",
"381 -10 CURVE SMOOTH",
"381 -41 OFFCURVE",
"403 -54 OFFCURVE",
"421 -54 CURVE SMOOTH"
);
}
);
width = 936;
}
);
note = H;
unicode = 0048;
},
{
glyphname = I;
lastChange = "2021-10-20 21:03:02 +0000";
layers = (
{
layerId = "E1C4CDDB-EFDF-468A-8ACC-65E2DFDE53DF";
paths = (
{
closed = 1;
nodes = (
"295 36 OFFCURVE",
"304 40 OFFCURVE",
"304 42 CURVE SMOOTH",
"304 43 OFFCURVE",
"304 44 OFFCURVE",
"302 44 CURVE SMOOTH",
"272 46 OFFCURVE",
"267 65 OFFCURVE",
"267 89 CURVE SMOOTH",
"267 223 OFFCURVE",
"446 422 OFFCURVE",
"531 510 CURVE SMOOTH",
"550 530 OFFCURVE",
"579 550 OFFCURVE",
"614 550 CURVE SMOOTH",
"633 550 OFFCURVE",
"661 546 OFFCURVE",
"680 539 CURVE SMOOTH",
"687 537 OFFCURVE",
"689 541 OFFCURVE",
"689 543 CURVE SMOOTH",
"689 545 OFFCURVE",
"688 547 OFFCURVE",
"687 546 CURVE",
"661 557 OFFCURVE",
"633 566 OFFCURVE",
"594 574 CURVE",
"594 574 OFFCURVE",
"615 595 OFFCURVE",
"621 602 CURVE SMOOTH",
"631 613 OFFCURVE",
"635 622 OFFCURVE",
"635 628 CURVE SMOOTH",
"635 645 OFFCURVE",
"604 647 OFFCURVE",
"587 655 CURVE",
"577 647 OFFCURVE",
"559 636 OFFCURVE",
"545 624 CURVE SMOOTH",
"532 614 OFFCURVE",
"525 604 OFFCURVE",
"525 592 CURVE SMOOTH",
"525 589 OFFCURVE",
"525 585 OFFCURVE",
"526 582 CURVE",
"504 584 OFFCURVE",
"482 584 OFFCURVE",
"461 584 CURVE SMOOTH",
"330 584 OFFCURVE",
"224 553 OFFCURVE",
"224 505 CURVE SMOOTH",
"224 464 OFFCURVE",
"239 414 OFFCURVE",
"290 385 CURVE SMOOTH",
"294 383 OFFCURVE",
"297 382 OFFCURVE",
"299 382 CURVE SMOOTH",
"301 382 OFFCURVE",
"302 383 OFFCURVE",
"302 384 CURVE SMOOTH",
"302 386 OFFCURVE",
"301 388 OFFCURVE",
"299 390 CURVE SMOOTH",
"272 417 OFFCURVE",
"254 440 OFFCURVE",
"254 474 CURVE SMOOTH",
"254 489 OFFCURVE",
"266 501 OFFCURVE",
"282 510 CURVE SMOOTH",
"326 534 OFFCURVE",
"408 549 OFFCURVE",
"506 554 CURVE",
"405 443 OFFCURVE",
"241 222 OFFCURVE",
"241 110 CURVE SMOOTH",
"241 82 OFFCURVE",
"248 41 OFFCURVE",
"293 36 CURVE SMOOTH"
);
},
{
closed = 1;
nodes = (
"487 -116 OFFCURVE",
"492 -115 OFFCURVE",
"497 -113 CURVE SMOOTH",
"511 -107 OFFCURVE",
"516 -94 OFFCURVE",
"516 -81 CURVE SMOOTH",
"516 -73 OFFCURVE",
"514 -64 OFFCURVE",
"512 -56 CURVE",
"513 -50 OFFCURVE",
"513 -44 OFFCURVE",
"513 -38 CURVE SMOOTH",
"513 23 OFFCURVE",
"464 40 OFFCURVE",
"407 40 CURVE SMOOTH",
"371 40 OFFCURVE",
"330 33 OFFCURVE",
"296 25 CURVE SMOOTH",
"264 18 OFFCURVE",
"236 10 OFFCURVE",
"220 7 CURVE SMOOTH",
"194 1 OFFCURVE",
"149 -9 OFFCURVE",
"107 -9 CURVE SMOOTH",
"73 -9 OFFCURVE",
"41 -2 OFFCURVE",
"23 23 CURVE SMOOTH",
"19 28 OFFCURVE",
"17 34 OFFCURVE",
"17 40 CURVE SMOOTH",
"17 47 OFFCURVE",
"20 55 OFFCURVE",
"28 62 CURVE SMOOTH",
"34 68 OFFCURVE",
"28 71 OFFCURVE",
"24 71 CURVE SMOOTH",
"23 71 OFFCURVE",
"22 70 OFFCURVE",
"22 70 CURVE",
"12 62 OFFCURVE",
"12 51 OFFCURVE",
"11 42 CURVE SMOOTH",
"8 -26 OFFCURVE",
"46 -44 OFFCURVE",
"93 -44 CURVE SMOOTH",
"140 -44 OFFCURVE",
"230 -26 OFFCURVE",
"268 -17 CURVE SMOOTH",
"285 -13 OFFCURVE",
"337 -3 OFFCURVE",
"389 -3 CURVE SMOOTH",
"448 -3 OFFCURVE",
"506 -16 OFFCURVE",
"506 -65 CURVE SMOOTH",
"506 -88 OFFCURVE",
"493 -93 OFFCURVE",
"480 -106 CURVE SMOOTH",
"475 -112 OFFCURVE",
"477 -116 OFFCURVE",
"484 -116 CURVE SMOOTH"
);
}
);
width = 498;
},
{
layerId = "10EE7422-BC27-45A8-8DF8-0D41623AEA15";
paths = (
{
closed = 1;
nodes = (
"298 34 OFFCURVE",
"302 35 OFFCURVE",
"306 37 CURVE",
"306 45 LINE",
"277 45 OFFCURVE",
"272 66 OFFCURVE",
"272 91 CURVE SMOOTH",
"272 221 OFFCURVE",
"470 426 OFFCURVE",
"556 514 CURVE SMOOTH",
"563 522 OFFCURVE",
"576 533 OFFCURVE",
"590 544 CURVE",
"625 543 OFFCURVE",
"659 539 OFFCURVE",
"689 533 CURVE SMOOTH",
"697 531 OFFCURVE",
"705 536 OFFCURVE",
"705 540 CURVE SMOOTH",
"705 541 OFFCURVE",
"704 542 OFFCURVE",
"702 543 CURVE SMOOTH",
"676 554 OFFCURVE",
"648 562 OFFCURVE",
"617 569 CURVE",
"633 583 OFFCURVE",
"646 597 OFFCURVE",
"650 607 CURVE SMOOTH",
"651 610 OFFCURVE",
"652 614 OFFCURVE",
"652 618 CURVE SMOOTH",
"652 641 OFFCURVE",
"604 655 OFFCURVE",
"586 655 CURVE",
"566 639 OFFCURVE",
"510 609 OFFCURVE",
"519 583 CURVE",
"498 585 OFFCURVE",
"476 586 OFFCURVE",
"455 586 CURVE SMOOTH",
"329 586 OFFCURVE",
"219 555 OFFCURVE",
"219 502 CURVE SMOOTH",
"219 460 OFFCURVE",
"256 397 OFFCURVE",
"288 379 CURVE",
"291 378 OFFCURVE",
"294 377 OFFCURVE",
"298 377 CURVE SMOOTH",
"301 377 OFFCURVE",
"304 378 OFFCURVE",
"304 380 CURVE",
"302 383 LINE",
"275 409 OFFCURVE",
"259 438 OFFCURVE",
"259 471 CURVE SMOOTH",
"259 484 OFFCURVE",
"269 494 OFFCURVE",
"284 502 CURVE SMOOTH",
"327 526 OFFCURVE",
"408 541 OFFCURVE",
"494 544 CURVE",
"401 444 OFFCURVE",
"236 225 OFFCURVE",
"236 112 CURVE SMOOTH",
"236 84 OFFCURVE",
"259 34 OFFCURVE",
"293 34 CURVE SMOOTH"
);
},
{
closed = 1;
nodes = (
"477 -129 OFFCURVE",
"483 -120 OFFCURVE",
"488 -117 CURVE SMOOTH",
"502 -110 OFFCURVE",
"516 -109 OFFCURVE",
"520 -88 CURVE SMOOTH",
"523 -72 OFFCURVE",
"521 -89 OFFCURVE",
"511 -54 CURVE",
"512 -47 OFFCURVE",
"512 -40 OFFCURVE",
"512 -34 CURVE SMOOTH",
"512 30 OFFCURVE",
"463 48 OFFCURVE",
"405 48 CURVE SMOOTH",
"335 48 OFFCURVE",
"252 22 OFFCURVE",
"219 15 CURVE SMOOTH",
"194 10 OFFCURVE",
"149 -1 OFFCURVE",
"108 -1 CURVE SMOOTH",
"74 -1 OFFCURVE",
"44 6 OFFCURVE",
"27 29 CURVE SMOOTH",
"24 33 OFFCURVE",
"22 38 OFFCURVE",
"22 42 CURVE SMOOTH",
"22 48 OFFCURVE",
"25 55 OFFCURVE",
"31 61 CURVE SMOOTH",
"34 64 OFFCURVE",
"35 67 OFFCURVE",
"35 70 CURVE SMOOTH",
"35 74 OFFCURVE",
"32 78 OFFCURVE",
"28 78 CURVE SMOOTH",
"26 78 OFFCURVE",
"25 78 OFFCURVE",
"24 77 CURVE SMOOTH",
"13 67 OFFCURVE",
"7 55 OFFCURVE",
"6 45 CURVE SMOOTH",
"2 -27 OFFCURVE",
"45 -45 OFFCURVE",
"95 -45 CURVE SMOOTH",
"137 -45 OFFCURVE",
"183 -32 OFFCURVE",
"210 -26 CURVE SMOOTH",
"229 -22 OFFCURVE",
"307 -8 OFFCURVE",
"378 -8 CURVE SMOOTH",
"443 -8 OFFCURVE",
"501 -19 OFFCURVE",
"501 -62 CURVE SMOOTH",
"501 -87 OFFCURVE",
"484 -110 OFFCURVE",
"470 -120 CURVE SMOOTH",
"464 -124 OFFCURVE",
"467 -130 OFFCURVE",
"468 -130 CURVE SMOOTH"
);
}
);
width = 498;
}
);
note = I;
unicode = 0049;
},
{
glyphname = J;
lastChange = "2021-10-20 21:03:00 +0000";
layers = (
{
layerId = "E1C4CDDB-EFDF-468A-8ACC-65E2DFDE53DF";
paths = (
{
closed = 1;
nodes = (
"207 -145 OFFCURVE",
"388 61 OFFCURVE",
"476 205 CURVE SMOOTH",
"518 274 OFFCURVE",
"561 385 OFFCURVE",
"561 466 CURVE SMOOTH",
"561 476 OFFCURVE",
"560 486 OFFCURVE",
"557 502 CURVE",
"629 493 LINE SMOOTH",
"637 492 OFFCURVE",
"643 494 OFFCURVE",
"643 497 CURVE SMOOTH",
"643 499 OFFCURVE",
"641 501 OFFCURVE",
"638 502 CURVE SMOOTH",
"628 506 OFFCURVE",
"594 512 OFFCURVE",
"549 518 CURVE",
"541 531 OFFCURVE",
"522 547 OFFCURVE",
"504 547 CURVE SMOOTH",
"501 547 OFFCURVE",
"499 547 OFFCURVE",
"496 546 CURVE",
"501 541 OFFCURVE",
"506 535 OFFCURVE",
"512 523 CURVE",
"475 529 OFFCURVE",
"414 534 OFFCURVE",
"355 534 CURVE SMOOTH",
"300 534 OFFCURVE",
"246 529 OFFCURVE",
"213 517 CURVE SMOOTH",
"174 502 OFFCURVE",
"160 472 OFFCURVE",
"160 438 CURVE SMOOTH",
"160 399 OFFCURVE",
"178 357 OFFCURVE",
"201 328 CURVE SMOOTH",
"223 300 OFFCURVE",
"254 277 OFFCURVE",
"294 252 CURVE SMOOTH",
"297 250 OFFCURVE",
"300 250 OFFCURVE",
"303 250 CURVE SMOOTH",
"306 250 OFFCURVE",
"309 251 OFFCURVE",
"309 252 CURVE SMOOTH",
"309 254 OFFCURVE",
"308 255 OFFCURVE",
"305 256 CURVE",
"256 282 OFFCURVE",
"191 343 OFFCURVE",
"191 403 CURVE SMOOTH",
"191 494 OFFCURVE",
"315 512 OFFCURVE",
"433 512 CURVE SMOOTH",
"454 512 OFFCURVE",
"491 510 OFFCURVE",
"515 507 CURVE",
"516 500 OFFCURVE",
"516 497 OFFCURVE",
"516 493 CURVE SMOOTH",
"516 412 OFFCURVE",
"465 288 OFFCURVE",
"426 220 CURVE SMOOTH",
"361 108 OFFCURVE",
"251 -42 OFFCURVE",
"133 -104 CURVE SMOOTH",
"111 -116 OFFCURVE",
"65 -133 OFFCURVE",
"29 -133 CURVE SMOOTH",
"-1 -133 OFFCURVE",
"-24 -122 OFFCURVE",
"-24 -87 CURVE SMOOTH",
"-24 -40 OFFCURVE",
"30 11 OFFCURVE",
"62 34 CURVE SMOOTH",
"123 79 OFFCURVE",
"207 118 OFFCURVE",
"285 118 CURVE SMOOTH",
"290 118 OFFCURVE",
"293 120 OFFCURVE",
"293 122 CURVE SMOOTH",
"293 123 OFFCURVE",
"290 125 OFFCURVE",
"284 125 CURVE SMOOTH",
"204 125 OFFCURVE",
"106 94 OFFCURVE",
"41 48 CURVE SMOOTH",
"1 19 OFFCURVE",
"-58 -33 OFFCURVE",
"-58 -84 CURVE SMOOTH",
"-58 -129 OFFCURVE",
"-13 -145 OFFCURVE",
"28 -145 CURVE SMOOTH"
);
}
);
width = 433;
},
{
layerId = "10EE7422-BC27-45A8-8DF8-0D41623AEA15";
paths = (
{
closed = 1;
nodes = (
"153 -145 OFFCURVE",
"285 -35 OFFCURVE",
"363 53 CURVE SMOOTH",
"404 100 OFFCURVE",
"439 150 OFFCURVE",
"472 203 CURVE SMOOTH",
"514 271 OFFCURVE",
"566 381 OFFCURVE",
"566 462 CURVE SMOOTH",
"566 472 OFFCURVE",
"565 483 OFFCURVE",
"563 492 CURVE",
"584 489 OFFCURVE",
"605 486 OFFCURVE",
"627 484 CURVE SMOOTH",
"629 484 LINE SMOOTH",
"634 484 OFFCURVE",
"648 489 OFFCURVE",
"648 496 CURVE SMOOTH",
"648 497 OFFCURVE",
"646 498 OFFCURVE",
"645 499 CURVE",
"631 505 OFFCURVE",
"595 512 OFFCURVE",
"552 519 CURVE",
"544 530 OFFCURVE",
"532 539 OFFCURVE",
"514 545 CURVE SMOOTH",
"510 546 OFFCURVE",
"507 547 OFFCURVE",
"503 547 CURVE SMOOTH",
"497 547 OFFCURVE",
"491 544 OFFCURVE",
"486 541 CURVE",
"494 537 OFFCURVE",
"499 532 OFFCURVE",
"503 525 CURVE",
"447 531 OFFCURVE",
"391 536 OFFCURVE",
"369 536 CURVE SMOOTH",
"319 536 OFFCURVE",
"157 531 OFFCURVE",
"157 453 CURVE SMOOTH",
"157 360 OFFCURVE",
"219 288 OFFCURVE",
"301 251 CURVE SMOOTH",
"304 250 OFFCURVE",
"307 249 OFFCURVE",
"310 249 CURVE SMOOTH",
"311 249 OFFCURVE",
"318 249 OFFCURVE",
"318 252 CURVE SMOOTH",
"318 253 OFFCURVE",
"316 254 OFFCURVE",
"316 255 CURVE",
"285 270 OFFCURVE",
"258 288 OFFCURVE",
"236 315 CURVE SMOOTH",
"218 338 OFFCURVE",
"196 369 OFFCURVE",
"196 400 CURVE SMOOTH",
"196 488 OFFCURVE",
"387 502 OFFCURVE",
"450 502 CURVE SMOOTH",
"470 502 OFFCURVE",
"490 501 OFFCURVE",
"510 498 CURVE",
"511 495 OFFCURVE",
"511 492 OFFCURVE",
"511 489 CURVE SMOOTH",
"511 411 OFFCURVE",
"442 277 OFFCURVE",
"403 210 CURVE SMOOTH",
"338 100 OFFCURVE",
"238 -46 OFFCURVE",
"121 -107 CURVE SMOOTH",
"97 -120 OFFCURVE",
"69 -130 OFFCURVE",
"41 -130 CURVE SMOOTH",
"12 -130 OFFCURVE",
"-19 -115 OFFCURVE",
"-19 -82 CURVE SMOOTH",
"-19 -39 OFFCURVE",
"33 9 OFFCURVE",
"65 33 CURVE SMOOTH",
"125 77 OFFCURVE",
"213 119 OFFCURVE",
"290 119 CURVE SMOOTH",
"302 119 OFFCURVE",
"293 131 OFFCURVE",
"284 131 CURVE SMOOTH",
"203 131 OFFCURVE",
"104 101 OFFCURVE",
"38 54 CURVE SMOOTH",
"-1 26 OFFCURVE",
"-63 -27 OFFCURVE",
"-63 -80 CURVE SMOOTH",
"-63 -129 OFFCURVE",
"-12 -145 OFFCURVE",
"28 -145 CURVE SMOOTH"
);
}
);
width = 433;
}
);
note = J;
unicode = 004A;
},
{
glyphname = K;
lastChange = "2021-10-20 21:03:02 +0000";
layers = (
{
layerId = "E1C4CDDB-EFDF-468A-8ACC-65E2DFDE53DF";
paths = (
{
closed = 1;
nodes = (
"731 -231 OFFCURVE",
"732 -224 OFFCURVE",
"729 -223 CURVE SMOOTH",
"720 -220 OFFCURVE",
"714 -213 OFFCURVE",
"714 -201 CURVE SMOOTH",
"714 -183 OFFCURVE",
"741 -138 OFFCURVE",
"770 -94 CURVE SMOOTH",
"799 -49 OFFCURVE",
"832 -3 OFFCURVE",
"846 20 CURVE SMOOTH",
"898 104 OFFCURVE",
"920 163 OFFCURVE",
"920 204 CURVE SMOOTH",
"920 270 OFFCURVE",
"864 290 OFFCURVE",
"786 290 CURVE SMOOTH",
"764 290 OFFCURVE",
"741 289 OFFCURVE",
"716 286 CURVE",
"801 361 OFFCURVE",
"1198 671 OFFCURVE",
"1374 671 CURVE SMOOTH",
"1407 671 OFFCURVE",
"1433 660 OFFCURVE",
"1447 634 CURVE SMOOTH",
"1452 625 OFFCURVE",
"1457 635 OFFCURVE",
"1451 645 CURVE SMOOTH",
"1439 666 OFFCURVE",
"1403 687 OFFCURVE",
"1361 687 CURVE SMOOTH",
"1158 687 OFFCURVE",
"895 490 OFFCURVE",
"690 283 CURVE",
"674 280 OFFCURVE",
"650 277 OFFCURVE",
"621 272 CURVE",
"663 320 OFFCURVE",
"834 504 OFFCURVE",
"834 595 CURVE SMOOTH",
"834 618 OFFCURVE",
"823 634 OFFCURVE",
"798 642 CURVE SMOOTH",
"783 647 OFFCURVE",
"762 649 OFFCURVE",
"736 649 CURVE SMOOTH",
"524 649 OFFCURVE",
"10 506 OFFCURVE",
"10 419 CURVE SMOOTH",
"10 394 OFFCURVE",
"72 355 OFFCURVE",
"88 352 CURVE SMOOTH",
"94 351 OFFCURVE",
"101 353 OFFCURVE",
"101 355 CURVE SMOOTH",
"101 356 OFFCURVE",
"99 358 OFFCURVE",
"96 359 CURVE",
"73 359 OFFCURVE",
"65 372 OFFCURVE",
"65 387 CURVE SMOOTH",
"65 401 OFFCURVE",
"72 416 OFFCURVE",
"82 425 CURVE SMOOTH",
"191 519 OFFCURVE",
"590 635 OFFCURVE",
"729 635 CURVE SMOOTH",
"761 635 OFFCURVE",
"774 621 OFFCURVE",
"774 598 CURVE SMOOTH",
"774 505 OFFCURVE",
"555 263 OFFCURVE",
"523 217 CURVE SMOOTH",
"460 125 OFFCURVE",
"386 12 OFFCURVE",
"386 -13 CURVE SMOOTH",
"386 -42 OFFCURVE",
"405 -53 OFFCURVE",
"421 -53 CURVE SMOOTH",
"428 -53 OFFCURVE",
"435 -50 OFFCURVE",
"438 -46 CURVE",
"448 -24 OFFCURVE",
"461 7 OFFCURVE",
"473 23 CURVE",
"477 27 OFFCURVE",
"478 31 OFFCURVE",
"478 34 CURVE SMOOTH",
"478 36 OFFCURVE",
"478 37 OFFCURVE",
"476 37 CURVE SMOOTH",
"475 37 OFFCURVE",
"474 36 OFFCURVE",
"472 35 CURVE SMOOTH",
"463 30 OFFCURVE",
"457 28 OFFCURVE",
"454 28 CURVE SMOOTH",
"452 28 OFFCURVE",
"451 29 OFFCURVE",
"451 31 CURVE SMOOTH",
"451 33 LINE",
"468 64 OFFCURVE",
"485 93 OFFCURVE",
"489 100 CURVE SMOOTH",
"522 151 OFFCURVE",
"561 202 OFFCURVE",
"611 259 CURVE",
"626 262 OFFCURVE",
"649 266 OFFCURVE",
"679 270 CURVE",
"612 200 OFFCURVE",
"540 128 OFFCURVE",
"484 50 CURVE SMOOTH",
"481 46 OFFCURVE",
"489 46 OFFCURVE",
"491 48 CURVE SMOOTH",
"543 114 OFFCURVE",
"615 193 OFFCURVE",
"704 273 CURVE",
"730 275 OFFCURVE",
"757 278 OFFCURVE",
"782 278 CURVE SMOOTH",
"807 278 OFFCURVE",
"830 275 OFFCURVE",
"846 265 CURVE SMOOTH",
"859 257 OFFCURVE",
"866 241 OFFCURVE",
"866 218 CURVE SMOOTH",
"866 159 OFFCURVE",
"818 49 OFFCURVE",
"687 -121 CURVE SMOOTH",
"667 -147 OFFCURVE",
"657 -165 OFFCURVE",
"657 -180 CURVE SMOOTH",
"657 -203 OFFCURVE",
"681 -216 OFFCURVE",
"727 -230 CURVE SMOOTH"
);
}
);
width = 934;
},
{
layerId = "10EE7422-BC27-45A8-8DF8-0D41623AEA15";
paths = (
{
closed = 1;
nodes = (
"732 -229 OFFCURVE",
"736 -224 OFFCURVE",
"736 -220 CURVE SMOOTH",
"736 -217 OFFCURVE",
"734 -214 OFFCURVE",
"730 -213 CURVE SMOOTH",
"724 -211 OFFCURVE",
"719 -206 OFFCURVE",
"719 -196 CURVE SMOOTH",
"719 -165 OFFCURVE",
"822 -25 OFFCURVE",
"850 20 CURVE SMOOTH",
"904 105 OFFCURVE",
"926 165 OFFCURVE",
"926 207 CURVE SMOOTH",
"926 275 OFFCURVE",
"867 295 OFFCURVE",
"791 295 CURVE SMOOTH",
"772 295 OFFCURVE",
"752 294 OFFCURVE",
"731 292 CURVE",
"811 361 OFFCURVE",
"902 431 OFFCURVE",
"1002 495 CURVE SMOOTH",
"1107 563 OFFCURVE",
"1282 663 OFFCURVE",
"1381 663 CURVE SMOOTH",
"1410 663 OFFCURVE",
"1433 654 OFFCURVE",
"1445 633 CURVE SMOOTH",
"1449 626 OFFCURVE",
"1456 632 OFFCURVE",
"1456 638 CURVE SMOOTH",
"1456 640 OFFCURVE",
"1456 641 OFFCURVE",
"1455 643 CURVE SMOOTH",
"1442 666 OFFCURVE",
"1404 688 OFFCURVE",
"1361 688 CURVE SMOOTH",
"1155 688 OFFCURVE",
"892 491 OFFCURVE",
"688 287 CURVE",
"673 285 OFFCURVE",
"658 282 OFFCURVE",
"643 280 CURVE",
"715 357 OFFCURVE",
"787 429 OFFCURVE",
"820 476 CURVE SMOOTH",
"848 514 OFFCURVE",
"861 546 OFFCURVE",
"861 571 CURVE SMOOTH",
"861 602 OFFCURVE",
"842 623 OFFCURVE",
"808 636 CURVE SMOOTH",
"787 644 OFFCURVE",
"757 647 OFFCURVE",
"722 647 CURVE SMOOTH",
"489 647 OFFCURVE",
"5 496 OFFCURVE",
"5 417 CURVE SMOOTH",
"5 388 OFFCURVE",
"65 356 OFFCURVE",
"81 353 CURVE SMOOTH",
"95 351 OFFCURVE",
"101 353 OFFCURVE",
"101 357 CURVE SMOOTH",
"101 359 OFFCURVE",
"99 361 OFFCURVE",
"96 363 CURVE",
"78 363 OFFCURVE",
"70 370 OFFCURVE",
"70 380 CURVE SMOOTH",
"70 388 OFFCURVE",
"77 398 OFFCURVE",
"87 407 CURVE SMOOTH",
"212 515 OFFCURVE",
"611 626 OFFCURVE",
"729 626 CURVE SMOOTH",
"772 626 OFFCURVE",
"788 616 OFFCURVE",
"788 600 CURVE SMOOTH",
"788 583 OFFCURVE",
"772 559 OFFCURVE",
"754 531 CURVE SMOOTH",
"691 434 OFFCURVE",
"570 292 OFFCURVE",
"519 220 CURVE SMOOTH",
"456 130 OFFCURVE",
"381 16 OFFCURVE",
"381 -10 CURVE SMOOTH",
"381 -41 OFFCURVE",
"403 -54 OFFCURVE",
"421 -54 CURVE SMOOTH",
"431 -54 OFFCURVE",
"439 -51 OFFCURVE",
"443 -45 CURVE",
"457 -14 OFFCURVE",
"478 18 OFFCURVE",
"478 32 CURVE SMOOTH",
"478 36 OFFCURVE",
"476 39 OFFCURVE",
"470 39 CURVE SMOOTH",
"464 39 OFFCURVE",
"463 40 OFFCURVE",
"460 40 CURVE",
"472 63 OFFCURVE",
"489 92 OFFCURVE",
"494 99 CURVE SMOOTH",
"526 149 OFFCURVE",
"575 206 OFFCURVE",
"626 262 CURVE",
"639 264 OFFCURVE",
"654 266 OFFCURVE",
"670 269 CURVE",
"599 197 OFFCURVE",
"537 125 OFFCURVE",
"487 61 CURVE SMOOTH",
"483 56 OFFCURVE",
"487 52 OFFCURVE",
"491 52 CURVE SMOOTH",
"494 52 OFFCURVE",
"497 53 OFFCURVE",
"499 56 CURVE SMOOTH",
"551 120 OFFCURVE",
"623 196 OFFCURVE",
"710 274 CURVE",
"728 276 OFFCURVE",
"745 277 OFFCURVE",
"762 277 CURVE SMOOTH",
"795 277 OFFCURVE",
"824 273 OFFCURVE",
"843 260 CURVE SMOOTH",
"854 253 OFFCURVE",
"861 239 OFFCURVE",
"861 217 CURVE SMOOTH",
"861 162 OFFCURVE",
"816 57 OFFCURVE",
"683 -114 CURVE SMOOTH",
"662 -141 OFFCURVE",
"653 -160 OFFCURVE",
"653 -175 CURVE SMOOTH",
"653 -200 OFFCURVE",
"678 -213 OFFCURVE",
"726 -227 CURVE SMOOTH"
);
}
);
width = 934;
}
);
note = K;
unicode = 004B;
},
{
glyphname = L;
lastChange = "2021-10-20 21:03:02 +0000";
layers = (
{
layerId = "E1C4CDDB-EFDF-468A-8ACC-65E2DFDE53DF";
paths = (
{
closed = 1;
nodes = (
"154 28 OFFCURVE",
"161 29 OFFCURVE",
"161 31 CURVE SMOOTH",
"161 32 OFFCURVE",
"159 33 OFFCURVE",
"154 35 CURVE SMOOTH",
"133 43 OFFCURVE",
"127 64 OFFCURVE",
"127 87 CURVE SMOOTH",
"127 120 OFFCURVE",
"140 159 OFFCURVE",
"148 178 CURVE SMOOTH",
"178 247 OFFCURVE",
"224 328 OFFCURVE",
"273 386 CURVE SMOOTH",
"295 413 OFFCURVE",
"415 570 OFFCURVE",
"469 570 CURVE SMOOTH",
"474 570 OFFCURVE",
"478 569 OFFCURVE",
"482 566 CURVE SMOOTH",
"486 563 OFFCURVE",
"488 558 OFFCURVE",
"488 551 CURVE SMOOTH",
"488 490 OFFCURVE",
"298 309 OFFCURVE",
"263 274 CURVE SMOOTH",
"220 228 OFFCURVE",
"173 181 OFFCURVE",
"153 153 CURVE SMOOTH",
"151 150 OFFCURVE",
"150 146 OFFCURVE",
"150 143 CURVE SMOOTH",
"150 141 OFFCURVE",
"151 139 OFFCURVE",
"152 139 CURVE SMOOTH",
"154 139 OFFCURVE",
"155 141 OFFCURVE",
"158 144 CURVE",
"179 173 OFFCURVE",
"230 228 OFFCURVE",
"286 277 CURVE SMOOTH",
"344 328 OFFCURVE",
"511 465 OFFCURVE",
"511 552 CURVE SMOOTH",
"511 555 OFFCURVE",
"511 559 OFFCURVE",
"510 562 CURVE",
"484 578 OFFCURVE",
"476 628 OFFCURVE",
"442 628 CURVE SMOOTH",
"395 628 OFFCURVE",
"284 496 OFFCURVE",
"203 352 CURVE SMOOTH",
"149 256 OFFCURVE",
"112 159 OFFCURVE",
"112 97 CURVE SMOOTH",
"112 62 OFFCURVE",
"124 37 OFFCURVE",
"150 29 CURVE SMOOTH"
);
},
{
closed = 1;
nodes = (
"580 -121 OFFCURVE",
"596 -109 OFFCURVE",
"600 -107 CURVE SMOOTH",
"612 -100 OFFCURVE",
"617 -89 OFFCURVE",
"617 -79 CURVE SMOOTH",
"617 -71 OFFCURVE",
"614 -64 OFFCURVE",
"608 -57 CURVE",
"609 -49 OFFCURVE",
"610 -42 OFFCURVE",
"610 -36 CURVE SMOOTH",
"610 20 OFFCURVE",
"565 34 OFFCURVE",
"507 34 CURVE SMOOTH",
"433 34 OFFCURVE",
"273 -15 OFFCURVE",
"161 -15 CURVE SMOOTH",
"117 -15 OFFCURVE",
"80 -7 OFFCURVE",
"59 16 CURVE SMOOTH",
"54 22 OFFCURVE",
"51 29 OFFCURVE",
"51 37 CURVE SMOOTH",
"51 45 OFFCURVE",
"55 54 OFFCURVE",
"63 60 CURVE SMOOTH",
"68 64 OFFCURVE",
"65 68 OFFCURVE",
"62 68 CURVE SMOOTH",
"60 68 LINE",
"45 58 OFFCURVE",
"39 43 OFFCURVE",
"39 27 CURVE SMOOTH",
"39 14 OFFCURVE",
"43 0 OFFCURVE",
"51 -11 CURVE SMOOTH",
"70 -36 OFFCURVE",
"105 -44 OFFCURVE",
"147 -44 CURVE SMOOTH",
"193 -44 OFFCURVE",
"240 -34 OFFCURVE",
"286 -26 CURVE SMOOTH",
"309 -21 OFFCURVE",
"390 -8 OFFCURVE",
"464 -8 CURVE SMOOTH",
"536 -8 OFFCURVE",
"601 -21 OFFCURVE",
"601 -65 CURVE SMOOTH",
"601 -88 OFFCURVE",
"587 -107 OFFCURVE",
"572 -119 CURVE SMOOTH",
"566 -124 OFFCURVE",
"574 -124 OFFCURVE",
"576 -123 CURVE SMOOTH"
);
}
);
width = 600;
},
{
layerId = "10EE7422-BC27-45A8-8DF8-0D41623AEA15";
paths = (
{
closed = 1;
nodes = (
"163 31 OFFCURVE",
"165 32 OFFCURVE",
"165 34 CURVE SMOOTH",
"165 37 OFFCURVE",
"162 41 OFFCURVE",
"156 43 CURVE SMOOTH",
"137 50 OFFCURVE",
"131 68 OFFCURVE",
"131 89 CURVE SMOOTH",
"131 121 OFFCURVE",
"145 159 OFFCURVE",
"152 176 CURVE SMOOTH",
"212 311 OFFCURVE",
"341 432 OFFCURVE",
"416 513 CURVE SMOOTH",
"442 540 OFFCURVE",
"463 551 OFFCURVE",
"476 551 CURVE SMOOTH",
"485 551 OFFCURVE",
"490 546 OFFCURVE",
"490 536 CURVE SMOOTH",
"490 524 OFFCURVE",
"482 507 OFFCURVE",
"466 486 CURVE SMOOTH",
"450 465 OFFCURVE",
"412 433 OFFCURVE",
"389 409 CURVE SMOOTH",
"362 379 OFFCURVE",
"153 178 OFFCURVE",
"143 136 CURVE SMOOTH",
"141 130 OFFCURVE",
"143 126 OFFCURVE",
"145 126 CURVE SMOOTH",
"147 126 OFFCURVE",
"150 128 OFFCURVE",
"152 133 CURVE SMOOTH",
"170 177 OFFCURVE",
"397 352 OFFCURVE",
"460 420 CURVE SMOOTH",
"515 479 OFFCURVE",
"524 502 OFFCURVE",
"524 519 CURVE SMOOTH",
"524 529 OFFCURVE",
"521 537 OFFCURVE",
"522 549 CURVE",
"498 560 OFFCURVE",
"479 628 OFFCURVE",
"443 628 CURVE SMOOTH",
"358 628 OFFCURVE",
"107 262 OFFCURVE",
"107 102 CURVE SMOOTH",
"107 66 OFFCURVE",
"120 41 OFFCURVE",
"149 32 CURVE SMOOTH",
"153 31 OFFCURVE",
"156 31 OFFCURVE",
"158 31 CURVE SMOOTH"
);
},
{
closed = 1;
nodes = (
"566 -127 OFFCURVE",
"573 -118 OFFCURVE",
"580 -115 CURVE SMOOTH",
"598 -109 OFFCURVE",
"615 -107 OFFCURVE",
"620 -86 CURVE SMOOTH",
"623 -71 OFFCURVE",
"621 -87 OFFCURVE",
"608 -53 CURVE",
"609 -45 OFFCURVE",
"610 -37 OFFCURVE",
"610 -30 CURVE SMOOTH",
"610 29 OFFCURVE",
"563 47 OFFCURVE",
"503 47 CURVE SMOOTH",
"430 47 OFFCURVE",
"339 20 OFFCURVE",
"298 14 CURVE SMOOTH",
"266 9 OFFCURVE",
"210 -2 OFFCURVE",
"159 -2 CURVE SMOOTH",
"118 -2 OFFCURVE",
"81 5 OFFCURVE",
"61 27 CURVE SMOOTH",
"57 32 OFFCURVE",
"55 36 OFFCURVE",
"55 41 CURVE SMOOTH",
"55 47 OFFCURVE",
"58 53 OFFCURVE",
"66 59 CURVE SMOOTH",
"70 62 OFFCURVE",
"71 65 OFFCURVE",
"71 68 CURVE SMOOTH",
"71 72 OFFCURVE",
"67 76 OFFCURVE",
"63 76 CURVE SMOOTH",
"61 76 OFFCURVE",
"59 75 OFFCURVE",
"58 74 CURVE SMOOTH",
"44 65 OFFCURVE",
"36 53 OFFCURVE",
"35 43 CURVE SMOOTH",
"30 -28 OFFCURVE",
"84 -46 OFFCURVE",
"145 -46 CURVE SMOOTH",
"196 -46 OFFCURVE",
"253 -33 OFFCURVE",
"286 -27 CURVE SMOOTH",
"310 -23 OFFCURVE",
"395 -8 OFFCURVE",
"471 -8 CURVE SMOOTH",
"537 -8 OFFCURVE",
"596 -20 OFFCURVE",
"596 -61 CURVE SMOOTH",
"596 -86 OFFCURVE",
"576 -108 OFFCURVE",
"558 -118 CURVE SMOOTH",
"554 -120 OFFCURVE",
"553 -123 OFFCURVE",
"553 -125 CURVE SMOOTH",
"553 -127 OFFCURVE",
"555 -129 OFFCURVE",
"556 -128 CURVE"
);
}
);
width = 600;
}
);
note = L;
unicode = 004C;
},
{
glyphname = M;
lastChange = "2021-10-20 21:03:02 +0000";
layers = (
{
layerId = "E1C4CDDB-EFDF-468A-8ACC-65E2DFDE53DF";
paths = (
{
closed = 1;
nodes = (
"444 -59 OFFCURVE",
"450 -57 OFFCURVE",
"453 -54 CURVE",
"511 37 OFFCURVE",
"836 423 OFFCURVE",
"948 426 CURVE SMOOTH",
"961 426 OFFCURVE",
"972 415 OFFCURVE",
"972 395 CURVE SMOOTH",
"972 386 OFFCURVE",
"970 376 OFFCURVE",
"965 364 CURVE SMOOTH",
"946 317 OFFCURVE",
"923 276 OFFCURVE",
"901 235 CURVE SMOOTH",
"880 193 OFFCURVE",
"859 141 OFFCURVE",
"845 91 CURVE SMOOTH",
"840 74 OFFCURVE",
"836 58 OFFCURVE",
"836 45 CURVE SMOOTH",
"836 29 OFFCURVE",
"843 18 OFFCURVE",
"860 18 CURVE SMOOTH",
"869 18 OFFCURVE",
"875 21 OFFCURVE",
"875 24 CURVE SMOOTH",
"875 25 OFFCURVE",
"874 27 OFFCURVE",
"870 28 CURVE SMOOTH",
"867 29 OFFCURVE",
"868 34 OFFCURVE",
"868 37 CURVE",
"889 171 OFFCURVE",
"1046 344 OFFCURVE",
"1046 406 CURVE SMOOTH",
"1046 420 OFFCURVE",
"1023 454 OFFCURVE",
"1000 454 CURVE SMOOTH",
"969 454 OFFCURVE",
"917 435 OFFCURVE",
"870 405 CURVE SMOOTH",
"743 322 OFFCURVE",
"587 160 OFFCURVE",
"533 100 CURVE",
"528 93 OFFCURVE",
"521 95 OFFCURVE",
"521 103 CURVE SMOOTH",
"521 104 LINE SMOOTH",
"521 108 OFFCURVE",
"523 114 OFFCURVE",
"525 118 CURVE SMOOTH",
"587 216 OFFCURVE",
"855 493 OFFCURVE",
"855 569 CURVE SMOOTH",
"855 626 OFFCURVE",
"794 649 OFFCURVE",
"705 649 CURVE SMOOTH",
"612 649 OFFCURVE",
"489 625 OFFCURVE",
"370 590 CURVE SMOOTH",
"186 537 OFFCURVE",
"10 459 OFFCURVE",
"10 419 CURVE SMOOTH",
"10 394 OFFCURVE",
"32 369 OFFCURVE",
"90 349 CURVE SMOOTH",
"98 347 OFFCURVE",
"106 351 OFFCURVE",
"106 354 CURVE SMOOTH",
"106 357 OFFCURVE",
"103 359 OFFCURVE",
"93 359 CURVE SMOOTH",
"72 359 OFFCURVE",
"65 369 OFFCURVE",
"65 379 CURVE SMOOTH",
"65 390 OFFCURVE",
"73 404 OFFCURVE",
"83 413 CURVE SMOOTH",
"141 463 OFFCURVE",
"257 516 OFFCURVE",
"376 557 CURVE SMOOTH",
"517 605 OFFCURVE",
"664 636 OFFCURVE",
"729 636 CURVE SMOOTH",
"782 636 OFFCURVE",
"803 621 OFFCURVE",
"803 596 CURVE SMOOTH",
"803 578 OFFCURVE",
"791 554 OFFCURVE",
"774 527 CURVE SMOOTH",
"711 429 OFFCURVE",
"573 266 OFFCURVE",
"523 193 CURVE SMOOTH",
"459 101 OFFCURVE",
"386 10 OFFCURVE",
"386 -15 CURVE SMOOTH",
"386 -47 OFFCURVE",
"416 -59 OFFCURVE",
"436 -59 CURVE SMOOTH"
);
},
{
closed = 1;
nodes = (
"1082 -47 OFFCURVE",
"1094 -33 OFFCURVE",
"1106 -12 CURVE SMOOTH",
"1114 1 OFFCURVE",
"1121 15 OFFCURVE",
"1128 29 CURVE SMOOTH",
"1131 35 OFFCURVE",
"1126 38 OFFCURVE",
"1122 31 CURVE SMOOTH",
"1112 15 OFFCURVE",
"1094 -6 OFFCURVE",
"1086 -11 CURVE SMOOTH",
"1071 -20 OFFCURVE",
"1060 -24 OFFCURVE",
"1051 -24 CURVE SMOOTH",
"1037 -24 OFFCURVE",
"1030 -13 OFFCURVE",
"1030 4 CURVE SMOOTH",
"1030 24 OFFCURVE",
"1039 52 OFFCURVE",
"1054 78 CURVE SMOOTH",
"1083 128 OFFCURVE",
"1161 261 OFFCURVE",
"1189 326 CURVE SMOOTH",
"1195 339 OFFCURVE",
"1197 348 OFFCURVE",
"1197 356 CURVE SMOOTH",
"1197 369 OFFCURVE",
"1189 375 OFFCURVE",
"1181 376 CURVE SMOOTH",
"1170 378 OFFCURVE",
"1155 378 OFFCURVE",
"1147 384 CURVE",
"1084 323 OFFCURVE",
"1026 262 OFFCURVE",
"973 188 CURVE SMOOTH",
"964 176 OFFCURVE",
"894 73 OFFCURVE",
"885 55 CURVE SMOOTH",
"884 52 OFFCURVE",
"883 49 OFFCURVE",
"883 47 CURVE SMOOTH",
"883 46 OFFCURVE",
"883 45 OFFCURVE",
"884 45 CURVE SMOOTH",
"886 45 OFFCURVE",
"888 47 OFFCURVE",
"891 52 CURVE SMOOTH",
"922 105 OFFCURVE",
"995 199 OFFCURVE",
"1040 245 CURVE SMOOTH",
"1062 268 OFFCURVE",
"1094 298 OFFCURVE",
"1104 301 CURVE SMOOTH",
"1112 304 OFFCURVE",
"1117 299 OFFCURVE",
"1117 292 CURVE SMOOTH",
"1117 290 LINE",
"1115 283 OFFCURVE",
"1111 272 OFFCURVE",
"1103 258 CURVE SMOOTH",
"1088 231 OFFCURVE",
"1028 125 OFFCURVE",
"1011 55 CURVE SMOOTH",
"1008 40 OFFCURVE",
"1006 27 OFFCURVE",
"1006 15 CURVE SMOOTH",
"1006 -2 OFFCURVE",
"1010 -16 OFFCURVE",
"1020 -23 CURVE SMOOTH",
"1043 -41 OFFCURVE",
"1061 -47 OFFCURVE",
"1069 -47 CURVE SMOOTH"
);
}
);
width = 1128;
},
{
layerId = "10EE7422-BC27-45A8-8DF8-0D41623AEA15";
paths = (
{
closed = 1;
nodes = (
"445 -59 OFFCURVE",
"453 -57 OFFCURVE",
"457 -51 CURVE SMOOTH",
"527 56 OFFCURVE",
"627 163 OFFCURVE",
"713 249 CURVE SMOOTH",
"760 295 OFFCURVE",
"821 340 OFFCURVE",
"864 374 CURVE SMOOTH",
"902 403 OFFCURVE",
"932 419 OFFCURVE",
"948 419 CURVE SMOOTH",
"957 419 OFFCURVE",
"962 414 OFFCURVE",
"962 404 CURVE SMOOTH",
"962 396 OFFCURVE",
"959 385 OFFCURVE",
"953 370 CURVE SMOOTH",
"915 278 OFFCURVE",
"859 211 OFFCURVE",
"837 110 CURVE SMOOTH",
"833 94 OFFCURVE",
"831 78 OFFCURVE",
"831 64 CURVE SMOOTH",
"831 34 OFFCURVE",
"841 14 OFFCURVE",
"870 17 CURVE",
"877 153 OFFCURVE",
"1051 338 OFFCURVE",
"1051 405 CURVE SMOOTH",
"1051 420 OFFCURVE",
"1026 456 OFFCURVE",
"1000 456 CURVE SMOOTH",
"967 456 OFFCURVE",
"914 437 OFFCURVE",
"868 407 CURVE SMOOTH",
"740 326 OFFCURVE",
"583 165 OFFCURVE",
"530 106 CURVE SMOOTH",
"523 98 OFFCURVE",
"525 111 OFFCURVE",
"530 118 CURVE SMOOTH",
"610 243 OFFCURVE",
"760 391 OFFCURVE",
"820 476 CURVE SMOOTH",
"851 519 OFFCURVE",
"860 529 OFFCURVE",
"860 565 CURVE SMOOTH",
"860 628 OFFCURVE",
"790 647 OFFCURVE",
"706 647 CURVE SMOOTH",
"602 647 OFFCURVE",
"478 618 OFFCURVE",
"438 609 CURVE SMOOTH",
"359 591 OFFCURVE",
"281 562 OFFCURVE",
"207 536 CURVE SMOOTH",
"171 524 OFFCURVE",
"5 453 OFFCURVE",
"5 417 CURVE SMOOTH",
"5 388 OFFCURVE",
"65 356 OFFCURVE",
"81 353 CURVE SMOOTH",
"95 351 OFFCURVE",
"101 353 OFFCURVE",
"101 357 CURVE SMOOTH",
"101 359 OFFCURVE",
"99 361 OFFCURVE",
"96 363 CURVE",
"78 363 OFFCURVE",
"70 370 OFFCURVE",
"70 380 CURVE SMOOTH",
"70 388 OFFCURVE",
"77 398 OFFCURVE",
"87 407 CURVE SMOOTH",
"212 515 OFFCURVE",
"611 626 OFFCURVE",
"729 626 CURVE SMOOTH",
"772 626 OFFCURVE",
"788 616 OFFCURVE",
"788 600 CURVE SMOOTH",
"788 583 OFFCURVE",
"772 559 OFFCURVE",
"754 531 CURVE SMOOTH",
"691 434 OFFCURVE",
"570 292 OFFCURVE",
"519 220 CURVE SMOOTH",
"456 130 OFFCURVE",
"381 16 OFFCURVE",
"381 -10 CURVE SMOOTH",
"381 -43 OFFCURVE",
"413 -59 OFFCURVE",
"436 -59 CURVE SMOOTH"
);
},
{
closed = 1;
nodes = (
"1111 -56 OFFCURVE",
"1133 13 OFFCURVE",
"1150 34 CURVE",
"1155 43 OFFCURVE",
"1149 40 OFFCURVE",
"1143 35 CURVE SMOOTH",
"1130 25 OFFCURVE",
"1106 -1 OFFCURVE",
"1093 -11 CURVE SMOOTH",
"1085 -16 OFFCURVE",
"1078 -18 OFFCURVE",
"1072 -18 CURVE SMOOTH",
"1056 -18 OFFCURVE",
"1050 -2 OFFCURVE",
"1050 17 CURVE SMOOTH",
"1050 24 OFFCURVE",
"1051 30 OFFCURVE",
"1052 37 CURVE SMOOTH",
"1067 106 OFFCURVE",
"1222 303 OFFCURVE",
"1222 359 CURVE SMOOTH",
"1222 365 OFFCURVE",
"1221 369 OFFCURVE",
"1217 372 CURVE SMOOTH",
"1199 385 OFFCURVE",
"1161 380 OFFCURVE",
"1146 389 CURVE",
"1082 327 OFFCURVE",
"1023 267 OFFCURVE",
"969 192 CURVE SMOOTH",
"960 180 OFFCURVE",
"906 101 OFFCURVE",
"898 83 CURVE SMOOTH",
"895 76 OFFCURVE",
"893 71 OFFCURVE",
"893 68 CURVE SMOOTH",
"893 65 OFFCURVE",
"895 63 OFFCURVE",
"897 63 CURVE SMOOTH",
"900 63 OFFCURVE",
"904 67 OFFCURVE",
"908 73 CURVE SMOOTH",
"960 162 OFFCURVE",
"1100 310 OFFCURVE",
"1100 280 CURVE SMOOTH",
"1100 275 OFFCURVE",
"1095 265 OFFCURVE",
"1086 248 CURVE SMOOTH",
"1068 215 OFFCURVE",
"1002 86 OFFCURVE",
"1002 16 CURVE SMOOTH",
"1002 -2 OFFCURVE",
"1007 -16 OFFCURVE",
"1017 -23 CURVE SMOOTH",
"1040 -40 OFFCURVE",
"1069 -56 OFFCURVE",
"1079 -56 CURVE SMOOTH"
);
}
);
width = 1128;
}
);
note = M;
unicode = 004D;
},
{
glyphname = N;
lastChange = "2021-10-20 21:03:02 +0000";
layers = (
{
layerId = "E1C4CDDB-EFDF-468A-8ACC-65E2DFDE53DF";
paths = (
{
closed = 1;
nodes = (
"444 -59 OFFCURVE",
"450 -57 OFFCURVE",
"453 -54 CURVE",
"511 37 OFFCURVE",
"836 423 OFFCURVE",
"948 426 CURVE SMOOTH",
"962 426 OFFCURVE",
"979 420 OFFCURVE",
"979 400 CURVE SMOOTH",
"979 394 OFFCURVE",
"977 386 OFFCURVE",
"973 377 CURVE SMOOTH",
"954 330 OFFCURVE",
"923 276 OFFCURVE",
"901 235 CURVE SMOOTH",
"888 208 OFFCURVE",
"831 107 OFFCURVE",
"831 49 CURVE SMOOTH",
"831 33 OFFCURVE",
"835 20 OFFCURVE",
"845 13 CURVE SMOOTH",
"868 -4 OFFCURVE",
"886 -11 OFFCURVE",
"894 -11 CURVE SMOOTH",
"907 -11 OFFCURVE",
"920 3 OFFCURVE",
"932 24 CURVE SMOOTH",
"939 38 OFFCURVE",
"946 52 OFFCURVE",
"954 65 CURVE SMOOTH",
"957 71 OFFCURVE",
"951 74 OFFCURVE",
"947 68 CURVE SMOOTH",
"933 44 OFFCURVE",
"912 21 OFFCURVE",
"888 13 CURVE",
"884 11 OFFCURVE",
"880 11 OFFCURVE",
"878 11 CURVE SMOOTH",
"868 11 OFFCURVE",
"864 19 OFFCURVE",
"864 30 CURVE SMOOTH",
"864 35 OFFCURVE",
"865 41 OFFCURVE",
"866 46 CURVE SMOOTH",
"894 178 OFFCURVE",
"1038 348 OFFCURVE",
"1038 408 CURVE SMOOTH",
"1038 421 OFFCURVE",
"1023 454 OFFCURVE",
"1000 454 CURVE SMOOTH",
"969 454 OFFCURVE",
"917 435 OFFCURVE",
"870 405 CURVE SMOOTH",
"743 322 OFFCURVE",
"587 160 OFFCURVE",
"533 100 CURVE",
"528 93 OFFCURVE",
"521 95 OFFCURVE",
"521 103 CURVE SMOOTH",
"521 104 LINE SMOOTH",
"521 108 OFFCURVE",
"523 114 OFFCURVE",
"525 118 CURVE SMOOTH",
"587 216 OFFCURVE",
"855 493 OFFCURVE",
"855 569 CURVE SMOOTH",
"855 626 OFFCURVE",
"794 649 OFFCURVE",
"705 649 CURVE SMOOTH",
"612 649 OFFCURVE",
"489 625 OFFCURVE",
"370 590 CURVE SMOOTH",
"186 537 OFFCURVE",
"10 459 OFFCURVE",
"10 419 CURVE SMOOTH",
"10 394 OFFCURVE",
"32 369 OFFCURVE",
"90 349 CURVE SMOOTH",
"98 347 OFFCURVE",
"106 351 OFFCURVE",
"106 354 CURVE SMOOTH",
"106 357 OFFCURVE",
"103 359 OFFCURVE",
"93 359 CURVE SMOOTH",
"72 359 OFFCURVE",
"65 369 OFFCURVE",
"65 379 CURVE SMOOTH",
"65 390 OFFCURVE",
"73 404 OFFCURVE",
"83 413 CURVE SMOOTH",
"141 463 OFFCURVE",
"257 516 OFFCURVE",
"376 557 CURVE SMOOTH",
"517 605 OFFCURVE",
"664 636 OFFCURVE",
"729 636 CURVE SMOOTH",
"782 636 OFFCURVE",
"803 621 OFFCURVE",
"803 596 CURVE SMOOTH",
"803 578 OFFCURVE",
"791 554 OFFCURVE",
"774 527 CURVE SMOOTH",
"711 429 OFFCURVE",
"573 266 OFFCURVE",
"523 193 CURVE SMOOTH",
"459 101 OFFCURVE",
"386 10 OFFCURVE",
"386 -15 CURVE SMOOTH",
"386 -47 OFFCURVE",
"416 -59 OFFCURVE",
"436 -59 CURVE SMOOTH"
);
}
);
width = 969;
},
{
layerId = "10EE7422-BC27-45A8-8DF8-0D41623AEA15";
paths = (
{
closed = 1;
nodes = (
"445 -59 OFFCURVE",
"453 -57 OFFCURVE",
"457 -51 CURVE SMOOTH",
"527 56 OFFCURVE",
"627 163 OFFCURVE",
"713 249 CURVE SMOOTH",
"760 295 OFFCURVE",
"821 340 OFFCURVE",
"864 374 CURVE SMOOTH",
"907 406 OFFCURVE",
"938 425 OFFCURVE",
"952 425 CURVE SMOOTH",
"958 425 OFFCURVE",
"961 422 OFFCURVE",
"961 415 CURVE SMOOTH",
"961 403 OFFCURVE",
"951 380 OFFCURVE",
"931 343 CURVE SMOOTH",
"882 254 OFFCURVE",
"821 163 OFFCURVE",
"808 80 CURVE SMOOTH",
"806 70 OFFCURVE",
"805 61 OFFCURVE",
"805 53 CURVE SMOOTH",
"805 42 OFFCURVE",
"808 32 OFFCURVE",
"821 23 CURVE SMOOTH",
"844 6 OFFCURVE",
"873 -10 OFFCURVE",
"883 -10 CURVE SMOOTH",
"915 -10 OFFCURVE",
"937 59 OFFCURVE",
"954 80 CURVE",
"959 89 OFFCURVE",
"953 86 OFFCURVE",
"947 81 CURVE SMOOTH",
"934 71 OFFCURVE",
"910 45 OFFCURVE",
"897 35 CURVE SMOOTH",
"885 26 OFFCURVE",
"877 22 OFFCURVE",
"873 22 CURVE SMOOTH",
"870 22 OFFCURVE",
"868 24 OFFCURVE",
"868 29 CURVE SMOOTH",
"868 35 OFFCURVE",
"870 43 OFFCURVE",
"873 54 CURVE SMOOTH",
"901 145 OFFCURVE",
"1041 365 OFFCURVE",
"1041 405 CURVE SMOOTH",
"1041 420 OFFCURVE",
"1016 456 OFFCURVE",
"990 456 CURVE SMOOTH",
"957 456 OFFCURVE",
"914 437 OFFCURVE",
"868 407 CURVE SMOOTH",
"740 326 OFFCURVE",
"583 165 OFFCURVE",
"530 106 CURVE SMOOTH",
"523 98 OFFCURVE",
"525 111 OFFCURVE",
"530 118 CURVE SMOOTH",
"610 243 OFFCURVE",
"760 391 OFFCURVE",
"820 476 CURVE SMOOTH",
"851 519 OFFCURVE",
"860 529 OFFCURVE",
"860 565 CURVE SMOOTH",
"860 624 OFFCURVE",
"797 647 OFFCURVE",
"706 647 CURVE SMOOTH",
"459 647 OFFCURVE",
"5 482 OFFCURVE",
"5 417 CURVE SMOOTH",
"5 388 OFFCURVE",
"65 356 OFFCURVE",
"81 353 CURVE SMOOTH",
"95 351 OFFCURVE",
"101 353 OFFCURVE",
"101 357 CURVE SMOOTH",
"101 359 OFFCURVE",
"99 361 OFFCURVE",
"96 363 CURVE",
"78 363 OFFCURVE",
"70 370 OFFCURVE",
"70 380 CURVE SMOOTH",
"70 388 OFFCURVE",
"77 398 OFFCURVE",
"87 407 CURVE SMOOTH",
"212 515 OFFCURVE",
"611 626 OFFCURVE",
"729 626 CURVE SMOOTH",
"772 626 OFFCURVE",
"788 616 OFFCURVE",
"788 600 CURVE SMOOTH",
"788 583 OFFCURVE",
"772 559 OFFCURVE",
"754 531 CURVE SMOOTH",
"691 434 OFFCURVE",
"570 292 OFFCURVE",
"519 220 CURVE SMOOTH",
"456 130 OFFCURVE",
"381 16 OFFCURVE",
"381 -10 CURVE SMOOTH",
"381 -43 OFFCURVE",
"413 -59 OFFCURVE",
"436 -59 CURVE SMOOTH"
);
}
);
width = 969;
}
);
note = N;
unicode = 004E;
},
{
color = 4;
glyphname = Eng;
lastChange = "2021-10-20 21:03:02 +0000";
layers = (
{
layerId = "E1C4CDDB-EFDF-468A-8ACC-65E2DFDE53DF";
paths = (
{
closed = 1;
nodes = (
"611 -317 OFFCURVE",
"757 -107 OFFCURVE",
"836 24 CURVE SMOOTH",
"952 213 OFFCURVE",
"1038 348 OFFCURVE",
"1038 408 CURVE SMOOTH",
"1038 421 OFFCURVE",
"1023 454 OFFCURVE",
"1000 454 CURVE SMOOTH",
"969 454 OFFCURVE",
"917 435 OFFCURVE",
"870 405 CURVE SMOOTH",
"743 322 OFFCURVE",
"587 160 OFFCURVE",
"533 100 CURVE",
"528 93 OFFCURVE",
"521 95 OFFCURVE",
"521 103 CURVE SMOOTH",
"521 104 LINE SMOOTH",
"521 108 OFFCURVE",
"523 114 OFFCURVE",
"525 118 CURVE SMOOTH",
"587 216 OFFCURVE",
"855 493 OFFCURVE",
"855 569 CURVE SMOOTH",
"855 626 OFFCURVE",
"794 649 OFFCURVE",
"705 649 CURVE SMOOTH",
"612 649 OFFCURVE",
"489 625 OFFCURVE",
"370 590 CURVE SMOOTH",
"186 537 OFFCURVE",
"10 459 OFFCURVE",
"10 419 CURVE SMOOTH",
"10 394 OFFCURVE",
"32 369 OFFCURVE",
"90 349 CURVE SMOOTH",
"98 347 OFFCURVE",
"106 351 OFFCURVE",
"106 354 CURVE SMOOTH",
"106 357 OFFCURVE",
"103 359 OFFCURVE",
"93 359 CURVE SMOOTH",
"72 359 OFFCURVE",
"65 369 OFFCURVE",
"65 379 CURVE SMOOTH",
"65 390 OFFCURVE",
"73 404 OFFCURVE",
"83 413 CURVE SMOOTH",
"141 463 OFFCURVE",
"257 516 OFFCURVE",
"376 557 CURVE SMOOTH",
"517 605 OFFCURVE",
"664 636 OFFCURVE",
"729 636 CURVE SMOOTH",
"782 636 OFFCURVE",
"803 621 OFFCURVE",
"803 596 CURVE SMOOTH",
"803 578 OFFCURVE",
"791 554 OFFCURVE",
"774 527 CURVE SMOOTH",
"711 429 OFFCURVE",
"573 266 OFFCURVE",
"523 193 CURVE SMOOTH",
"459 101 OFFCURVE",
"386 10 OFFCURVE",
"386 -15 CURVE SMOOTH",
"386 -47 OFFCURVE",
"416 -59 OFFCURVE",
"436 -59 CURVE SMOOTH",
"444 -59 OFFCURVE",
"450 -57 OFFCURVE",
"453 -54 CURVE",
"511 37 OFFCURVE",
"836 423 OFFCURVE",
"948 426 CURVE SMOOTH",
"962 426 OFFCURVE",
"979 420 OFFCURVE",
"979 400 CURVE SMOOTH",
"979 394 OFFCURVE",
"977 386 OFFCURVE",
"973 377 CURVE SMOOTH",
"955 333 OFFCURVE",
"927 283 OFFCURVE",
"905 243 CURVE SMOOTH",
"904 241 OFFCURVE",
"903 238 OFFCURVE",
"901 235 CURVE SMOOTH",
"892 216 LINE SMOOTH",
"831 97 OFFCURVE",
"638 -228 OFFCURVE",
"558 -279 CURVE SMOOTH",
"542 -290 OFFCURVE",
"508 -305 OFFCURVE",
"482 -305 CURVE SMOOTH",
"461 -305 OFFCURVE",
"444 -296 OFFCURVE",
"444 -265 CURVE SMOOTH",
"444 -224 OFFCURVE",
"483 -178 OFFCURVE",
"506 -158 CURVE SMOOTH",
"551 -118 OFFCURVE",
"611 -84 OFFCURVE",
"668 -84 CURVE",
"676 -83 OFFCURVE",
"675 -77 OFFCURVE",
"667 -77 CURVE SMOOTH",
"609 -77 OFFCURVE",
"538 -105 OFFCURVE",
"491 -145 CURVE SMOOTH",
"462 -171 OFFCURVE",
"419 -217 OFFCURVE",
"419 -262 CURVE SMOOTH",
"419 -302 OFFCURVE",
"452 -317 OFFCURVE",
"482 -317 CURVE SMOOTH"
);
}
);
width = 1013;
},
{
background = {
paths = (
{
closed = 1;
nodes = (
"103 345 OFFCURVE",
"116 359 OFFCURVE",
"96 359 CURVE SMOOTH",
"52 358 OFFCURVE",
"62 394 OFFCURVE",
"83 413 CURVE SMOOTH",
"141 463 OFFCURVE",
"257 516 OFFCURVE",
"376 557 CURVE SMOOTH",
"517 605 OFFCURVE",
"664 636 OFFCURVE",
"729 636 CURVE SMOOTH",
"822 636 OFFCURVE",
"815 590 OFFCURVE",
"774 527 CURVE SMOOTH",
"711 429 OFFCURVE",
"573 266 OFFCURVE",
"523 193 CURVE SMOOTH",
"459 101 OFFCURVE",
"386 10 OFFCURVE",
"386 -15 CURVE SMOOTH",
"386 -59 OFFCURVE",
"444 -66 OFFCURVE",
"453 -54 CURVE",
"511 37 OFFCURVE",
"836 423 OFFCURVE",
"948 426 CURVE SMOOTH",
"966 426 OFFCURVE",
"990 416 OFFCURVE",
"973 377 CURVE SMOOTH",
"954 330 OFFCURVE",
"923 276 OFFCURVE",
"901 235 CURVE SMOOTH",
"813 58 OFFCURVE",
"819 -3 OFFCURVE",
"836 24 CURVE SMOOTH",
"952 213 OFFCURVE",
"1038 348 OFFCURVE",
"1038 408 CURVE SMOOTH",
"1038 421 OFFCURVE",
"1023 454 OFFCURVE",
"1000 454 CURVE SMOOTH",
"969 454 OFFCURVE",
"917 435 OFFCURVE",
"870 405 CURVE SMOOTH",
"743 322 OFFCURVE",
"587 160 OFFCURVE",
"533 100 CURVE",
"528 93 OFFCURVE",
"520 95 OFFCURVE",
"521 104 CURVE SMOOTH",
"521 108 OFFCURVE",
"523 114 OFFCURVE",
"525 118 CURVE SMOOTH",
"587 216 OFFCURVE",
"855 493 OFFCURVE",
"855 569 CURVE SMOOTH",
"855 686 OFFCURVE",
"603 658 OFFCURVE",
"370 590 CURVE SMOOTH",
"186 537 OFFCURVE",
"10 459 OFFCURVE",
"10 419 CURVE SMOOTH",
"10 394 OFFCURVE",
"32 369 OFFCURVE",
"90 349 CURVE SMOOTH"
);
},
{
closed = 1;
nodes = (
"904 137 OFFCURVE",
"930 295 OFFCURVE",
"901 235 CURVE SMOOTH",
"854 135 OFFCURVE",
"643 -225 OFFCURVE",
"558 -279 CURVE SMOOTH",
"529 -298 OFFCURVE",
"444 -334 OFFCURVE",
"444 -265 CURVE SMOOTH",
"444 -224 OFFCURVE",
"483 -178 OFFCURVE",
"506 -158 CURVE SMOOTH",
"551 -118 OFFCURVE",
"611 -84 OFFCURVE",
"668 -84 CURVE",
"676 -83 OFFCURVE",
"675 -77 OFFCURVE",
"667 -77 CURVE SMOOTH",
"609 -77 OFFCURVE",
"538 -105 OFFCURVE",
"491 -145 CURVE SMOOTH",
"462 -171 OFFCURVE",
"419 -217 OFFCURVE",
"419 -262 CURVE SMOOTH",
"419 -302 OFFCURVE",
"452 -317 OFFCURVE",
"482 -317 CURVE SMOOTH",
"611 -317 OFFCURVE",
"757 -107 OFFCURVE",
"836 24 CURVE SMOOTH"
);
}
);
};
layerId = "10EE7422-BC27-45A8-8DF8-0D41623AEA15";
paths = (
{
closed = 1;
nodes = (
"767 -60 OFFCURVE",
"778 -52 OFFCURVE",
"794 -33 CURVE SMOOTH",
"855 41 OFFCURVE",
"1041 365 OFFCURVE",
"1041 405 CURVE SMOOTH",
"1041 420 OFFCURVE",
"1016 456 OFFCURVE",
"990 456 CURVE SMOOTH",
"957 456 OFFCURVE",
"914 437 OFFCURVE",
"868 407 CURVE SMOOTH",
"740 326 OFFCURVE",
"583 165 OFFCURVE",
"530 106 CURVE SMOOTH",
"523 98 OFFCURVE",
"525 111 OFFCURVE",
"530 118 CURVE SMOOTH",
"610 243 OFFCURVE",
"760 391 OFFCURVE",
"820 476 CURVE SMOOTH",
"851 519 OFFCURVE",
"860 529 OFFCURVE",
"860 565 CURVE SMOOTH",
"860 624 OFFCURVE",
"797 647 OFFCURVE",
"706 647 CURVE SMOOTH",
"459 647 OFFCURVE",
"5 482 OFFCURVE",
"5 417 CURVE SMOOTH",
"5 388 OFFCURVE",
"65 356 OFFCURVE",
"81 353 CURVE SMOOTH",
"95 351 OFFCURVE",
"101 353 OFFCURVE",
"101 357 CURVE SMOOTH",
"101 359 OFFCURVE",
"99 361 OFFCURVE",
"96 363 CURVE",
"78 363 OFFCURVE",
"70 370 OFFCURVE",
"70 380 CURVE SMOOTH",
"70 388 OFFCURVE",
"77 398 OFFCURVE",
"87 407 CURVE SMOOTH",
"212 515 OFFCURVE",
"611 626 OFFCURVE",
"729 626 CURVE SMOOTH",
"772 626 OFFCURVE",
"788 616 OFFCURVE",
"788 600 CURVE SMOOTH",
"788 583 OFFCURVE",
"772 559 OFFCURVE",
"754 531 CURVE SMOOTH",
"691 434 OFFCURVE",
"570 292 OFFCURVE",
"519 220 CURVE SMOOTH",
"456 130 OFFCURVE",
"381 16 OFFCURVE",
"381 -10 CURVE SMOOTH",
"381 -43 OFFCURVE",
"413 -59 OFFCURVE",
"436 -59 CURVE SMOOTH",
"445 -59 OFFCURVE",
"453 -57 OFFCURVE",
"457 -51 CURVE SMOOTH",
"527 56 OFFCURVE",
"627 163 OFFCURVE",
"713 249 CURVE SMOOTH",
"760 295 OFFCURVE",
"821 340 OFFCURVE",
"864 374 CURVE SMOOTH",
"907 406 OFFCURVE",
"938 425 OFFCURVE",
"952 425 CURVE SMOOTH",
"958 425 OFFCURVE",
"961 422 OFFCURVE",
"961 415 CURVE SMOOTH",
"961 403 OFFCURVE",
"951 380 OFFCURVE",
"931 343 CURVE SMOOTH",
"882 254 OFFCURVE",
"823 124 OFFCURVE",
"778 41 CURVE SMOOTH",
"762 11 OFFCURVE",
"752 -23 OFFCURVE",
"752 -43 CURVE SMOOTH",
"752 -53 OFFCURVE",
"755 -60 OFFCURVE",
"761 -60 CURVE SMOOTH"
);
},
{
closed = 1;
nodes = (
"627 -317 OFFCURVE",
"762 -95 OFFCURVE",
"846 44 CURVE SMOOTH",
"884 107 OFFCURVE",
"898 173 OFFCURVE",
"898 210 CURVE SMOOTH",
"898 228 OFFCURVE",
"895 239 OFFCURVE",
"889 239 CURVE SMOOTH",
"886 239 OFFCURVE",
"881 235 OFFCURVE",
"876 224 CURVE SMOOTH",
"829 124 OFFCURVE",
"643 -225 OFFCURVE",
"558 -279 CURVE SMOOTH",
"542 -290 OFFCURVE",
"508 -305 OFFCURVE",
"482 -305 CURVE SMOOTH",
"461 -305 OFFCURVE",
"444 -296 OFFCURVE",
"444 -265 CURVE SMOOTH",
"444 -224 OFFCURVE",
"483 -178 OFFCURVE",
"506 -158 CURVE SMOOTH",
"551 -118 OFFCURVE",
"611 -84 OFFCURVE",
"668 -84 CURVE",
"676 -83 OFFCURVE",
"675 -77 OFFCURVE",
"667 -77 CURVE SMOOTH",
"609 -77 OFFCURVE",
"519 -105 OFFCURVE",
"472 -145 CURVE SMOOTH",
"443 -171 OFFCURVE",
"408 -217 OFFCURVE",
"408 -262 CURVE SMOOTH",
"408 -302 OFFCURVE",
"452 -317 OFFCURVE",
"482 -317 CURVE SMOOTH"
);
}
);
width = 1402;
}
);
unicode = 014A;
},
{
glyphname = O;
lastChange = "2021-10-20 21:03:02 +0000";
layers = (
{
layerId = "E1C4CDDB-EFDF-468A-8ACC-65E2DFDE53DF";
paths = (
{
closed = 1;
nodes = (
"357 -48 OFFCURVE",
"595 200 OFFCURVE",
"595 402 CURVE SMOOTH",
"595 418 OFFCURVE",
"594 432 OFFCURVE",
"591 447 CURVE SMOOTH",
"571 552 OFFCURVE",
"478 584 OFFCURVE",
"382 584 CURVE SMOOTH",
"310 584 OFFCURVE",
"236 566 OFFCURVE",
"192 547 CURVE SMOOTH",
"113 512 OFFCURVE",
"45 463 OFFCURVE",
"52 411 CURVE",
"46 404 OFFCURVE",
"44 397 OFFCURVE",
"44 390 CURVE SMOOTH",
"44 384 OFFCURVE",
"46 377 OFFCURVE",
"50 370 CURVE SMOOTH",
"54 364 OFFCURVE",
"55 360 OFFCURVE",
"55 357 CURVE SMOOTH",
"55 352 OFFCURVE",
"53 347 OFFCURVE",
"52 338 CURVE",
"54 334 OFFCURVE",
"56 337 OFFCURVE",
"57 339 CURVE",
"61 386 OFFCURVE",
"89 433 OFFCURVE",
"131 473 CURVE SMOOTH",
"195 533 OFFCURVE",
"289 571 OFFCURVE",
"368 571 CURVE SMOOTH",
"476 571 OFFCURVE",
"543 525 OFFCURVE",
"543 410 CURVE SMOOTH",
"543 386 OFFCURVE",
"540 360 OFFCURVE",
"534 330 CURVE SMOOTH",
"502 159 OFFCURVE",
"326 -30 OFFCURVE",
"164 -30 CURVE SMOOTH",
"84 -30 OFFCURVE",
"53 24 OFFCURVE",
"53 94 CURVE SMOOTH",
"53 205 OFFCURVE",
"131 355 OFFCURVE",
"222 385 CURVE SMOOTH",
"229 387 OFFCURVE",
"240 390 OFFCURVE",
"250 390 CURVE SMOOTH",
"253 390 OFFCURVE",
"257 390 OFFCURVE",
"260 389 CURVE SMOOTH",
"265 387 OFFCURVE",
"269 389 OFFCURVE",
"269 392 CURVE SMOOTH",
"269 394 OFFCURVE",
"268 396 OFFCURVE",
"265 397 CURVE SMOOTH",
"247 406 OFFCURVE",
"236 413 OFFCURVE",
"215 413 CURVE SMOOTH",
"157 413 OFFCURVE",
"77 349 OFFCURVE",
"42 265 CURVE SMOOTH",
"25 224 OFFCURVE",
"16 179 OFFCURVE",
"16 136 CURVE SMOOTH",
"16 40 OFFCURVE",
"63 -44 OFFCURVE",
"171 -45 CURVE SMOOTH"
);
}
);
width = 534;
},
{
layerId = "10EE7422-BC27-45A8-8DF8-0D41623AEA15";
paths = (
{
closed = 1;
nodes = (
"363 -45 OFFCURVE",
"612 199 OFFCURVE",
"612 401 CURVE SMOOTH",
"612 415 OFFCURVE",
"611 430 OFFCURVE",
"608 444 CURVE SMOOTH",
"587 551 OFFCURVE",
"495 584 OFFCURVE",
"396 584 CURVE SMOOTH",
"320 584 OFFCURVE",
"241 565 OFFCURVE",
"185 544 CURVE SMOOTH",
"103 515 OFFCURVE",
"30 468 OFFCURVE",
"30 414 CURVE SMOOTH",
"30 411 OFFCURVE",
"31 408 OFFCURVE",
"31 405 CURVE",
"25 398 OFFCURVE",
"22 392 OFFCURVE",
"22 386 CURVE SMOOTH",
"22 369 OFFCURVE",
"47 358 OFFCURVE",
"42 318 CURVE",
"44 312 OFFCURVE",
"47 310 OFFCURVE",
"49 310 CURVE SMOOTH",
"54 310 OFFCURVE",
"58 318 OFFCURVE",
"58 318 CURVE",
"63 399 OFFCURVE",
"133 477 OFFCURVE",
"217 523 CURVE SMOOTH",
"258 546 OFFCURVE",
"314 563 OFFCURVE",
"366 563 CURVE SMOOTH",
"427 563 OFFCURVE",
"485 539 OFFCURVE",
"510 474 CURVE SMOOTH",
"519 450 OFFCURVE",
"524 421 OFFCURVE",
"524 391 CURVE SMOOTH",
"524 371 OFFCURVE",
"522 351 OFFCURVE",
"518 331 CURVE SMOOTH",
"494 210 OFFCURVE",
"322 -21 OFFCURVE",
"161 -21 CURVE SMOOTH",
"91 -21 OFFCURVE",
"64 24 OFFCURVE",
"64 85 CURVE SMOOTH",
"64 204 OFFCURVE",
"172 383 OFFCURVE",
"273 383 CURVE SMOOTH",
"283 383 OFFCURVE",
"295 384 OFFCURVE",
"295 388 CURVE SMOOTH",
"295 390 OFFCURVE",
"293 392 OFFCURVE",
"290 394 CURVE SMOOTH",
"269 410 OFFCURVE",
"241 415 OFFCURVE",
"215 415 CURVE SMOOTH",
"154 415 OFFCURVE",
"73 351 OFFCURVE",
"38 267 CURVE SMOOTH",
"21 226 OFFCURVE",
"11 181 OFFCURVE",
"11 138 CURVE SMOOTH",
"11 41 OFFCURVE",
"60 -45 OFFCURVE",
"174 -45 CURVE SMOOTH"
);
}
);
width = 534;
}
);
note = O;
unicode = 004F;
},
{
glyphname = Oslash;
lastChange = "2021-10-20 21:02:38 +0000";
layers = (
{
layerId = "E1C4CDDB-EFDF-468A-8ACC-65E2DFDE53DF";
paths = (
{
closed = 1;
nodes = (
"80 -121 OFFCURVE",
"90 -116 OFFCURVE",
"91 -112 CURVE",
"89 -111 LINE SMOOTH",
"81 -105 OFFCURVE",
"78 -98 OFFCURVE",
"78 -87 CURVE SMOOTH",
"78 -71 OFFCURVE",
"86 -50 OFFCURVE",
"98 -28 CURVE",
"119 -38 OFFCURVE",
"144 -45 OFFCURVE",
"174 -45 CURVE SMOOTH",
"360 -45 OFFCURVE",
"595 201 OFFCURVE",
"595 402 CURVE SMOOTH",
"595 418 OFFCURVE",
"594 432 OFFCURVE",
"591 447 CURVE SMOOTH",
"584 482 OFFCURVE",
"570 509 OFFCURVE",
"549 530 CURVE",
"552 533 LINE SMOOTH",
"586 572 OFFCURVE",
"615 608 OFFCURVE",
"615 615 CURVE SMOOTH",
"615 631 OFFCURVE",
"575 635 OFFCURVE",
"563 635 CURVE SMOOTH",
"556 635 OFFCURVE",
"530 606 OFFCURVE",
"496 565 CURVE",
"462 579 OFFCURVE",
"423 585 OFFCURVE",
"384 585 CURVE SMOOTH",
"311 585 OFFCURVE",
"237 566 OFFCURVE",
"192 547 CURVE SMOOTH",
"113 512 OFFCURVE",
"45 463 OFFCURVE",
"52 411 CURVE",
"46 404 OFFCURVE",
"44 397 OFFCURVE",
"44 390 CURVE SMOOTH",
"44 384 OFFCURVE",
"46 377 OFFCURVE",
"50 370 CURVE SMOOTH",
"54 364 OFFCURVE",
"55 360 OFFCURVE",
"55 357 CURVE SMOOTH",
"55 352 OFFCURVE",
"53 347 OFFCURVE",
"52 338 CURVE",
"54 334 OFFCURVE",
"56 337 OFFCURVE",
"57 339 CURVE",
"61 386 OFFCURVE",
"89 433 OFFCURVE",
"131 473 CURVE SMOOTH",
"195 533 OFFCURVE",
"289 571 OFFCURVE",
"368 571 CURVE SMOOTH",
"413 571 OFFCURVE",
"451 563 OFFCURVE",
"480 545 CURVE",
"399 445 OFFCURVE",
"287 292 OFFCURVE",
"270 268 CURVE SMOOTH",
"234 219 OFFCURVE",
"198 169 OFFCURVE",
"164 119 CURVE SMOOTH",
"144 89 OFFCURVE",
"110 43 OFFCURVE",
"85 -3 CURVE",
"63 20 OFFCURVE",
"53 54 OFFCURVE",
"53 93 CURVE SMOOTH",
"53 204 OFFCURVE",
"132 355 OFFCURVE",
"222 385 CURVE SMOOTH",
"229 387 OFFCURVE",
"240 390 OFFCURVE",
"250 390 CURVE SMOOTH",
"253 390 OFFCURVE",
"257 390 OFFCURVE",
"260 389 CURVE SMOOTH",
"265 387 OFFCURVE",
"269 389 OFFCURVE",
"269 392 CURVE SMOOTH",
"269 394 OFFCURVE",
"268 396 OFFCURVE",
"265 397 CURVE SMOOTH",
"247 406 OFFCURVE",
"236 413 OFFCURVE",
"215 413 CURVE SMOOTH",
"157 413 OFFCURVE",
"77 349 OFFCURVE",
"42 265 CURVE SMOOTH",
"25 224 OFFCURVE",
"16 179 OFFCURVE",
"16 136 CURVE SMOOTH",
"16 74 OFFCURVE",
"35 18 OFFCURVE",
"78 -15 CURVE",
"65 -42 OFFCURVE",
"55 -68 OFFCURVE",
"55 -90 CURVE SMOOTH",
"55 -102 OFFCURVE",
"64 -121 OFFCURVE",
"75 -121 CURVE SMOOTH"
);
},
{
closed = 1;
nodes = (
"136 -30 OFFCURVE",
"118 -25 OFFCURVE",
"104 -17 CURVE",
"129 24 OFFCURVE",
"165 68 OFFCURVE",
"183 92 CURVE SMOOTH",
"276 213 OFFCURVE",
"373 329 OFFCURVE",
"472 444 CURVE SMOOTH",
"480 452 OFFCURVE",
"500 474 OFFCURVE",
"523 500 CURVE",
"536 476 OFFCURVE",
"543 446 OFFCURVE",
"543 410 CURVE SMOOTH",
"543 386 OFFCURVE",
"540 360 OFFCURVE",
"534 330 CURVE SMOOTH",
"501 156 OFFCURVE",
"321 -36 OFFCURVE",
"156 -30 CURVE SMOOTH"
);
}
);
width = 534;
},
{
components = (
{
name = O;
},
{
name = slash;
transform = "{0.97291, 0, 0, 1.3469, 92, -28}";
}
);
layerId = "10EE7422-BC27-45A8-8DF8-0D41623AEA15";
width = 534;
}
);
note = Oslash;
unicode = 00D8;
},
{
glyphname = OE;
lastChange = "2021-10-20 21:03:02 +0000";
layers = (
{
layerId = "E1C4CDDB-EFDF-468A-8ACC-65E2DFDE53DF";
paths = (
{
closed = 1;
nodes = (
"678 -61 OFFCURVE",
"760 -43 OFFCURVE",
"827 -15 CURVE SMOOTH",
"868 2 OFFCURVE",
"1004 77 OFFCURVE",
"1004 143 CURVE SMOOTH",
"1004 153 OFFCURVE",
"1001 163 OFFCURVE",
"994 172 CURVE",
"993 198 OFFCURVE",
"967 228 OFFCURVE",
"943 239 CURVE",
"938 237 OFFCURVE",
"936 238 OFFCURVE",
"936 238 CURVE",
"938 236 LINE SMOOTH",
"947 229 OFFCURVE",
"970 211 OFFCURVE",
"970 182 CURVE SMOOTH",
"970 117 OFFCURVE",
"860 44 OFFCURVE",
"807 20 CURVE SMOOTH",
"742 -10 OFFCURVE",
"648 -31 OFFCURVE",
"576 -31 CURVE SMOOTH",
"508 -31 OFFCURVE",
"415 -14 OFFCURVE",
"415 70 CURVE",
"464 114 OFFCURVE",
"507 167 OFFCURVE",
"538 223 CURVE",
"611 262 OFFCURVE",
"759 311 OFFCURVE",
"830 311 CURVE SMOOTH",
"837 311 OFFCURVE",
"845 311 OFFCURVE",
"852 309 CURVE",
"849 334 OFFCURVE",
"836 356 OFFCURVE",
"808 356 CURVE SMOOTH",
"780 356 OFFCURVE",
"742 347 OFFCURVE",
"712 346 CURVE",
"707 345 OFFCURVE",
"673 351 OFFCURVE",
"669 352 CURVE SMOOTH",
"646 361 OFFCURVE",
"635 376 OFFCURVE",
"635 394 CURVE SMOOTH",
"635 461 OFFCURVE",
"784 573 OFFCURVE",
"924 573 CURVE SMOOTH",
"947 573 OFFCURVE",
"968 570 OFFCURVE",
"981 559 CURVE",
"971 545 OFFCURVE",
"923 476 OFFCURVE",
"923 430 CURVE SMOOTH",
"923 407 OFFCURVE",
"938 385 OFFCURVE",
"963 385 CURVE SMOOTH",
"964 385 OFFCURVE",
"966 385 OFFCURVE",
"966 387 CURVE SMOOTH",
"966 392 OFFCURVE",
"944 398 OFFCURVE",
"944 423 CURVE SMOOTH",
"944 456 OFFCURVE",
"979 520 OFFCURVE",
"1005 539 CURVE",
"1019 538 OFFCURVE",
"1023 484 OFFCURVE",
"1023 473 CURVE SMOOTH",
"1023 467 OFFCURVE",
"1022 453 OFFCURVE",
"1025 453 CURVE SMOOTH",
"1026 453 OFFCURVE",
"1027 455 OFFCURVE",
"1030 462 CURVE SMOOTH",
"1035 476 OFFCURVE",
"1037 500 OFFCURVE",
"1037 505 CURVE SMOOTH",
"1037 526 OFFCURVE",
"1034 544 OFFCURVE",
"1021 562 CURVE",
"1044 591 OFFCURVE",
"1071 611 OFFCURVE",
"1096 637 CURVE",
"1094 657 OFFCURVE",
"1074 661 OFFCURVE",
"1057 662 CURVE",
"1031 639 OFFCURVE",
"1011 610 OFFCURVE",
"992 581 CURVE",
"964 603 OFFCURVE",
"930 611 OFFCURVE",
"895 611 CURVE SMOOTH",
"808 611 OFFCURVE",
"628 535 OFFCURVE",
"586 446 CURVE",
"586 447 LINE SMOOTH",
"566 552 OFFCURVE",
"473 584 OFFCURVE",
"377 584 CURVE SMOOTH",
"305 584 OFFCURVE",
"231 566 OFFCURVE",
"187 547 CURVE SMOOTH",
"108 512 OFFCURVE",
"40 463 OFFCURVE",
"47 411 CURVE",
"41 404 OFFCURVE",
"39 397 OFFCURVE",
"39 390 CURVE SMOOTH",
"39 384 OFFCURVE",
"41 377 OFFCURVE",
"45 370 CURVE SMOOTH",
"49 364 OFFCURVE",
"50 360 OFFCURVE",
"50 357 CURVE SMOOTH",
"50 352 OFFCURVE",
"48 347 OFFCURVE",
"47 338 CURVE",
"49 334 OFFCURVE",
"51 337 OFFCURVE",
"52 339 CURVE",
"56 386 OFFCURVE",
"84 433 OFFCURVE",
"126 473 CURVE SMOOTH",
"190 533 OFFCURVE",
"284 571 OFFCURVE",
"363 571 CURVE SMOOTH",
"471 571 OFFCURVE",
"538 525 OFFCURVE",
"538 410 CURVE SMOOTH",
"538 386 OFFCURVE",
"535 360 OFFCURVE",
"529 330 CURVE SMOOTH",
"497 159 OFFCURVE",
"321 -30 OFFCURVE",
"159 -30 CURVE SMOOTH",
"79 -30 OFFCURVE",
"48 24 OFFCURVE",
"48 94 CURVE SMOOTH",
"48 205 OFFCURVE",
"126 355 OFFCURVE",
"217 385 CURVE SMOOTH",
"224 387 OFFCURVE",
"235 390 OFFCURVE",
"245 390 CURVE SMOOTH",
"248 390 OFFCURVE",
"252 390 OFFCURVE",
"255 389 CURVE SMOOTH",
"260 387 OFFCURVE",
"264 389 OFFCURVE",
"264 392 CURVE SMOOTH",
"264 394 OFFCURVE",
"263 396 OFFCURVE",
"260 397 CURVE SMOOTH",
"242 406 OFFCURVE",
"231 413 OFFCURVE",
"210 413 CURVE SMOOTH",
"152 413 OFFCURVE",
"72 349 OFFCURVE",
"37 265 CURVE SMOOTH",
"20 224 OFFCURVE",
"11 179 OFFCURVE",
"11 136 CURVE SMOOTH",
"11 39 OFFCURVE",
"58 -45 OFFCURVE",
"169 -45 CURVE SMOOTH",
"243 -45 OFFCURVE",
"325 -6 OFFCURVE",
"397 54 CURVE",
"418 -32 OFFCURVE",
"525 -61 OFFCURVE",
"606 -61 CURVE SMOOTH"
);
},
{
closed = 1;
nodes = (
"577 311 OFFCURVE",
"585 342 OFFCURVE",
"589 373 CURVE",
"609 344 OFFCURVE",
"655 334 OFFCURVE",
"690 331 CURVE",
"657 321 OFFCURVE",
"611 304 OFFCURVE",
"565 281 CURVE"
);
}
);
width = 1005;
},
{
layerId = "10EE7422-BC27-45A8-8DF8-0D41623AEA15";
paths = (
{
closed = 1;
nodes = (
"744 -64 OFFCURVE",
"944 3 OFFCURVE",
"990 123 CURVE SMOOTH",
"993 130 OFFCURVE",
"994 136 OFFCURVE",
"994 142 CURVE SMOOTH",
"994 151 OFFCURVE",
"991 160 OFFCURVE",
"985 170 CURVE",
"985 194 OFFCURVE",
"952 245 OFFCURVE",
"922 250 CURVE",
"918 249 OFFCURVE",
"915 247 OFFCURVE",
"915 244 CURVE SMOOTH",
"915 242 OFFCURVE",
"918 238 OFFCURVE",
"923 234 CURVE SMOOTH",
"938 222 OFFCURVE",
"943 208 OFFCURVE",
"943 194 CURVE SMOOTH",
"943 168 OFFCURVE",
"926 140 OFFCURVE",
"909 118 CURVE SMOOTH",
"874 74 OFFCURVE",
"826 50 OFFCURVE",
"773 25 CURVE SMOOTH",
"727 4 OFFCURVE",
"629 -24 OFFCURVE",
"545 -24 CURVE SMOOTH",
"476 -24 OFFCURVE",
"418 -5 OFFCURVE",
"406 51 CURVE",
"471 102 OFFCURVE",
"530 170 OFFCURVE",
"567 241 CURVE",
"634 272 OFFCURVE",
"725 303 OFFCURVE",
"791 303 CURVE SMOOTH",
"814 303 OFFCURVE",
"834 299 OFFCURVE",
"849 291 CURVE",
"849 292 LINE",
"851 295 LINE",
"849 324 OFFCURVE",
"823 360 OFFCURVE",
"792 360 CURVE SMOOTH",
"774 360 OFFCURVE",
"722 349 OFFCURVE",
"680 349 CURVE SMOOTH",
"648 349 OFFCURVE",
"622 355 OFFCURVE",
"622 377 CURVE SMOOTH",
"622 459 OFFCURVE",
"830 556 OFFCURVE",
"917 556 CURVE SMOOTH",
"924 556 OFFCURVE",
"941 556 OFFCURVE",
"941 549 CURVE SMOOTH",
"941 548 OFFCURVE",
"941 547 OFFCURVE",
"940 546 CURVE",
"926 522 OFFCURVE",
"901 473 OFFCURVE",
"901 436 CURVE SMOOTH",
"901 411 OFFCURVE",
"911 392 OFFCURVE",
"941 385 CURVE SMOOTH",
"949 383 OFFCURVE",
"953 387 OFFCURVE",
"953 390 CURVE SMOOTH",
"953 391 OFFCURVE",
"952 393 OFFCURVE",
"950 393 CURVE",
"943 397 OFFCURVE",
"937 405 OFFCURVE",
"937 413 CURVE SMOOTH",
"937 432 OFFCURVE",
"983 519 OFFCURVE",
"1001 519 CURVE SMOOTH",
"1007 519 OFFCURVE",
"1009 504 OFFCURVE",
"1009 489 CURVE SMOOTH",
"1009 476 OFFCURVE",
"1008 462 OFFCURVE",
"1007 458 CURVE SMOOTH",
"1006 454 OFFCURVE",
"1006 450 OFFCURVE",
"1006 448 CURVE SMOOTH",
"1006 442 OFFCURVE",
"1008 439 OFFCURVE",
"1011 439 CURVE SMOOTH",
"1019 439 OFFCURVE",
"1032 458 OFFCURVE",
"1032 496 CURVE SMOOTH",
"1032 516 OFFCURVE",
"1029 538 OFFCURVE",
"1023 547 CURVE",
"1032 556 OFFCURVE",
"1080 614 OFFCURVE",
"1091 624 CURVE",
"1091 649 OFFCURVE",
"1059 662 OFFCURVE",
"1039 662 CURVE",
"1014 640 OFFCURVE",
"993 612 OFFCURVE",
"975 584 CURVE",
"952 602 OFFCURVE",
"920 612 OFFCURVE",
"881 612 CURVE SMOOTH",
"846 612 OFFCURVE",
"805 604 OFFCURVE",
"759 588 CURVE SMOOTH",
"718 574 OFFCURVE",
"642 532 OFFCURVE",
"595 484 CURVE",
"562 559 OFFCURVE",
"482 584 OFFCURVE",
"396 584 CURVE SMOOTH",
"321 584 OFFCURVE",
"241 565 OFFCURVE",
"185 544 CURVE SMOOTH",
"103 515 OFFCURVE",
"30 468 OFFCURVE",
"30 414 CURVE SMOOTH",
"30 411 OFFCURVE",
"31 408 OFFCURVE",
"31 405 CURVE",
"25 398 OFFCURVE",
"22 392 OFFCURVE",
"22 386 CURVE SMOOTH",
"22 369 OFFCURVE",
"47 358 OFFCURVE",
"42 318 CURVE",
"44 312 OFFCURVE",
"47 310 OFFCURVE",
"49 310 CURVE SMOOTH",
"54 310 OFFCURVE",
"58 318 OFFCURVE",
"58 318 CURVE",
"63 399 OFFCURVE",
"133 477 OFFCURVE",
"217 523 CURVE SMOOTH",
"258 546 OFFCURVE",
"314 563 OFFCURVE",
"366 563 CURVE SMOOTH",
"427 563 OFFCURVE",
"485 539 OFFCURVE",
"510 474 CURVE SMOOTH",
"519 450 OFFCURVE",
"524 421 OFFCURVE",
"524 391 CURVE SMOOTH",
"524 371 OFFCURVE",
"522 351 OFFCURVE",
"518 331 CURVE SMOOTH",
"494 210 OFFCURVE",
"322 -21 OFFCURVE",
"161 -21 CURVE SMOOTH",
"91 -21 OFFCURVE",
"64 24 OFFCURVE",
"64 85 CURVE SMOOTH",
"64 204 OFFCURVE",
"172 383 OFFCURVE",
"273 383 CURVE SMOOTH",
"283 383 OFFCURVE",
"295 384 OFFCURVE",
"295 388 CURVE SMOOTH",
"295 390 OFFCURVE",
"293 392 OFFCURVE",
"290 394 CURVE SMOOTH",
"269 410 OFFCURVE",
"241 415 OFFCURVE",
"215 415 CURVE SMOOTH",
"154 415 OFFCURVE",
"73 351 OFFCURVE",
"38 267 CURVE SMOOTH",
"21 226 OFFCURVE",
"11 181 OFFCURVE",
"11 138 CURVE SMOOTH",
"11 41 OFFCURVE",
"60 -45 OFFCURVE",
"174 -45 CURVE SMOOTH",
"240 -45 OFFCURVE",
"315 -14 OFFCURVE",
"384 34 CURVE",
"421 -42 OFFCURVE",
"535 -64 OFFCURVE",
"612 -64 CURVE SMOOTH"
);
},
{
closed = 1;
nodes = (
"605 339 LINE",
"617 333 OFFCURVE",
"633 329 OFFCURVE",
"651 327 CURVE",
"605 311 LINE",
"596 308 LINE"
);
}
);
width = 1005;
}
);
note = OE;
unicode = 0152;
},
{
glyphname = P;
lastChange = "2021-10-20 21:03:02 +0000";
layers = (
{
layerId = "E1C4CDDB-EFDF-468A-8ACC-65E2DFDE53DF";
paths = (
{
closed = 1;
nodes = (
"156 -75 OFFCURVE",
"156 -75 OFFCURVE",
"157 -74 CURVE SMOOTH",
"232 -1 OFFCURVE",
"355 33 OFFCURVE",
"423 33 CURVE SMOOTH",
"426 33 OFFCURVE",
"427 40 OFFCURVE",
"424 40 CURVE SMOOTH",
"393 40 OFFCURVE",
"369 41 OFFCURVE",
"320 33 CURVE",
"281 41 OFFCURVE",
"267 42 OFFCURVE",
"267 89 CURVE SMOOTH",
"267 220 OFFCURVE",
"475 461 OFFCURVE",
"575 548 CURVE",
"680 546 OFFCURVE",
"789 531 OFFCURVE",
"789 474 CURVE SMOOTH",
"789 460 OFFCURVE",
"783 445 OFFCURVE",
"776 433 CURVE SMOOTH",
"708 319 OFFCURVE",
"483 251 OFFCURVE",
"369 231 CURVE SMOOTH",
"348 227 OFFCURVE",
"339 227 OFFCURVE",
"340 224 CURVE SMOOTH",
"341 220 OFFCURVE",
"351 220 OFFCURVE",
"364 220 CURVE SMOOTH",
"366 220 OFFCURVE",
"372 222 OFFCURVE",
"379 224 CURVE SMOOTH",
"387 226 OFFCURVE",
"395 229 OFFCURVE",
"401 230 CURVE SMOOTH",
"437 239 OFFCURVE",
"486 244 OFFCURVE",
"509 249 CURVE SMOOTH",
"595 267 OFFCURVE",
"813 334 OFFCURVE",
"813 435 CURVE SMOOTH",
"813 448 OFFCURVE",
"809 462 OFFCURVE",
"801 476 CURVE",
"794 479 OFFCURVE",
"797 491 OFFCURVE",
"795 498 CURVE SMOOTH",
"794 506 OFFCURVE",
"789 518 OFFCURVE",
"766 532 CURVE SMOOTH",
"734 551 OFFCURVE",
"667 562 OFFCURVE",
"594 570 CURVE",
"610 585 OFFCURVE",
"627 599 OFFCURVE",
"636 612 CURVE SMOOTH",
"641 619 OFFCURVE",
"644 625 OFFCURVE",
"644 630 CURVE SMOOTH",
"644 636 OFFCURVE",
"640 642 OFFCURVE",
"630 646 CURVE SMOOTH",
"619 649 OFFCURVE",
"608 648 OFFCURVE",
"598 653 CURVE",
"582 640 OFFCURVE",
"564 631 OFFCURVE",
"549 617 CURVE SMOOTH",
"538 608 OFFCURVE",
"531 596 OFFCURVE",
"531 587 CURVE SMOOTH",
"531 582 OFFCURVE",
"532 578 OFFCURVE",
"536 574 CURVE",
"513 575 OFFCURVE",
"491 575 OFFCURVE",
"469 575 CURVE SMOOTH",
"382 575 OFFCURVE",
"305 569 OFFCURVE",
"257 563 CURVE SMOOTH",
"118 547 OFFCURVE",
"-8 496 OFFCURVE",
"-8 447 CURVE SMOOTH",
"-8 430 OFFCURVE",
"13 402 OFFCURVE",
"35 388 CURVE SMOOTH",
"38 386 OFFCURVE",
"41 385 OFFCURVE",
"43 385 CURVE SMOOTH",
"45 385 OFFCURVE",
"46 386 OFFCURVE",
"46 388 CURVE SMOOTH",
"46 389 OFFCURVE",
"45 391 OFFCURVE",
"43 393 CURVE",
"40 400 OFFCURVE",
"34 401 OFFCURVE",
"34 408 CURVE SMOOTH",
"34 468 OFFCURVE",
"95 503 OFFCURVE",
"252 530 CURVE SMOOTH",
"393 555 OFFCURVE",
"474 549 OFFCURVE",
"515 551 CURVE",
"402 447 OFFCURVE",
"240 214 OFFCURVE",
"240 104 CURVE SMOOTH",
"240 68 OFFCURVE",
"257 36 OFFCURVE",
"301 31 CURVE",
"232 17 OFFCURVE",
"193 3 OFFCURVE",
"169 -19 CURVE SMOOTH",
"161 -27 OFFCURVE",
"152 -40 OFFCURVE",
"152 -57 CURVE SMOOTH",
"152 -59 OFFCURVE",
"151 -75 OFFCURVE",
"155 -75 CURVE SMOOTH"
);
}
);
width = 652;
},
{
layerId = "10EE7422-BC27-45A8-8DF8-0D41623AEA15";
paths = (
{
closed = 1;
nodes = (
"237 -10 OFFCURVE",
"357 31 OFFCURVE",
"423 31 CURVE SMOOTH",
"428 31 OFFCURVE",
"431 36 OFFCURVE",
"431 41 CURVE SMOOTH",
"431 45 OFFCURVE",
"429 49 OFFCURVE",
"424 49 CURVE SMOOTH",
"393 49 OFFCURVE",
"350 46 OFFCURVE",
"306 39 CURVE",
"306 45 LINE",
"277 45 OFFCURVE",
"272 66 OFFCURVE",
"272 91 CURVE SMOOTH",
"272 218 OFFCURVE",
"485 454 OFFCURVE",
"584 540 CURVE",
"690 538 OFFCURVE",
"784 522 OFFCURVE",
"784 472 CURVE SMOOTH",
"784 459 OFFCURVE",
"779 445 OFFCURVE",
"772 434 CURVE SMOOTH",
"705 324 OFFCURVE",
"482 256 OFFCURVE",
"369 237 CURVE SMOOTH",
"345 233 OFFCURVE",
"335 228 OFFCURVE",
"335 224 CURVE SMOOTH",
"335 219 OFFCURVE",
"347 216 OFFCURVE",
"364 216 CURVE SMOOTH",
"370 216 OFFCURVE",
"390 223 OFFCURVE",
"402 226 CURVE SMOOTH",
"438 235 OFFCURVE",
"487 243 OFFCURVE",
"509 245 CURVE SMOOTH",
"579 250 OFFCURVE",
"817 332 OFFCURVE",
"817 437 CURVE SMOOTH",
"817 450 OFFCURVE",
"813 464 OFFCURVE",
"805 478 CURVE",
"794 480 OFFCURVE",
"816 505 OFFCURVE",
"769 533 CURVE SMOOTH",
"736 552 OFFCURVE",
"681 564 OFFCURVE",
"619 570 CURVE",
"634 584 OFFCURVE",
"646 597 OFFCURVE",
"650 607 CURVE SMOOTH",
"651 610 OFFCURVE",
"652 614 OFFCURVE",
"652 618 CURVE SMOOTH",
"652 641 OFFCURVE",
"595 655 OFFCURVE",
"577 656 CURVE",
"558 641 OFFCURVE",
"509 614 OFFCURVE",
"509 590 CURVE SMOOTH",
"509 585 OFFCURVE",
"511 580 OFFCURVE",
"515 576 CURVE",
"498 576 OFFCURVE",
"482 577 OFFCURVE",
"466 577 CURVE SMOOTH",
"383 577 OFFCURVE",
"307 571 OFFCURVE",
"256 565 CURVE SMOOTH",
"120 549 OFFCURVE",
"-19 507 OFFCURVE",
"-19 454 CURVE SMOOTH",
"-19 429 OFFCURVE",
"27 388 OFFCURVE",
"50 385 CURVE SMOOTH",
"57 384 OFFCURVE",
"61 385 OFFCURVE",
"61 388 CURVE SMOOTH",
"61 389 OFFCURVE",
"60 391 OFFCURVE",
"58 393 CURVE",
"48 393 OFFCURVE",
"39 399 OFFCURVE",
"39 406 CURVE SMOOTH",
"39 453 OFFCURVE",
"182 510 OFFCURVE",
"296 523 CURVE SMOOTH",
"323 526 OFFCURVE",
"393 535 OFFCURVE",
"480 539 CURVE",
"386 436 OFFCURVE",
"231 222 OFFCURVE",
"231 112 CURVE SMOOTH",
"231 75 OFFCURVE",
"255 43 OFFCURVE",
"284 35 CURVE",
"236 26 OFFCURVE",
"191 11 OFFCURVE",
"166 -11 CURVE SMOOTH",
"155 -21 OFFCURVE",
"149 -45 OFFCURVE",
"149 -63 CURVE SMOOTH",
"149 -79 OFFCURVE",
"154 -90 OFFCURVE",
"163 -81 CURVE SMOOTH"
);
}
);
width = 652;
}
);
note = P;
unicode = 0050;
},
{
glyphname = Thorn;
lastChange = "2021-10-20 21:03:02 +0000";
layers = (
{
layerId = "E1C4CDDB-EFDF-468A-8ACC-65E2DFDE53DF";
paths = (
{
closed = 1;
nodes = (
"255 -74 OFFCURVE",
"268 -70 OFFCURVE",
"268 -66 CURVE SMOOTH",
"268 -65 OFFCURVE",
"267 -64 OFFCURVE",
"266 -63 CURVE",
"247 -59 OFFCURVE",
"213 -47 OFFCURVE",
"213 -15 CURVE SMOOTH",
"213 116 OFFCURVE",
"475 461 OFFCURVE",
"575 548 CURVE",
"680 546 OFFCURVE",
"789 531 OFFCURVE",
"789 474 CURVE SMOOTH",
"789 460 OFFCURVE",
"783 445 OFFCURVE",
"776 433 CURVE SMOOTH",
"708 319 OFFCURVE",
"483 251 OFFCURVE",
"369 231 CURVE SMOOTH",
"348 227 OFFCURVE",
"339 227 OFFCURVE",
"340 224 CURVE SMOOTH",
"341 220 OFFCURVE",
"351 220 OFFCURVE",
"364 220 CURVE SMOOTH",
"366 220 OFFCURVE",
"372 222 OFFCURVE",
"379 224 CURVE SMOOTH",
"387 226 OFFCURVE",
"395 229 OFFCURVE",
"401 230 CURVE SMOOTH",
"437 239 OFFCURVE",
"486 244 OFFCURVE",
"509 249 CURVE SMOOTH",
"595 267 OFFCURVE",
"818 335 OFFCURVE",
"818 436 CURVE SMOOTH",
"818 449 OFFCURVE",
"814 462 OFFCURVE",
"806 476 CURVE",
"799 479 OFFCURVE",
"802 491 OFFCURVE",
"800 498 CURVE SMOOTH",
"799 506 OFFCURVE",
"789 518 OFFCURVE",
"766 532 CURVE SMOOTH",
"734 551 OFFCURVE",
"667 562 OFFCURVE",
"594 570 CURVE",
"684 661 OFFCURVE",
"701 675 OFFCURVE",
"710 688 CURVE SMOOTH",
"715 695 OFFCURVE",
"718 701 OFFCURVE",
"718 706 CURVE SMOOTH",
"718 712 OFFCURVE",
"714 718 OFFCURVE",
"704 722 CURVE SMOOTH",
"693 725 OFFCURVE",
"682 724 OFFCURVE",
"672 729 CURVE",
"656 716 OFFCURVE",
"638 707 OFFCURVE",
"623 693 CURVE SMOOTH",
"606 679 OFFCURVE",
"552 606 OFFCURVE",
"536 574 CURVE",
"513 575 OFFCURVE",
"491 575 OFFCURVE",
"469 575 CURVE SMOOTH",
"382 575 OFFCURVE",
"305 569 OFFCURVE",
"257 563 CURVE SMOOTH",
"118 547 OFFCURVE",
"-8 496 OFFCURVE",
"-8 447 CURVE SMOOTH",
"-8 430 OFFCURVE",
"13 402 OFFCURVE",
"35 388 CURVE SMOOTH",
"38 386 OFFCURVE",
"41 385 OFFCURVE",
"43 385 CURVE SMOOTH",
"45 385 OFFCURVE",
"46 386 OFFCURVE",
"46 388 CURVE SMOOTH",
"46 389 OFFCURVE",
"45 391 OFFCURVE",
"43 393 CURVE",
"40 400 OFFCURVE",
"34 401 OFFCURVE",
"34 408 CURVE SMOOTH",
"34 468 OFFCURVE",
"95 503 OFFCURVE",
"252 530 CURVE SMOOTH",
"393 555 OFFCURVE",
"474 549 OFFCURVE",
"515 551 CURVE",
"402 447 OFFCURVE",
"186 110 OFFCURVE",
"186 0 CURVE SMOOTH",
"186 -36 OFFCURVE",
"200 -67 OFFCURVE",
"247 -73 CURVE SMOOTH"
);
}
);
width = 652;
},
{
background = {
paths = (
{
closed = 1;
nodes = (
"40 400 OFFCURVE",
"34 401 OFFCURVE",
"34 408 CURVE SMOOTH",
"34 468 OFFCURVE",
"95 503 OFFCURVE",
"252 530 CURVE SMOOTH",
"393 555 OFFCURVE",
"474 549 OFFCURVE",
"515 551 CURVE",
"402 447 OFFCURVE",
"186 110 OFFCURVE",
"186 0 CURVE SMOOTH",
"186 -36 OFFCURVE",
"200 -67 OFFCURVE",
"247 -73 CURVE SMOOTH",
"257 -74 OFFCURVE",
"274 -68 OFFCURVE",
"266 -63 CURVE",
"247 -59 OFFCURVE",
"213 -47 OFFCURVE",
"213 -15 CURVE SMOOTH",
"213 116 OFFCURVE",
"475 461 OFFCURVE",
"575 548 CURVE",
"680 546 OFFCURVE",
"789 531 OFFCURVE",
"789 474 CURVE SMOOTH",
"789 460 OFFCURVE",
"783 445 OFFCURVE",
"776 433 CURVE SMOOTH",
"708 319 OFFCURVE",
"483 251 OFFCURVE",
"369 231 CURVE SMOOTH",
"348 227 OFFCURVE",
"339 227 OFFCURVE",
"340 224 CURVE SMOOTH",
"341 220 OFFCURVE",
"351 220 OFFCURVE",
"364 220 CURVE SMOOTH",
"366 220 OFFCURVE",
"372 222 OFFCURVE",
"379 224 CURVE SMOOTH",
"387 226 OFFCURVE",
"395 229 OFFCURVE",
"401 230 CURVE SMOOTH",
"437 239 OFFCURVE",
"486 244 OFFCURVE",
"509 249 CURVE SMOOTH",
"606 269 OFFCURVE",
"877 353 OFFCURVE",
"806 476 CURVE",
"799 479 OFFCURVE",
"802 491 OFFCURVE",
"800 498 CURVE SMOOTH",
"799 506 OFFCURVE",
"789 518 OFFCURVE",
"766 532 CURVE SMOOTH",
"734 551 OFFCURVE",
"667 562 OFFCURVE",
"594 570 CURVE",
"684 661 OFFCURVE",
"701 675 OFFCURVE",
"710 688 CURVE SMOOTH",
"720 702 OFFCURVE",
"723 714 OFFCURVE",
"704 722 CURVE",
"693 725 OFFCURVE",
"682 724 OFFCURVE",
"672 729 CURVE",
"656 716 OFFCURVE",
"638 707 OFFCURVE",
"623 693 CURVE SMOOTH",
"606 679 OFFCURVE",
"552 606 OFFCURVE",
"536 574 CURVE",
"423 578 OFFCURVE",
"317 571 OFFCURVE",
"257 563 CURVE SMOOTH",
"118 547 OFFCURVE",
"-8 496 OFFCURVE",
"-8 447 CURVE SMOOTH",
"-8 430 OFFCURVE",
"13 402 OFFCURVE",
"35 388 CURVE SMOOTH",
"45 382 OFFCURVE",
"50 387 OFFCURVE",
"43 393 CURVE"
);
}
);
};
layerId = "10EE7422-BC27-45A8-8DF8-0D41623AEA15";
paths = (
{
closed = 1;
nodes = (
"261 -73 LINE",
"261 -67 LINE",
"232 -67 OFFCURVE",
"227 -46 OFFCURVE",
"227 -21 CURVE SMOOTH",
"227 106 OFFCURVE",
"485 454 OFFCURVE",
"584 540 CURVE",
"690 538 OFFCURVE",
"784 522 OFFCURVE",
"784 472 CURVE SMOOTH",
"784 459 OFFCURVE",
"779 445 OFFCURVE",
"772 434 CURVE SMOOTH",
"705 324 OFFCURVE",
"482 256 OFFCURVE",
"369 237 CURVE SMOOTH",
"345 233 OFFCURVE",
"335 228 OFFCURVE",
"335 224 CURVE SMOOTH",
"335 219 OFFCURVE",
"347 216 OFFCURVE",
"364 216 CURVE SMOOTH",
"370 216 OFFCURVE",
"390 223 OFFCURVE",
"402 226 CURVE SMOOTH",
"438 235 OFFCURVE",
"487 243 OFFCURVE",
"509 245 CURVE SMOOTH",
"579 250 OFFCURVE",
"817 332 OFFCURVE",
"817 437 CURVE SMOOTH",
"817 450 OFFCURVE",
"813 464 OFFCURVE",
"805 478 CURVE",
"794 480 OFFCURVE",
"816 505 OFFCURVE",
"769 533 CURVE SMOOTH",
"736 552 OFFCURVE",
"681 564 OFFCURVE",
"619 570 CURVE",
"729 673 OFFCURVE",
"741 686 OFFCURVE",
"745 696 CURVE SMOOTH",
"746 699 OFFCURVE",
"747 703 OFFCURVE",
"747 707 CURVE SMOOTH",
"747 730 OFFCURVE",
"690 744 OFFCURVE",
"672 745 CURVE",
"650 727 OFFCURVE",
"551 637 OFFCURVE",
"515 576 CURVE",
"498 576 OFFCURVE",
"482 577 OFFCURVE",
"466 577 CURVE SMOOTH",
"383 577 OFFCURVE",
"307 571 OFFCURVE",
"256 565 CURVE SMOOTH",
"120 549 OFFCURVE",
"-19 507 OFFCURVE",
"-19 454 CURVE SMOOTH",
"-19 429 OFFCURVE",
"27 388 OFFCURVE",
"50 385 CURVE SMOOTH",
"57 384 OFFCURVE",
"61 385 OFFCURVE",
"61 388 CURVE SMOOTH",
"61 389 OFFCURVE",
"60 391 OFFCURVE",
"58 393 CURVE",
"48 393 OFFCURVE",
"39 399 OFFCURVE",
"39 406 CURVE SMOOTH",
"39 453 OFFCURVE",
"182 510 OFFCURVE",
"296 523 CURVE SMOOTH",
"323 526 OFFCURVE",
"393 535 OFFCURVE",
"480 539 CURVE",
"386 436 OFFCURVE",
"186 110 OFFCURVE",
"186 0 CURVE SMOOTH",
"186 -37 OFFCURVE",
"210 -69 OFFCURVE",
"239 -77 CURVE"
);
}
);
width = 652;
}
);
unicode = 00DE;
},
{
glyphname = Q;
lastChange = "2021-10-20 21:03:02 +0000";
layers = (
{
layerId = "E1C4CDDB-EFDF-468A-8ACC-65E2DFDE53DF";
paths = (
{
closed = 1;
nodes = (
"693 -229 OFFCURVE",
"694 -229 OFFCURVE",
"695 -228 CURVE SMOOTH",
"700 -224 OFFCURVE",
"712 -211 OFFCURVE",
"718 -208 CURVE SMOOTH",
"724 -205 OFFCURVE",
"731 -203 OFFCURVE",
"737 -200 CURVE SMOOTH",
"757 -191 OFFCURVE",
"764 -179 OFFCURVE",
"764 -163 CURVE SMOOTH",
"764 -147 OFFCURVE",
"757 -128 OFFCURVE",
"749 -106 CURVE",
"750 -97 OFFCURVE",
"752 -89 OFFCURVE",
"752 -81 CURVE SMOOTH",
"752 -70 OFFCURVE",
"748 -59 OFFCURVE",
"729 -48 CURVE SMOOTH",
"705 -33 OFFCURVE",
"671 -28 OFFCURVE",
"633 -28 CURVE SMOOTH",
"570 -28 OFFCURVE",
"499 -43 OFFCURVE",
"458 -53 CURVE SMOOTH",
"334 -83 OFFCURVE",
"209 -135 OFFCURVE",
"81 -145 CURVE SMOOTH",
"30 -149 OFFCURVE",
"3 -140 OFFCURVE",
"3 -120 CURVE SMOOTH",
"3 -105 OFFCURVE",
"17 -84 OFFCURVE",
"48 -59 CURVE SMOOTH",
"61 -49 OFFCURVE",
"77 -37 OFFCURVE",
"94 -26 CURVE",
"116 -38 OFFCURVE",
"142 -45 OFFCURVE",
"174 -45 CURVE SMOOTH",
"360 -45 OFFCURVE",
"595 201 OFFCURVE",
"595 402 CURVE SMOOTH",
"595 418 OFFCURVE",
"594 432 OFFCURVE",
"591 447 CURVE SMOOTH",
"571 552 OFFCURVE",
"478 584 OFFCURVE",
"382 584 CURVE SMOOTH",
"310 584 OFFCURVE",
"236 566 OFFCURVE",
"192 547 CURVE SMOOTH",
"113 512 OFFCURVE",
"45 463 OFFCURVE",
"52 411 CURVE",
"46 404 OFFCURVE",
"44 397 OFFCURVE",
"44 390 CURVE SMOOTH",
"44 384 OFFCURVE",
"46 377 OFFCURVE",
"50 370 CURVE SMOOTH",
"54 364 OFFCURVE",
"55 360 OFFCURVE",
"55 357 CURVE SMOOTH",
"55 352 OFFCURVE",
"53 347 OFFCURVE",
"52 338 CURVE",
"54 334 OFFCURVE",
"56 337 OFFCURVE",
"57 339 CURVE",
"61 386 OFFCURVE",
"89 433 OFFCURVE",
"131 473 CURVE SMOOTH",
"195 533 OFFCURVE",
"289 571 OFFCURVE",
"368 571 CURVE SMOOTH",
"476 571 OFFCURVE",
"543 525 OFFCURVE",
"543 410 CURVE SMOOTH",
"543 386 OFFCURVE",
"540 360 OFFCURVE",
"534 330 CURVE SMOOTH",
"502 159 OFFCURVE",
"326 -30 OFFCURVE",
"164 -30 CURVE SMOOTH",
"140 -30 OFFCURVE",
"122 -27 OFFCURVE",
"106 -18 CURVE",
"132 -2 OFFCURVE",
"160 13 OFFCURVE",
"185 24 CURVE SMOOTH",
"190 26 OFFCURVE",
"192 28 OFFCURVE",
"192 29 CURVE SMOOTH",
"192 31 OFFCURVE",
"188 32 OFFCURVE",
"181 31 CURVE SMOOTH",
"160 28 OFFCURVE",
"125 13 OFFCURVE",
"90 -7 CURVE",
"64 15 OFFCURVE",
"53 52 OFFCURVE",
"53 94 CURVE SMOOTH",
"53 205 OFFCURVE",
"131 355 OFFCURVE",
"222 385 CURVE SMOOTH",
"229 387 OFFCURVE",
"240 390 OFFCURVE",
"250 390 CURVE SMOOTH",
"253 390 OFFCURVE",
"257 390 OFFCURVE",
"260 389 CURVE SMOOTH",
"265 387 OFFCURVE",
"269 389 OFFCURVE",
"269 392 CURVE SMOOTH",
"269 394 OFFCURVE",
"268 396 OFFCURVE",
"265 397 CURVE SMOOTH",
"247 406 OFFCURVE",
"236 413 OFFCURVE",
"215 413 CURVE SMOOTH",
"157 413 OFFCURVE",
"77 349 OFFCURVE",
"42 265 CURVE SMOOTH",
"25 224 OFFCURVE",
"16 179 OFFCURVE",
"16 136 CURVE SMOOTH",
"16 75 OFFCURVE",
"35 18 OFFCURVE",
"77 -15 CURVE",
"30 -44 OFFCURVE",
"-13 -80 OFFCURVE",
"-13 -107 CURVE SMOOTH",
"-13 -153 OFFCURVE",
"17 -194 OFFCURVE",
"62 -190 CURVE SMOOTH",
"253 -171 OFFCURVE",
"414 -62 OFFCURVE",
"610 -62 CURVE SMOOTH",
"649 -62 OFFCURVE",
"744 -71 OFFCURVE",
"744 -132 CURVE SMOOTH",
"744 -171 OFFCURVE",
"717 -201 OFFCURVE",
"691 -219 CURVE SMOOTH",
"684 -224 OFFCURVE",
"688 -229 OFFCURVE",
"692 -229 CURVE SMOOTH"
);
}
);
width = 512;
},
{
layerId = "10EE7422-BC27-45A8-8DF8-0D41623AEA15";
paths = (
{
closed = 1;
nodes = (
"701 -227 OFFCURVE",
"710 -213 OFFCURVE",
"720 -208 CURVE SMOOTH",
"745 -196 OFFCURVE",
"770 -191 OFFCURVE",
"776 -160 CURVE SMOOTH",
"777 -156 OFFCURVE",
"777 -152 OFFCURVE",
"777 -149 CURVE SMOOTH",
"777 -134 OFFCURVE",
"770 -125 OFFCURVE",
"757 -96 CURVE",
"764 -38 OFFCURVE",
"709 -30 OFFCURVE",
"680 -25 CURVE SMOOTH",
"665 -22 OFFCURVE",
"648 -21 OFFCURVE",
"629 -21 CURVE SMOOTH",
"507 -21 OFFCURVE",
"332 -81 OFFCURVE",
"265 -98 CURVE SMOOTH",
"238 -105 OFFCURVE",
"126 -137 OFFCURVE",
"61 -137 CURVE SMOOTH",
"26 -137 OFFCURVE",
"7 -129 OFFCURVE",
"7 -115 CURVE SMOOTH",
"7 -103 OFFCURVE",
"22 -84 OFFCURVE",
"51 -60 CURVE SMOOTH",
"64 -49 OFFCURVE",
"80 -38 OFFCURVE",
"96 -28 CURVE",
"118 -39 OFFCURVE",
"144 -45 OFFCURVE",
"174 -45 CURVE SMOOTH",
"363 -45 OFFCURVE",
"612 198 OFFCURVE",
"612 400 CURVE SMOOTH",
"612 415 OFFCURVE",
"611 430 OFFCURVE",
"608 444 CURVE SMOOTH",
"587 551 OFFCURVE",
"495 584 OFFCURVE",
"396 584 CURVE SMOOTH",
"320 584 OFFCURVE",
"241 565 OFFCURVE",
"185 544 CURVE SMOOTH",
"103 515 OFFCURVE",
"30 468 OFFCURVE",
"30 414 CURVE SMOOTH",
"30 411 OFFCURVE",
"31 408 OFFCURVE",
"31 405 CURVE",
"25 398 OFFCURVE",
"22 392 OFFCURVE",
"22 386 CURVE SMOOTH",
"22 369 OFFCURVE",
"47 358 OFFCURVE",
"42 318 CURVE",
"44 312 OFFCURVE",
"47 310 OFFCURVE",
"49 310 CURVE SMOOTH",
"54 310 OFFCURVE",
"58 318 OFFCURVE",
"58 318 CURVE",
"63 399 OFFCURVE",
"133 477 OFFCURVE",
"217 523 CURVE SMOOTH",
"258 546 OFFCURVE",
"314 563 OFFCURVE",
"366 563 CURVE SMOOTH",
"427 563 OFFCURVE",
"485 539 OFFCURVE",
"510 474 CURVE SMOOTH",
"519 450 OFFCURVE",
"524 421 OFFCURVE",
"524 391 CURVE SMOOTH",
"524 371 OFFCURVE",
"522 351 OFFCURVE",
"518 331 CURVE SMOOTH",
"494 210 OFFCURVE",
"322 -21 OFFCURVE",
"161 -21 CURVE SMOOTH",
"145 -21 OFFCURVE",
"131 -18 OFFCURVE",
"120 -14 CURVE",
"159 9 OFFCURVE",
"197 27 OFFCURVE",
"209 31 CURVE",
"215 37 OFFCURVE",
"209 40 OFFCURVE",
"197 40 CURVE SMOOTH",
"193 40 OFFCURVE",
"187 39 OFFCURVE",
"180 38 CURVE SMOOTH",
"156 34 OFFCURVE",
"123 21 OFFCURVE",
"92 4 CURVE",
"72 23 OFFCURVE",
"64 52 OFFCURVE",
"64 86 CURVE SMOOTH",
"64 205 OFFCURVE",
"172 383 OFFCURVE",
"273 383 CURVE SMOOTH",
"283 383 OFFCURVE",
"295 384 OFFCURVE",
"295 388 CURVE SMOOTH",
"295 390 OFFCURVE",
"293 392 OFFCURVE",
"290 394 CURVE SMOOTH",
"269 410 OFFCURVE",
"241 415 OFFCURVE",
"215 415 CURVE SMOOTH",
"154 415 OFFCURVE",
"73 351 OFFCURVE",
"38 267 CURVE SMOOTH",
"21 226 OFFCURVE",
"11 180 OFFCURVE",
"11 138 CURVE SMOOTH",
"11 79 OFFCURVE",
"29 24 OFFCURVE",
"69 -10 CURVE",
"22 -40 OFFCURVE",
"-18 -77 OFFCURVE",
"-18 -104 CURVE SMOOTH",
"-18 -149 OFFCURVE",
"4 -201 OFFCURVE",
"54 -196 CURVE SMOOTH",
"235 -178 OFFCURVE",
"412 -64 OFFCURVE",
"610 -64 CURVE SMOOTH",
"647 -64 OFFCURVE",
"739 -70 OFFCURVE",
"739 -128 CURVE SMOOTH",
"739 -165 OFFCURVE",
"712 -198 OFFCURVE",
"687 -215 CURVE SMOOTH",
"683 -218 OFFCURVE",
"681 -222 OFFCURVE",
"681 -225 CURVE SMOOTH",
"681 -228 OFFCURVE",
"684 -231 OFFCURVE",
"685 -231 CURVE SMOOTH"
);
}
);
width = 512;
}
);
note = Q;
unicode = 0051;
},
{
glyphname = R;
lastChange = "2021-10-20 21:03:02 +0000";
layers = (
{
layerId = "E1C4CDDB-EFDF-468A-8ACC-65E2DFDE53DF";
paths = (
{
closed = 1;
nodes = (
"561 -55 OFFCURVE",
"592 -26 OFFCURVE",
"623 14 CURVE SMOOTH",
"643 38 OFFCURVE",
"672 82 OFFCURVE",
"685 101 CURVE SMOOTH",
"688 106 OFFCURVE",
"687 111 OFFCURVE",
"685 111 CURVE SMOOTH",
"683 111 OFFCURVE",
"681 110 OFFCURVE",
"679 106 CURVE",
"675 101 OFFCURVE",
"666 87 OFFCURVE",
"653 69 CURVE SMOOTH",
"640 50 OFFCURVE",
"621 28 OFFCURVE",
"604 9 CURVE SMOOTH",
"583 -15 OFFCURVE",
"563 -25 OFFCURVE",
"545 -25 CURVE SMOOTH",
"510 -25 OFFCURVE",
"482 16 OFFCURVE",
"465 64 CURVE SMOOTH",
"447 117 OFFCURVE",
"431 207 OFFCURVE",
"431 267 CURVE",
"471 277 OFFCURVE",
"520 290 OFFCURVE",
"542 291 CURVE SMOOTH",
"611 297 OFFCURVE",
"744 350 OFFCURVE",
"744 431 CURVE SMOOTH",
"744 449 OFFCURVE",
"739 470 OFFCURVE",
"730 478 CURVE",
"715 539 OFFCURVE",
"651 561 OFFCURVE",
"597 569 CURVE",
"624 594 OFFCURVE",
"636 608 OFFCURVE",
"640 618 CURVE SMOOTH",
"641 621 OFFCURVE",
"642 624 OFFCURVE",
"642 628 CURVE SMOOTH",
"642 648 OFFCURVE",
"623 653 OFFCURVE",
"605 655 CURVE",
"596 650 OFFCURVE",
"592 645 OFFCURVE",
"583 640 CURVE",
"575 633 OFFCURVE",
"565 627 OFFCURVE",
"558 619 CURVE SMOOTH",
"546 608 OFFCURVE",
"540 599 OFFCURVE",
"540 590 CURVE SMOOTH",
"540 586 OFFCURVE",
"540 583 OFFCURVE",
"542 580 CURVE",
"533 572 LINE",
"507 574 OFFCURVE",
"479 575 OFFCURVE",
"452 575 CURVE SMOOTH",
"380 575 OFFCURVE",
"307 569 OFFCURVE",
"257 563 CURVE SMOOTH",
"118 547 OFFCURVE",
"-14 505 OFFCURVE",
"-14 456 CURVE SMOOTH",
"-14 440 OFFCURVE",
"14 402 OFFCURVE",
"35 388 CURVE SMOOTH",
"37 387 OFFCURVE",
"44 388 OFFCURVE",
"44 392 CURVE SMOOTH",
"44 393 OFFCURVE",
"43 395 OFFCURVE",
"42 396 CURVE SMOOTH",
"37 402 OFFCURVE",
"35 409 OFFCURVE",
"35 416 CURVE SMOOTH",
"35 432 OFFCURVE",
"45 449 OFFCURVE",
"57 459 CURVE SMOOTH",
"155 536 OFFCURVE",
"388 547 OFFCURVE",
"513 550 CURVE",
"396 438 OFFCURVE",
"241 219 OFFCURVE",
"241 109 CURVE SMOOTH",
"241 81 OFFCURVE",
"264 35 OFFCURVE",
"293 35 CURVE SMOOTH",
"296 35 OFFCURVE",
"299 36 OFFCURVE",
"301 37 CURVE",
"272 39 OFFCURVE",
"267 64 OFFCURVE",
"267 88 CURVE SMOOTH",
"267 223 OFFCURVE",
"462 438 OFFCURVE",
"548 526 CURVE SMOOTH",
"553 532 OFFCURVE",
"564 542 OFFCURVE",
"569 547 CURVE",
"642 541 OFFCURVE",
"716 521 OFFCURVE",
"716 471 CURVE SMOOTH",
"716 457 OFFCURVE",
"711 442 OFFCURVE",
"704 430 CURVE SMOOTH",
"635 316 OFFCURVE",
"516 293 OFFCURVE",
"402 274 CURVE SMOOTH",
"388 271 OFFCURVE",
"380 268 OFFCURVE",
"376 265 CURVE SMOOTH",
"375 264 OFFCURVE",
"369 260 OFFCURVE",
"369 254 CURVE SMOOTH",
"369 253 LINE SMOOTH",
"388 147 OFFCURVE",
"437 -55 OFFCURVE",
"521 -55 CURVE SMOOTH"
);
}
);
width = 637;
},
{
layerId = "10EE7422-BC27-45A8-8DF8-0D41623AEA15";
paths = (
{
closed = 1;
nodes = (
"563 -59 OFFCURVE",
"598 -29 OFFCURVE",
"629 12 CURVE SMOOTH",
"648 38 OFFCURVE",
"665 65 OFFCURVE",
"678 83 CURVE SMOOTH",
"696 111 OFFCURVE",
"705 137 OFFCURVE",
"698 137 CURVE SMOOTH",
"694 137 OFFCURVE",
"686 130 OFFCURVE",
"673 112 CURVE SMOOTH",
"665 102 OFFCURVE",
"635 55 OFFCURVE",
"600 16 CURVE SMOOTH",
"580 -6 OFFCURVE",
"563 -15 OFFCURVE",
"547 -15 CURVE SMOOTH",
"470 -15 OFFCURVE",
"441 215 OFFCURVE",
"441 269 CURVE SMOOTH",
"441 270 LINE",
"477 278 OFFCURVE",
"521 285 OFFCURVE",
"542 287 CURVE SMOOTH",
"608 292 OFFCURVE",
"749 334 OFFCURVE",
"749 420 CURVE SMOOTH",
"749 437 OFFCURVE",
"744 455 OFFCURVE",
"732 475 CURVE",
"721 477 OFFCURVE",
"743 502 OFFCURVE",
"696 530 CURVE SMOOTH",
"673 544 OFFCURVE",
"642 554 OFFCURVE",
"608 561 CURVE",
"628 578 OFFCURVE",
"645 595 OFFCURVE",
"650 607 CURVE SMOOTH",
"651 610 OFFCURVE",
"652 614 OFFCURVE",
"652 618 CURVE SMOOTH",
"652 641 OFFCURVE",
"604 655 OFFCURVE",
"586 655 CURVE",
"568 641 OFFCURVE",
"518 614 OFFCURVE",
"518 589 CURVE SMOOTH",
"518 584 OFFCURVE",
"520 579 OFFCURVE",
"524 575 CURVE",
"521 572 LINE",
"492 574 OFFCURVE",
"462 575 OFFCURVE",
"433 575 CURVE SMOOTH",
"367 575 OFFCURVE",
"304 571 OFFCURVE",
"256 565 CURVE SMOOTH",
"120 549 OFFCURVE",
"-19 507 OFFCURVE",
"-19 454 CURVE SMOOTH",
"-19 429 OFFCURVE",
"27 388 OFFCURVE",
"50 385 CURVE SMOOTH",
"57 384 OFFCURVE",
"61 385 OFFCURVE",
"61 388 CURVE SMOOTH",
"61 389 OFFCURVE",
"60 391 OFFCURVE",
"58 393 CURVE",
"48 393 OFFCURVE",
"39 399 OFFCURVE",
"39 406 CURVE SMOOTH",
"39 453 OFFCURVE",
"182 510 OFFCURVE",
"296 523 CURVE SMOOTH",
"326 527 OFFCURVE",
"406 536 OFFCURVE",
"489 538 CURVE",
"395 435 OFFCURVE",
"236 222 OFFCURVE",
"236 112 CURVE SMOOTH",
"236 84 OFFCURVE",
"259 34 OFFCURVE",
"293 34 CURVE SMOOTH",
"298 34 OFFCURVE",
"302 35 OFFCURVE",
"306 37 CURVE",
"306 45 LINE",
"277 45 OFFCURVE",
"272 66 OFFCURVE",
"272 91 CURVE SMOOTH",
"272 221 OFFCURVE",
"470 426 OFFCURVE",
"556 514 CURVE SMOOTH",
"562 520 OFFCURVE",
"570 528 OFFCURVE",
"580 536 CURVE",
"653 530 OFFCURVE",
"711 512 OFFCURVE",
"711 469 CURVE SMOOTH",
"711 456 OFFCURVE",
"706 442 OFFCURVE",
"699 431 CURVE SMOOTH",
"632 321 OFFCURVE",
"515 298 OFFCURVE",
"402 279 CURVE SMOOTH",
"373 274 OFFCURVE",
"366 266 OFFCURVE",
"371 260 CURVE",
"368 259 OFFCURVE",
"365 257 OFFCURVE",
"363 256 CURVE",
"382 156 OFFCURVE",
"431 -53 OFFCURVE",
"519 -57 CURVE SMOOTH"
);
}
);
width = 637;
}
);
note = R;
unicode = 0052;
},
{
glyphname = S;
lastChange = "2021-10-20 21:03:02 +0000";
layers = (
{
layerId = "E1C4CDDB-EFDF-468A-8ACC-65E2DFDE53DF";
paths = (
{
closed = 1;
nodes = (
"162 -25 OFFCURVE",
"194 -17 OFFCURVE",
"220 -3 CURVE SMOOTH",
"262 21 OFFCURVE",
"297 62 OFFCURVE",
"297 110 CURVE SMOOTH",
"297 139 OFFCURVE",
"286 160 OFFCURVE",
"269 178 CURVE SMOOTH",
"220 229 OFFCURVE",
"146 254 OFFCURVE",
"146 340 CURVE SMOOTH",
"146 474 OFFCURVE",
"292 602 OFFCURVE",
"419 602 CURVE SMOOTH",
"445 602 OFFCURVE",
"485 589 OFFCURVE",
"498 570 CURVE SMOOTH",
"502 565 OFFCURVE",
"503 560 OFFCURVE",
"503 554 CURVE SMOOTH",
"503 537 OFFCURVE",
"489 519 OFFCURVE",
"475 511 CURVE SMOOTH",
"470 508 OFFCURVE",
"476 506 OFFCURVE",
"476 506 CURVE",
"501 518 OFFCURVE",
"519 545 OFFCURVE",
"519 570 CURVE SMOOTH",
"519 587 OFFCURVE",
"512 602 OFFCURVE",
"496 614 CURVE SMOOTH",
"475 629 OFFCURVE",
"435 636 OFFCURVE",
"407 636 CURVE SMOOTH",
"277 636 OFFCURVE",
"94 494 OFFCURVE",
"94 354 CURVE SMOOTH",
"94 319 OFFCURVE",
"108 291 OFFCURVE",
"129 267 CURVE SMOOTH",
"163 228 OFFCURVE",
"209 200 OFFCURVE",
"248 166 CURVE SMOOTH",
"263 153 OFFCURVE",
"275 140 OFFCURVE",
"282 127 CURVE SMOOTH",
"285 121 OFFCURVE",
"287 114 OFFCURVE",
"287 108 CURVE SMOOTH",
"287 83 OFFCURVE",
"266 56 OFFCURVE",
"227 34 CURVE SMOOTH",
"206 22 OFFCURVE",
"172 14 OFFCURVE",
"138 14 CURVE SMOOTH",
"85 14 OFFCURVE",
"34 34 OFFCURVE",
"34 89 CURVE SMOOTH",
"34 101 OFFCURVE",
"37 112 OFFCURVE",
"44 120 CURVE SMOOTH",
"46 123 OFFCURVE",
"49 131 OFFCURVE",
"40 122 CURVE",
"33 117 OFFCURVE",
"26 107 OFFCURVE",
"22 92 CURVE SMOOTH",
"19 81 OFFCURVE",
"17 70 OFFCURVE",
"17 60 CURVE SMOOTH",
"17 2 OFFCURVE",
"73 -25 OFFCURVE",
"132 -25 CURVE SMOOTH"
);
}
);
width = 307;
},
{
layerId = "10EE7422-BC27-45A8-8DF8-0D41623AEA15";
paths = (
{
closed = 1;
nodes = (
"163 -25 OFFCURVE",
"197 -17 OFFCURVE",
"222 -3 CURVE SMOOTH",
"265 21 OFFCURVE",
"302 63 OFFCURVE",
"302 113 CURVE SMOOTH",
"302 174 OFFCURVE",
"253 200 OFFCURVE",
"212 232 CURVE SMOOTH",
"178 259 OFFCURVE",
"153 290 OFFCURVE",
"154 339 CURVE SMOOTH",
"159 466 OFFCURVE",
"300 587 OFFCURVE",
"422 587 CURVE SMOOTH",
"452 587 OFFCURVE",
"498 578 OFFCURVE",
"498 551 CURVE SMOOTH",
"498 543 OFFCURVE",
"495 535 OFFCURVE",
"487 525 CURVE SMOOTH",
"482 519 OFFCURVE",
"476 513 OFFCURVE",
"467 509 CURVE SMOOTH",
"465 508 OFFCURVE",
"470 500 OFFCURVE",
"473 500 CURVE SMOOTH",
"480 500 OFFCURVE",
"491 507 OFFCURVE",
"500 516 CURVE SMOOTH",
"517 534 OFFCURVE",
"524 552 OFFCURVE",
"524 568 CURVE SMOOTH",
"524 586 OFFCURVE",
"515 602 OFFCURVE",
"499 613 CURVE SMOOTH",
"476 630 OFFCURVE",
"436 636 OFFCURVE",
"407 636 CURVE SMOOTH",
"275 636 OFFCURVE",
"89 494 OFFCURVE",
"89 353 CURVE SMOOTH",
"89 284 OFFCURVE",
"145 241 OFFCURVE",
"194 204 CURVE SMOOTH",
"240 169 OFFCURVE",
"283 139 OFFCURVE",
"283 109 CURVE SMOOTH",
"283 91 OFFCURVE",
"269 73 OFFCURVE",
"232 53 CURVE SMOOTH",
"209 40 OFFCURVE",
"167 29 OFFCURVE",
"127 29 CURVE SMOOTH",
"89 29 OFFCURVE",
"53 40 OFFCURVE",
"41 72 CURVE SMOOTH",
"40 76 OFFCURVE",
"39 85 OFFCURVE",
"39 93 CURVE SMOOTH",
"39 103 OFFCURVE",
"40 112 OFFCURVE",
"43 116 CURVE SMOOTH",
"47 120 OFFCURVE",
"50 127 OFFCURVE",
"50 131 CURVE SMOOTH",
"50 133 OFFCURVE",
"49 135 OFFCURVE",
"47 135 CURVE SMOOTH",
"44 135 OFFCURVE",
"41 133 OFFCURVE",
"36 129 CURVE SMOOTH",
"29 123 OFFCURVE",
"21 112 OFFCURVE",
"17 97 CURVE SMOOTH",
"13 85 OFFCURVE",
"12 73 OFFCURVE",
"12 63 CURVE SMOOTH",
"12 1 OFFCURVE",
"70 -25 OFFCURVE",
"131 -25 CURVE SMOOTH"
);
}
);
width = 307;
}
);
note = S;
unicode = 0053;
},
{
color = 0;
glyphname = Schwa;
lastChange = "2021-10-20 21:03:00 +0000";
layers = (
{
layerId = "E1C4CDDB-EFDF-468A-8ACC-65E2DFDE53DF";
paths = (
{
closed = 1;
nodes = (
"324 -9 OFFCURVE",
"504 222 OFFCURVE",
"504 400 CURVE SMOOTH",
"504 486 OFFCURVE",
"463 552 OFFCURVE",
"352 552 CURVE SMOOTH",
"264 552 OFFCURVE",
"121 476 OFFCURVE",
"121 372 CURVE SMOOTH",
"121 358 OFFCURVE",
"125 347 OFFCURVE",
"133 342 CURVE",
"176 452 OFFCURVE",
"257 529 OFFCURVE",
"345 529 CURVE SMOOTH",
"419 529 OFFCURVE",
"441 484 OFFCURVE",
"441 420 CURVE SMOOTH",
"441 277 OFFCURVE",
"306 16 OFFCURVE",
"130 16 CURVE SMOOTH",
"92 16 OFFCURVE",
"75 40 OFFCURVE",
"75 71 CURVE SMOOTH",
"75 181 OFFCURVE",
"222 241 OFFCURVE",
"376 264 CURVE SMOOTH",
"394 267 OFFCURVE",
"411 261 OFFCURVE",
"426 261 CURVE SMOOTH",
"431 261 OFFCURVE",
"436 262 OFFCURVE",
"441 264 CURVE SMOOTH",
"452 270 OFFCURVE",
"454 275 OFFCURVE",
"454 280 CURVE SMOOTH",
"454 284 OFFCURVE",
"452 288 OFFCURVE",
"452 290 CURVE SMOOTH",
"452 292 OFFCURVE",
"448 293 OFFCURVE",
"440 293 CURVE SMOOTH",
"430 293 OFFCURVE",
"415 292 OFFCURVE",
"396 290 CURVE SMOOTH",
"221 277 OFFCURVE",
"22 209 OFFCURVE",
"22 79 CURVE SMOOTH",
"22 32 OFFCURVE",
"67 -9 OFFCURVE",
"144 -9 CURVE SMOOTH"
);
}
);
width = 524;
},
{
layerId = "10EE7422-BC27-45A8-8DF8-0D41623AEA15";
paths = (
{
closed = 1;
nodes = (
"324 -9 OFFCURVE",
"504 222 OFFCURVE",
"504 400 CURVE SMOOTH",
"504 486 OFFCURVE",
"463 552 OFFCURVE",
"352 552 CURVE SMOOTH",
"264 552 OFFCURVE",
"121 476 OFFCURVE",
"121 372 CURVE SMOOTH",
"121 358 OFFCURVE",
"125 347 OFFCURVE",
"133 342 CURVE",
"176 452 OFFCURVE",
"257 529 OFFCURVE",
"345 529 CURVE SMOOTH",
"419 529 OFFCURVE",
"441 484 OFFCURVE",
"441 420 CURVE SMOOTH",
"441 277 OFFCURVE",
"306 16 OFFCURVE",
"130 16 CURVE SMOOTH",
"92 16 OFFCURVE",
"75 40 OFFCURVE",
"75 71 CURVE SMOOTH",
"75 181 OFFCURVE",
"222 241 OFFCURVE",
"376 264 CURVE SMOOTH",
"394 267 OFFCURVE",
"411 261 OFFCURVE",
"426 261 CURVE SMOOTH",
"431 261 OFFCURVE",
"436 262 OFFCURVE",
"441 264 CURVE SMOOTH",
"452 270 OFFCURVE",
"454 275 OFFCURVE",
"454 280 CURVE SMOOTH",
"454 284 OFFCURVE",
"452 288 OFFCURVE",
"452 290 CURVE SMOOTH",
"452 292 OFFCURVE",
"448 293 OFFCURVE",
"440 293 CURVE SMOOTH",
"430 293 OFFCURVE",
"415 292 OFFCURVE",
"396 290 CURVE SMOOTH",
"221 277 OFFCURVE",
"22 209 OFFCURVE",
"22 79 CURVE SMOOTH",
"22 32 OFFCURVE",
"67 -9 OFFCURVE",
"144 -9 CURVE SMOOTH"
);
}
);
width = 524;
}
);
unicode = 018F;
},
{
glyphname = T;
lastChange = "2021-10-20 21:03:02 +0000";
layers = (
{
layerId = "E1C4CDDB-EFDF-468A-8ACC-65E2DFDE53DF";
paths = (
{
closed = 1;
nodes = (
"394 -72 OFFCURVE",
"398 -71 OFFCURVE",
"398 -69 CURVE",
"398 -69 OFFCURVE",
"397 -68 OFFCURVE",
"394 -67 CURVE SMOOTH",
"371 -61 OFFCURVE",
"364 -41 OFFCURVE",
"364 -19 CURVE SMOOTH",
"364 115 OFFCURVE",
"553 327 OFFCURVE",
"638 415 CURVE SMOOTH",
"643 420 OFFCURVE",
"651 428 OFFCURVE",
"660 436 CURVE SMOOTH",
"669 444 OFFCURVE",
"680 452 OFFCURVE",
"689 461 CURVE SMOOTH",
"702 473 OFFCURVE",
"732 497 OFFCURVE",
"732 517 CURVE SMOOTH",
"732 537 OFFCURVE",
"702 546 OFFCURVE",
"684 547 CURVE",
"667 535 OFFCURVE",
"622 510 OFFCURVE",
"622 486 CURVE SMOOTH",
"622 481 OFFCURVE",
"624 476 OFFCURVE",
"628 471 CURVE",
"544 390 OFFCURVE",
"338 122 OFFCURVE",
"338 -4 CURVE SMOOTH",
"338 -32 OFFCURVE",
"351 -72 OFFCURVE",
"390 -72 CURVE SMOOTH"
);
},
{
closed = 1;
nodes = (
"881 399 OFFCURVE",
"884 400 OFFCURVE",
"886 401 CURVE SMOOTH",
"892 405 OFFCURVE",
"908 422 OFFCURVE",
"915 425 CURVE SMOOTH",
"937 434 LINE SMOOTH",
"963 444 OFFCURVE",
"971 460 OFFCURVE",
"971 476 CURVE SMOOTH",
"971 498 OFFCURVE",
"957 521 OFFCURVE",
"951 532 CURVE",
"955 561 OFFCURVE",
"942 577 OFFCURVE",
"924 586 CURVE SMOOTH",
"906 596 OFFCURVE",
"884 599 OFFCURVE",
"864 602 CURVE SMOOTH",
"839 606 OFFCURVE",
"814 608 OFFCURVE",
"789 608 CURVE SMOOTH",
"585 608 OFFCURVE",
"357 485 OFFCURVE",
"158 485 CURVE SMOOTH",
"100 485 OFFCURVE",
"59 496 OFFCURVE",
"59 516 CURVE SMOOTH",
"59 562 OFFCURVE",
"250 629 OFFCURVE",
"306 639 CURVE SMOOTH",
"318 641 OFFCURVE",
"322 643 OFFCURVE",
"322 645 CURVE SMOOTH",
"322 647 OFFCURVE",
"313 649 OFFCURVE",
"306 649 CURVE SMOOTH",
"303 649 LINE SMOOTH",
"222 637 OFFCURVE",
"38 566 OFFCURVE",
"38 519 CURVE SMOOTH",
"38 472 OFFCURVE",
"69 432 OFFCURVE",
"123 437 CURVE SMOOTH",
"354 457 OFFCURVE",
"551 576 OFFCURVE",
"787 576 CURVE SMOOTH",
"832 576 OFFCURVE",
"944 567 OFFCURVE",
"944 504 CURVE SMOOTH",
"944 463 OFFCURVE",
"910 427 OFFCURVE",
"881 408 CURVE SMOOTH",
"876 405 OFFCURVE",
"874 403 OFFCURVE",
"874 401 CURVE SMOOTH",
"874 400 OFFCURVE",
"876 399 OFFCURVE",
"878 399 CURVE SMOOTH"
);
}
);
width = 509;
},
{
layerId = "10EE7422-BC27-45A8-8DF8-0D41623AEA15";
paths = (
{
closed = 1;
nodes = (
"395 -72 OFFCURVE",
"399 -71 OFFCURVE",
"403 -69 CURVE",
"403 -61 LINE",
"374 -61 OFFCURVE",
"369 -40 OFFCURVE",
"369 -15 CURVE SMOOTH",
"369 115 OFFCURVE",
"567 320 OFFCURVE",
"653 408 CURVE SMOOTH",
"674 429 OFFCURVE",
"738 477 OFFCURVE",
"747 500 CURVE SMOOTH",
"748 504 OFFCURVE",
"749 508 OFFCURVE",
"749 512 CURVE SMOOTH",
"749 535 OFFCURVE",
"701 548 OFFCURVE",
"683 549 CURVE",
"665 534 OFFCURVE",
"615 507 OFFCURVE",
"615 483 CURVE SMOOTH",
"615 478 OFFCURVE",
"617 473 OFFCURVE",
"621 469 CURVE",
"540 392 OFFCURVE",
"333 132 OFFCURVE",
"333 6 CURVE SMOOTH",
"333 -23 OFFCURVE",
"356 -72 OFFCURVE",
"390 -72 CURVE SMOOTH"
);
},
{
closed = 1;
nodes = (
"894 399 OFFCURVE",
"905 413 OFFCURVE",
"917 418 CURVE SMOOTH",
"946 431 OFFCURVE",
"976 436 OFFCURVE",
"982 468 CURVE SMOOTH",
"983 472 OFFCURVE",
"983 476 OFFCURVE",
"983 480 CURVE SMOOTH",
"983 495 OFFCURVE",
"975 505 OFFCURVE",
"960 535 CURVE",
"968 595 OFFCURVE",
"903 602 OFFCURVE",
"869 608 CURVE SMOOTH",
"851 611 OFFCURVE",
"831 612 OFFCURVE",
"809 612 CURVE SMOOTH",
"665 612 OFFCURVE",
"460 550 OFFCURVE",
"381 532 CURVE SMOOTH",
"347 524 OFFCURVE",
"255 502 OFFCURVE",
"186 498 CURVE SMOOTH",
"122 495 OFFCURVE",
"72 501 OFFCURVE",
"72 519 CURVE SMOOTH",
"72 532 OFFCURVE",
"98 552 OFFCURVE",
"163 578 CURVE SMOOTH",
"214 598 OFFCURVE",
"264 615 OFFCURVE",
"329 637 CURVE",
"326 645 OFFCURVE",
"314 647 OFFCURVE",
"299 647 CURVE SMOOTH",
"291 647 OFFCURVE",
"281 646 OFFCURVE",
"272 645 CURVE SMOOTH",
"192 634 OFFCURVE",
"33 567 OFFCURVE",
"33 516 CURVE SMOOTH",
"33 469 OFFCURVE",
"54 415 OFFCURVE",
"113 420 CURVE SMOOTH",
"325 438 OFFCURVE",
"553 567 OFFCURVE",
"787 567 CURVE SMOOTH",
"830 567 OFFCURVE",
"939 561 OFFCURVE",
"939 501 CURVE SMOOTH",
"939 463 OFFCURVE",
"907 429 OFFCURVE",
"878 411 CURVE",
"873 407 OFFCURVE",
"871 404 OFFCURVE",
"871 401 CURVE SMOOTH",
"871 397 OFFCURVE",
"873 394 OFFCURVE",
"875 395 CURVE"
);
}
);
width = 509;
}
);
note = T;
unicode = 0054;
},
{
glyphname = U;
lastChange = "2021-10-20 21:03:02 +0000";
layers = (
{
layerId = "E1C4CDDB-EFDF-468A-8ACC-65E2DFDE53DF";
paths = (
{
closed = 1;
nodes = (
"276 -22 OFFCURVE",
"304 -6 OFFCURVE",
"325 10 CURVE SMOOTH",
"406 70 OFFCURVE",
"598 276 OFFCURVE",
"673 374 CURVE SMOOTH",
"680 384 OFFCURVE",
"671 381 OFFCURVE",
"669 379 CURVE SMOOTH",
"616 319 OFFCURVE",
"550 252 OFFCURVE",
"493 196 CURVE SMOOTH",
"441 143 OFFCURVE",
"392 86 OFFCURVE",
"335 38 CURVE SMOOTH",
"316 22 OFFCURVE",
"280 -7 OFFCURVE",
"255 -7 CURVE SMOOTH",
"238 -7 OFFCURVE",
"224 7 OFFCURVE",
"224 35 CURVE SMOOTH",
"224 39 OFFCURVE",
"225 43 OFFCURVE",
"225 47 CURVE SMOOTH",
"241 197 OFFCURVE",
"383 333 OFFCURVE",
"493 460 CURVE SMOOTH",
"525 496 OFFCURVE",
"547 528 OFFCURVE",
"547 558 CURVE SMOOTH",
"547 592 OFFCURVE",
"496 607 OFFCURVE",
"466 607 CURVE SMOOTH",
"394 607 OFFCURVE",
"220 508 OFFCURVE",
"179 481 CURVE SMOOTH",
"82 417 OFFCURVE",
"11 341 OFFCURVE",
"4 271 CURVE SMOOTH",
"2 252 OFFCURVE",
"16 214 OFFCURVE",
"29 197 CURVE SMOOTH",
"31 195 OFFCURVE",
"36 191 OFFCURVE",
"39 191 CURVE SMOOTH",
"40 191 OFFCURVE",
"40 191 OFFCURVE",
"40 192 CURVE SMOOTH",
"40 194 OFFCURVE",
"39 196 OFFCURVE",
"37 200 CURVE SMOOTH",
"31 211 OFFCURVE",
"28 223 OFFCURVE",
"28 236 CURVE SMOOTH",
"28 310 OFFCURVE",
"121 410 OFFCURVE",
"209 468 CURVE SMOOTH",
"277 513 OFFCURVE",
"360 563 OFFCURVE",
"434 580 CURVE SMOOTH",
"444 582 OFFCURVE",
"459 586 OFFCURVE",
"471 586 CURVE SMOOTH",
"483 586 OFFCURVE",
"493 582 OFFCURVE",
"493 570 CURVE SMOOTH",
"493 567 OFFCURVE",
"493 563 OFFCURVE",
"491 558 CURVE SMOOTH",
"486 544 OFFCURVE",
"476 526 OFFCURVE",
"462 504 CURVE SMOOTH",
"397 402 OFFCURVE",
"315 310 OFFCURVE",
"248 209 CURVE SMOOTH",
"210 152 OFFCURVE",
"178 93 OFFCURVE",
"178 52 CURVE SMOOTH",
"178 16 OFFCURVE",
"214 -22 OFFCURVE",
"252 -22 CURVE SMOOTH"
);
},
{
closed = 1;
nodes = (
"505 -125 OFFCURVE",
"508 -123 OFFCURVE",
"508 -122 CURVE SMOOTH",
"508 -121 OFFCURVE",
"507 -120 OFFCURVE",
"505 -120 CURVE",
"481 -114 OFFCURVE",
"474 -94 OFFCURVE",
"474 -72 CURVE SMOOTH",
"474 62 OFFCURVE",
"663 274 OFFCURVE",
"748 362 CURVE SMOOTH",
"753 368 OFFCURVE",
"761 375 OFFCURVE",
"770 383 CURVE SMOOTH",
"800 409 LINE SMOOTH",
"812 420 OFFCURVE",
"842 445 OFFCURVE",
"842 464 CURVE SMOOTH",
"842 485 OFFCURVE",
"812 494 OFFCURVE",
"794 495 CURVE",
"778 483 OFFCURVE",
"732 458 OFFCURVE",
"732 433 CURVE SMOOTH",
"732 428 OFFCURVE",
"734 424 OFFCURVE",
"738 419 CURVE",
"654 337 OFFCURVE",
"449 69 OFFCURVE",
"449 -56 CURVE SMOOTH",
"449 -84 OFFCURVE",
"462 -125 OFFCURVE",
"500 -125 CURVE SMOOTH"
);
}
);
width = 594;
},
{
layerId = "10EE7422-BC27-45A8-8DF8-0D41623AEA15";
paths = (
{
closed = 1;
nodes = (
"278 -24 OFFCURVE",
"307 -7 OFFCURVE",
"328 9 CURVE SMOOTH",
"418 75 OFFCURVE",
"640 321 OFFCURVE",
"691 399 CURVE SMOOTH",
"695 404 OFFCURVE",
"685 402 OFFCURVE",
"682 398 CURVE SMOOTH",
"622 329 OFFCURVE",
"555 264 OFFCURVE",
"490 200 CURVE SMOOTH",
"437 148 OFFCURVE",
"389 92 OFFCURVE",
"332 45 CURVE SMOOTH",
"312 29 OFFCURVE",
"275 0 OFFCURVE",
"252 0 CURVE SMOOTH",
"239 0 OFFCURVE",
"231 8 OFFCURVE",
"231 30 CURVE SMOOTH",
"231 34 OFFCURVE",
"232 38 OFFCURVE",
"232 42 CURVE SMOOTH",
"258 284 OFFCURVE",
"541 426 OFFCURVE",
"559 543 CURVE SMOOTH",
"565 583 OFFCURVE",
"488 607 OFFCURVE",
"454 607 CURVE SMOOTH",
"400 607 OFFCURVE",
"216 509 OFFCURVE",
"176 482 CURVE SMOOTH",
"79 418 OFFCURVE",
"7 342 OFFCURVE",
"-1 271 CURVE SMOOTH",
"-4 245 OFFCURVE",
"26 186 OFFCURVE",
"40 186 CURVE SMOOTH",
"43 186 OFFCURVE",
"45 188 OFFCURVE",
"45 191 CURVE SMOOTH",
"45 193 OFFCURVE",
"44 195 OFFCURVE",
"42 197 CURVE SMOOTH",
"34 206 OFFCURVE",
"31 217 OFFCURVE",
"31 229 CURVE SMOOTH",
"31 305 OFFCURVE",
"174 428 OFFCURVE",
"225 462 CURVE SMOOTH",
"307 515 OFFCURVE",
"417 575 OFFCURVE",
"477 575 CURVE SMOOTH",
"485 575 OFFCURVE",
"489 573 OFFCURVE",
"489 566 CURVE SMOOTH",
"489 537 OFFCURVE",
"416 441 OFFCURVE",
"351 356 CURVE SMOOTH",
"294 282 OFFCURVE",
"182 145 OFFCURVE",
"173 60 CURVE SMOOTH",
"168 20 OFFCURVE",
"209 -24 OFFCURVE",
"252 -24 CURVE SMOOTH"
);
},
{
closed = 1;
nodes = (
"505 -124 OFFCURVE",
"509 -123 OFFCURVE",
"513 -121 CURVE",
"513 -113 LINE",
"484 -113 OFFCURVE",
"478 -92 OFFCURVE",
"478 -67 CURVE SMOOTH",
"478 63 OFFCURVE",
"677 268 OFFCURVE",
"763 356 CURVE SMOOTH",
"784 377 OFFCURVE",
"848 425 OFFCURVE",
"856 448 CURVE SMOOTH",
"858 452 OFFCURVE",
"859 456 OFFCURVE",
"859 460 CURVE SMOOTH",
"859 483 OFFCURVE",
"811 496 OFFCURVE",
"793 497 CURVE",
"775 482 OFFCURVE",
"725 455 OFFCURVE",
"725 431 CURVE SMOOTH",
"725 426 OFFCURVE",
"727 421 OFFCURVE",
"731 417 CURVE",
"650 340 OFFCURVE",
"443 80 OFFCURVE",
"443 -46 CURVE SMOOTH",
"443 -75 OFFCURVE",
"466 -124 OFFCURVE",
"500 -124 CURVE SMOOTH"
);
}
);
width = 594;
}
);
note = U;
unicode = 0055;
},
{
glyphname = V;
lastChange = "2021-10-20 21:03:02 +0000";
layers = (
{
layerId = "E1C4CDDB-EFDF-468A-8ACC-65E2DFDE53DF";
paths = (
{
closed = 1;
nodes = (
"80 -38 OFFCURVE",
"99 -14 OFFCURVE",
"115 6 CURVE SMOOTH",
"257 187 OFFCURVE",
"556 622 OFFCURVE",
"773 622 CURVE SMOOTH",
"809 622 OFFCURVE",
"873 611 OFFCURVE",
"884 567 CURVE SMOOTH",
"886 561 OFFCURVE",
"893 560 OFFCURVE",
"893 566 CURVE SMOOTH",
"893 567 OFFCURVE",
"892 568 OFFCURVE",
"892 569 CURVE",
"875 630 OFFCURVE",
"796 659 OFFCURVE",
"738 659 CURVE SMOOTH",
"642 659 OFFCURVE",
"561 600 OFFCURVE",
"492 523 CURVE SMOOTH",
"359 377 OFFCURVE",
"256 202 OFFCURVE",
"125 52 CURVE SMOOTH",
"105 30 OFFCURVE",
"100 31 OFFCURVE",
"94 28 CURVE SMOOTH",
"88 26 OFFCURVE",
"86 29 OFFCURVE",
"86 35 CURVE SMOOTH",
"86 44 OFFCURVE",
"90 57 OFFCURVE",
"92 61 CURVE SMOOTH",
"112 113 OFFCURVE",
"158 219 OFFCURVE",
"187 309 CURVE SMOOTH",
"211 383 OFFCURVE",
"229 457 OFFCURVE",
"229 511 CURVE SMOOTH",
"229 523 OFFCURVE",
"228 533 OFFCURVE",
"226 543 CURVE SMOOTH",
"223 557 OFFCURVE",
"218 569 OFFCURVE",
"206 578 CURVE SMOOTH",
"195 586 OFFCURVE",
"151 610 OFFCURVE",
"140 610 CURVE SMOOTH",
"131 610 OFFCURVE",
"123 601 OFFCURVE",
"118 586 CURVE SMOOTH",
"112 571 OFFCURVE",
"108 554 OFFCURVE",
"105 544 CURVE SMOOTH",
"104 540 OFFCURVE",
"102 536 OFFCURVE",
"101 533 CURVE",
"100 523 OFFCURVE",
"107 527 OFFCURVE",
"109 532 CURVE SMOOTH",
"126 568 OFFCURVE",
"144 585 OFFCURVE",
"167 585 CURVE SMOOTH",
"191 585 OFFCURVE",
"196 553 OFFCURVE",
"196 530 CURVE SMOOTH",
"196 524 OFFCURVE",
"195 518 OFFCURVE",
"195 514 CURVE SMOOTH",
"180 380 OFFCURVE",
"123 221 OFFCURVE",
"65 107 CURVE SMOOTH",
"50 79 OFFCURVE",
"35 51 OFFCURVE",
"23 22 CURVE SMOOTH",
"19 13 OFFCURVE",
"16 4 OFFCURVE",
"16 -6 CURVE SMOOTH",
"16 -9 OFFCURVE",
"16 -12 OFFCURVE",
"17 -15 CURVE SMOOTH",
"23 -48 OFFCURVE",
"40 -50 OFFCURVE",
"50 -51 CURVE SMOOTH",
"57 -52 OFFCURVE",
"65 -54 OFFCURVE",
"72 -57 CURVE"
);
}
);
width = 289;
},
{
layerId = "10EE7422-BC27-45A8-8DF8-0D41623AEA15";
paths = (
{
closed = 1;
nodes = (
"91 -37 OFFCURVE",
"101 -15 OFFCURVE",
"119 6 CURVE SMOOTH",
"179 78 OFFCURVE",
"237 150 OFFCURVE",
"295 223 CURVE SMOOTH",
"408 366 OFFCURVE",
"576 584 OFFCURVE",
"753 608 CURVE SMOOTH",
"767 610 OFFCURVE",
"781 611 OFFCURVE",
"795 611 CURVE SMOOTH",
"833 611 OFFCURVE",
"880 602 OFFCURVE",
"885 553 CURVE",
"886 550 OFFCURVE",
"889 545 OFFCURVE",
"893 545 CURVE SMOOTH",
"897 545 OFFCURVE",
"898 549 OFFCURVE",
"898 552 CURVE SMOOTH",
"889 626 OFFCURVE",
"800 659 OFFCURVE",
"738 659 CURVE SMOOTH",
"541 659 OFFCURVE",
"411 422 OFFCURVE",
"310 287 CURVE SMOOTH",
"289 260 OFFCURVE",
"128 50 OFFCURVE",
"103 50 CURVE SMOOTH",
"100 50 OFFCURVE",
"100 52 OFFCURVE",
"100 54 CURVE",
"98 62 OFFCURVE",
"104 74 OFFCURVE",
"106 80 CURVE SMOOTH",
"142 173 OFFCURVE",
"233 386 OFFCURVE",
"233 507 CURVE SMOOTH",
"233 519 OFFCURVE",
"232 531 OFFCURVE",
"230 541 CURVE SMOOTH",
"228 555 OFFCURVE",
"223 568 OFFCURVE",
"209 578 CURVE SMOOTH",
"198 586 OFFCURVE",
"153 611 OFFCURVE",
"140 611 CURVE SMOOTH",
"114 611 OFFCURVE",
"107 562 OFFCURVE",
"100 542 CURVE SMOOTH",
"98 533 OFFCURVE",
"94 528 OFFCURVE",
"94 518 CURVE SMOOTH",
"94 513 OFFCURVE",
"99 517 OFFCURVE",
"103 523 CURVE SMOOTH",
"115 543 OFFCURVE",
"140 577 OFFCURVE",
"167 577 CURVE SMOOTH",
"187 577 OFFCURVE",
"191 551 OFFCURVE",
"191 531 CURVE SMOOTH",
"191 523 OFFCURVE",
"191 517 OFFCURVE",
"190 512 CURVE SMOOTH",
"175 381 OFFCURVE",
"100 223 OFFCURVE",
"42 111 CURVE SMOOTH",
"28 83 OFFCURVE",
"13 55 OFFCURVE",
"0 26 CURVE SMOOTH",
"-4 17 OFFCURVE",
"-7 7 OFFCURVE",
"-7 -3 CURVE SMOOTH",
"-7 -6 OFFCURVE",
"-7 -10 OFFCURVE",
"-6 -13 CURVE SMOOTH",
"4 -62 OFFCURVE",
"43 -43 OFFCURVE",
"74 -58 CURVE"
);
}
);
width = 289;
}
);
note = V;
unicode = 0056;
},
{
glyphname = W;
lastChange = "2021-10-20 21:03:00 +0000";
layers = (
{
layerId = "E1C4CDDB-EFDF-468A-8ACC-65E2DFDE53DF";
paths = (
{
closed = 1;
nodes = (
"291 -29 OFFCURVE",
"322 -11 OFFCURVE",
"345 8 CURVE SMOOTH",
"390 48 OFFCURVE",
"435 96 OFFCURVE",
"478 145 CURVE SMOOTH",
"521 195 OFFCURVE",
"563 246 OFFCURVE",
"617 313 CURVE",
"601 258 OFFCURVE",
"597 225 OFFCURVE",
"597 192 CURVE SMOOTH",
"597 136 OFFCURVE",
"610 77 OFFCURVE",
"648 36 CURVE SMOOTH",
"682 0 OFFCURVE",
"731 -24 OFFCURVE",
"781 -24 CURVE SMOOTH",
"884 -24 OFFCURVE",
"929 66 OFFCURVE",
"929 163 CURVE SMOOTH",
"929 175 OFFCURVE",
"928 186 OFFCURVE",
"927 198 CURVE SMOOTH",
"925 225 OFFCURVE",
"911 259 OFFCURVE",
"893 292 CURVE SMOOTH",
"876 326 OFFCURVE",
"856 358 OFFCURVE",
"842 383 CURVE SMOOTH",
"833 399 OFFCURVE",
"826 416 OFFCURVE",
"817 432 CURVE SMOOTH",
"815 436 OFFCURVE",
"812 438 OFFCURVE",
"811 438 CURVE SMOOTH",
"810 438 OFFCURVE",
"809 437 OFFCURVE",
"809 436 CURVE SMOOTH",
"809 435 OFFCURVE",
"809 433 OFFCURVE",
"810 431 CURVE SMOOTH",
"845 349 OFFCURVE",
"874 229 OFFCURVE",
"874 145 CURVE SMOOTH",
"874 79 OFFCURVE",
"854 -5 OFFCURVE",
"771 -5 CURVE SMOOTH",
"666 -5 OFFCURVE",
"628 134 OFFCURVE",
"628 217 CURVE SMOOTH",
"628 270 OFFCURVE",
"639 317 OFFCURVE",
"674 357 CURVE SMOOTH",
"679 363 OFFCURVE",
"682 367 OFFCURVE",
"682 373 CURVE SMOOTH",
"682 381 OFFCURVE",
"675 388 OFFCURVE",
"666 388 CURVE SMOOTH",
"647 388 OFFCURVE",
"613 357 OFFCURVE",
"613 336 CURVE SMOOTH",
"613 334 OFFCURVE",
"614 334 OFFCURVE",
"619 330 CURVE",
"539 247 OFFCURVE",
"464 159 OFFCURVE",
"379 77 CURVE SMOOTH",
"364 63 OFFCURVE",
"286 -7 OFFCURVE",
"246 -7 CURVE SMOOTH",
"232 -7 OFFCURVE",
"222 2 OFFCURVE",
"222 26 CURVE SMOOTH",
"222 32 OFFCURVE",
"222 40 OFFCURVE",
"224 49 CURVE SMOOTH",
"257 234 OFFCURVE",
"381 331 OFFCURVE",
"499 468 CURVE SMOOTH",
"518 491 OFFCURVE",
"553 522 OFFCURVE",
"553 550 CURVE SMOOTH",
"553 562 OFFCURVE",
"547 573 OFFCURVE",
"532 583 CURVE SMOOTH",
"509 598 OFFCURVE",
"474 607 OFFCURVE",
"454 607 CURVE SMOOTH",
"404 607 OFFCURVE",
"228 514 OFFCURVE",
"179 481 CURVE SMOOTH",
"110 435 OFFCURVE",
"4 347 OFFCURVE",
"4 267 CURVE SMOOTH",
"4 255 OFFCURVE",
"15 214 OFFCURVE",
"28 197 CURVE SMOOTH",
"30 194 OFFCURVE",
"34 191 OFFCURVE",
"36 191 CURVE SMOOTH",
"37 191 OFFCURVE",
"37 191 OFFCURVE",
"37 192 CURVE SMOOTH",
"37 193 OFFCURVE",
"36 195 OFFCURVE",
"34 199 CURVE SMOOTH",
"30 206 OFFCURVE",
"26 214 OFFCURVE",
"26 227 CURVE SMOOTH",
"26 305 OFFCURVE",
"104 390 OFFCURVE",
"222 469 CURVE SMOOTH",
"280 507 OFFCURVE",
"408 585 OFFCURVE",
"480 585 CURVE SMOOTH",
"487 585 OFFCURVE",
"493 580 OFFCURVE",
"493 572 CURVE SMOOTH",
"493 555 OFFCURVE",
"472 522 OFFCURVE",
"443 483 CURVE SMOOTH",
"413 442 OFFCURVE",
"373 391 OFFCURVE",
"334 339 CURVE SMOOTH",
"255 232 OFFCURVE",
"177 118 OFFCURVE",
"177 49 CURVE SMOOTH",
"177 8 OFFCURVE",
"221 -29 OFFCURVE",
"261 -29 CURVE SMOOTH"
);
}
);
width = 916;
},
{
layerId = "10EE7422-BC27-45A8-8DF8-0D41623AEA15";
paths = (
{
closed = 1;
nodes = (
"292 -29 OFFCURVE",
"325 -11 OFFCURVE",
"348 9 CURVE SMOOTH",
"440 88 OFFCURVE",
"528 197 OFFCURVE",
"605 291 CURVE",
"596 259 OFFCURVE",
"592 226 OFFCURVE",
"592 193 CURVE SMOOTH",
"592 138 OFFCURVE",
"605 78 OFFCURVE",
"644 37 CURVE SMOOTH",
"679 0 OFFCURVE",
"729 -24 OFFCURVE",
"781 -24 CURVE SMOOTH",
"888 -24 OFFCURVE",
"934 69 OFFCURVE",
"934 165 CURVE SMOOTH",
"934 177 OFFCURVE",
"933 188 OFFCURVE",
"932 200 CURVE SMOOTH",
"927 255 OFFCURVE",
"874 335 OFFCURVE",
"847 384 CURVE SMOOTH",
"835 405 OFFCURVE",
"824 426 OFFCURVE",
"813 447 CURVE SMOOTH",
"811 450 OFFCURVE",
"809 452 OFFCURVE",
"806 452 CURVE SMOOTH",
"802 452 OFFCURVE",
"798 448 OFFCURVE",
"798 444 CURVE SMOOTH",
"798 443 OFFCURVE",
"799 442 OFFCURVE",
"799 441 CURVE",
"836 361 OFFCURVE",
"869 234 OFFCURVE",
"869 147 CURVE SMOOTH",
"869 82 OFFCURVE",
"852 11 OFFCURVE",
"774 11 CURVE SMOOTH",
"674 11 OFFCURVE",
"633 136 OFFCURVE",
"633 219 CURVE SMOOTH",
"633 270 OFFCURVE",
"644 314 OFFCURVE",
"678 353 CURVE SMOOTH",
"683 359 OFFCURVE",
"687 364 OFFCURVE",
"687 372 CURVE SMOOTH",
"687 383 OFFCURVE",
"677 391 OFFCURVE",
"666 391 CURVE SMOOTH",
"643 391 OFFCURVE",
"617 357 OFFCURVE",
"617 335 CURVE SMOOTH",
"617 332 OFFCURVE",
"617 330 OFFCURVE",
"620 328 CURVE",
"575 287 OFFCURVE",
"533 242 OFFCURVE",
"490 200 CURVE SMOOTH",
"447 157 OFFCURVE",
"308 0 OFFCURVE",
"252 0 CURVE SMOOTH",
"235 0 OFFCURVE",
"231 16 OFFCURVE",
"231 30 CURVE SMOOTH",
"231 34 OFFCURVE",
"231 38 OFFCURVE",
"232 42 CURVE SMOOTH",
"267 297 OFFCURVE",
"531 411 OFFCURVE",
"559 543 CURVE",
"559 547 LINE SMOOTH",
"559 586 OFFCURVE",
"485 607 OFFCURVE",
"454 607 CURVE SMOOTH",
"402 607 OFFCURVE",
"225 514 OFFCURVE",
"176 482 CURVE SMOOTH",
"109 438 OFFCURVE",
"3 358 OFFCURVE",
"-1 271 CURVE SMOOTH",
"-1 267 LINE SMOOTH",
"-2 251 OFFCURVE",
"21 186 OFFCURVE",
"40 186 CURVE SMOOTH",
"43 186 OFFCURVE",
"45 188 OFFCURVE",
"45 191 CURVE SMOOTH",
"45 197 OFFCURVE",
"31 205 OFFCURVE",
"31 228 CURVE SMOOTH",
"31 302 OFFCURVE",
"166 423 OFFCURVE",
"225 462 CURVE SMOOTH",
"284 500 OFFCURVE",
"410 575 OFFCURVE",
"480 575 CURVE SMOOTH",
"485 575 OFFCURVE",
"488 573 OFFCURVE",
"488 568 CURVE SMOOTH",
"488 510 OFFCURVE",
"172 192 OFFCURVE",
"172 53 CURVE SMOOTH",
"172 9 OFFCURVE",
"219 -29 OFFCURVE",
"261 -29 CURVE SMOOTH"
);
}
);
width = 916;
}
);
note = W;
unicode = 0057;
},
{
glyphname = X;
lastChange = "2021-10-20 21:03:02 +0000";
layers = (
{
layerId = "E1C4CDDB-EFDF-468A-8ACC-65E2DFDE53DF";
paths = (
{
closed = 1;
nodes = (
"108 -107 OFFCURVE",
"112 -102 OFFCURVE",
"109 -101 CURVE SMOOTH",
"74 -85 OFFCURVE",
"41 -46 OFFCURVE",
"45 -9 CURVE SMOOTH",
"55 74 OFFCURVE",
"144 198 OFFCURVE",
"276 310 CURVE",
"279 288 LINE SMOOTH",
"282 266 OFFCURVE",
"290 220 OFFCURVE",
"294 178 CURVE SMOOTH",
"298 136 OFFCURVE",
"304 90 OFFCURVE",
"315 52 CURVE SMOOTH",
"330 2 OFFCURVE",
"361 -23 OFFCURVE",
"395 -23 CURVE SMOOTH",
"413 -23 OFFCURVE",
"431 -17 OFFCURVE",
"449 -4 CURVE",
"461 -1 OFFCURVE",
"469 0 OFFCURVE",
"473 0 CURVE SMOOTH",
"507 2 OFFCURVE",
"505 43 OFFCURVE",
"507 69 CURVE SMOOTH",
"507 80 OFFCURVE",
"513 90 OFFCURVE",
"513 101 CURVE SMOOTH",
"513 104 OFFCURVE",
"512 106 OFFCURVE",
"511 106 CURVE SMOOTH",
"508 106 OFFCURVE",
"504 100 OFFCURVE",
"503 94 CURVE SMOOTH",
"497 68 OFFCURVE",
"489 31 OFFCURVE",
"461 12 CURVE SMOOTH",
"450 5 OFFCURVE",
"440 2 OFFCURVE",
"431 2 CURVE SMOOTH",
"391 2 OFFCURVE",
"363 61 OFFCURVE",
"344 122 CURVE SMOOTH",
"325 187 OFFCURVE",
"312 263 OFFCURVE",
"304 331 CURVE",
"459 454 OFFCURVE",
"632 574 OFFCURVE",
"761 621 CURVE SMOOTH",
"771 625 OFFCURVE",
"761 635 OFFCURVE",
"750 644 CURVE SMOOTH",
"741 652 OFFCURVE",
"735 655 OFFCURVE",
"729 655 CURVE SMOOTH",
"726 655 OFFCURVE",
"723 654 OFFCURVE",
"720 652 CURVE",
"698 644 OFFCURVE",
"667 634 OFFCURVE",
"646 628 CURVE SMOOTH",
"635 625 OFFCURVE",
"650 617 OFFCURVE",
"646 615 CURVE SMOOTH",
"537 555 OFFCURVE",
"420 460 OFFCURVE",
"301 359 CURVE",
"297 394 OFFCURVE",
"294 423 OFFCURVE",
"289 451 CURVE SMOOTH",
"284 480 OFFCURVE",
"278 507 OFFCURVE",
"268 528 CURVE SMOOTH",
"257 553 OFFCURVE",
"241 570 OFFCURVE",
"218 570 CURVE SMOOTH",
"203 570 OFFCURVE",
"185 563 OFFCURVE",
"163 548 CURVE SMOOTH",
"152 541 OFFCURVE",
"120 507 OFFCURVE",
"115 488 CURVE SMOOTH",
"113 482 OFFCURVE",
"122 481 OFFCURVE",
"125 492 CURVE SMOOTH",
"133 517 OFFCURVE",
"160 532 OFFCURVE",
"177 529 CURVE SMOOTH",
"239 517 OFFCURVE",
"260 414 OFFCURVE",
"272 336 CURVE",
"130 209 OFFCURVE",
"22 73 OFFCURVE",
"11 -18 CURVE SMOOTH",
"6 -58 OFFCURVE",
"76 -92 OFFCURVE",
"106 -105 CURVE"
);
}
);
width = 524;
},
{
layerId = "10EE7422-BC27-45A8-8DF8-0D41623AEA15";
paths = (
{
closed = 1;
nodes = (
"109 -108 OFFCURVE",
"115 -102 OFFCURVE",
"115 -97 CURVE SMOOTH",
"115 -94 OFFCURVE",
"114 -92 OFFCURVE",
"111 -91 CURVE SMOOTH",
"77 -77 OFFCURVE",
"46 -40 OFFCURVE",
"50 -6 CURVE SMOOTH",
"60 74 OFFCURVE",
"142 189 OFFCURVE",
"267 293 CURVE",
"269 281 LINE SMOOTH",
"279 206 OFFCURVE",
"278 -34 OFFCURVE",
"377 -34 CURVE SMOOTH",
"398 -34 OFFCURVE",
"422 -24 OFFCURVE",
"452 0 CURVE",
"465 3 OFFCURVE",
"472 4 OFFCURVE",
"476 4 CURVE SMOOTH",
"481 4 OFFCURVE",
"483 3 OFFCURVE",
"484 3 CURVE SMOOTH",
"486 3 OFFCURVE",
"487 4 OFFCURVE",
"493 10 CURVE SMOOTH",
"515 30 OFFCURVE",
"510 48 OFFCURVE",
"512 71 CURVE SMOOTH",
"512 81 OFFCURVE",
"520 94 OFFCURVE",
"518 106 CURVE SMOOTH",
"518 108 OFFCURVE",
"510 108 OFFCURVE",
"507 97 CURVE SMOOTH",
"502 72 OFFCURVE",
"485 37 OFFCURVE",
"458 19 CURVE SMOOTH",
"449 13 OFFCURVE",
"440 10 OFFCURVE",
"432 10 CURVE SMOOTH",
"350 10 OFFCURVE",
"315 273 OFFCURVE",
"310 320 CURVE SMOOTH",
"309 328 LINE",
"462 448 OFFCURVE",
"646 557 OFFCURVE",
"774 604 CURVE SMOOTH",
"778 606 OFFCURVE",
"780 609 OFFCURVE",
"780 612 CURVE SMOOTH",
"780 629 OFFCURVE",
"736 660 OFFCURVE",
"718 652 CURVE SMOOTH",
"699 644 OFFCURVE",
"674 629 OFFCURVE",
"637 628 CURVE",
"632 627 OFFCURVE",
"628 626 OFFCURVE",
"628 624 CURVE SMOOTH",
"628 623 OFFCURVE",
"631 621 OFFCURVE",
"639 621 CURVE",
"643 620 OFFCURVE",
"646 616 OFFCURVE",
"644 615 CURVE SMOOTH",
"534 556 OFFCURVE",
"417 461 OFFCURVE",
"305 368 CURVE",
"295 449 OFFCURVE",
"285 571 OFFCURVE",
"218 571 CURVE SMOOTH",
"202 571 OFFCURVE",
"183 565 OFFCURVE",
"160 549 CURVE SMOOTH",
"149 541 OFFCURVE",
"115 507 OFFCURVE",
"110 486 CURVE SMOOTH",
"108 480 OFFCURVE",
"112 476 OFFCURVE",
"117 476 CURVE SMOOTH",
"122 476 OFFCURVE",
"127 479 OFFCURVE",
"130 488 CURVE SMOOTH",
"137 510 OFFCURVE",
"150 517 OFFCURVE",
"164 515 CURVE SMOOTH",
"222 504 OFFCURVE",
"250 406 OFFCURVE",
"261 330 CURVE",
"121 207 OFFCURVE",
"12 76 OFFCURVE",
"1 -16 CURVE SMOOTH",
"-5 -59 OFFCURVE",
"67 -89 OFFCURVE",
"104 -105 CURVE"
);
}
);
width = 524;
}
);
note = X;
unicode = 0058;
},
{
glyphname = Y;
lastChange = "2021-10-20 21:03:02 +0000";
layers = (
{
layerId = "E1C4CDDB-EFDF-468A-8ACC-65E2DFDE53DF";
paths = (
{
closed = 1;
nodes = (
"132 -358 OFFCURVE",
"144 -357 OFFCURVE",
"155 -356 CURVE SMOOTH",
"285 -343 OFFCURVE",
"435 -250 OFFCURVE",
"542 -126 CURVE SMOOTH",
"636 -17 OFFCURVE",
"710 115 OFFCURVE",
"710 221 CURVE SMOOTH",
"710 272 OFFCURVE",
"692 317 OFFCURVE",
"652 351 CURVE",
"659 359 OFFCURVE",
"661 362 OFFCURVE",
"666 369 CURVE SMOOTH",
"669 373 OFFCURVE",
"664 377 OFFCURVE",
"660 371 CURVE SMOOTH",
"657 367 OFFCURVE",
"652 358 OFFCURVE",
"647 354 CURVE",
"637 359 OFFCURVE",
"621 364 OFFCURVE",
"607 364 CURVE SMOOTH",
"604 364 OFFCURVE",
"601 364 OFFCURVE",
"598 363 CURVE SMOOTH",
"593 362 OFFCURVE",
"588 360 OFFCURVE",
"588 359 CURVE SMOOTH",
"588 358 OFFCURVE",
"590 357 OFFCURVE",
"596 357 CURVE SMOOTH",
"611 357 OFFCURVE",
"624 354 OFFCURVE",
"640 345 CURVE",
"589 291 OFFCURVE",
"541 244 OFFCURVE",
"494 197 CURVE SMOOTH",
"441 145 OFFCURVE",
"393 88 OFFCURVE",
"335 40 CURVE SMOOTH",
"316 24 OFFCURVE",
"276 -6 OFFCURVE",
"252 -6 CURVE SMOOTH",
"237 -6 OFFCURVE",
"226 4 OFFCURVE",
"226 29 CURVE SMOOTH",
"226 33 OFFCURVE",
"226 37 OFFCURVE",
"227 41 CURVE",
"240 154 OFFCURVE",
"319 255 OFFCURVE",
"398 340 CURVE SMOOTH",
"437 383 OFFCURVE",
"477 422 OFFCURVE",
"507 458 CURVE SMOOTH",
"538 494 OFFCURVE",
"558 526 OFFCURVE",
"563 555 CURVE SMOOTH",
"568 594 OFFCURVE",
"487 607 OFFCURVE",
"455 607 CURVE SMOOTH",
"402 607 OFFCURVE",
"220 509 OFFCURVE",
"179 482 CURVE SMOOTH",
"82 417 OFFCURVE",
"12 341 OFFCURVE",
"4 272 CURVE SMOOTH",
"2 253 OFFCURVE",
"20 209 OFFCURVE",
"34 193 CURVE SMOOTH",
"38 188 OFFCURVE",
"46 189 OFFCURVE",
"39 199 CURVE SMOOTH",
"33 208 OFFCURVE",
"30 219 OFFCURVE",
"30 231 CURVE SMOOTH",
"30 309 OFFCURVE",
"156 429 OFFCURVE",
"207 463 CURVE SMOOTH",
"289 517 OFFCURVE",
"426 587 OFFCURVE",
"488 587 CURVE SMOOTH",
"498 587 OFFCURVE",
"509 581 OFFCURVE",
"509 568 CURVE SMOOTH",
"509 565 OFFCURVE",
"508 562 OFFCURVE",
"507 558 CURVE SMOOTH",
"502 545 OFFCURVE",
"491 526 OFFCURVE",
"476 505 CURVE SMOOTH",
"447 462 OFFCURVE",
"396 405 OFFCURVE",
"357 354 CURVE SMOOTH",
"305 285 OFFCURVE",
"196 143 OFFCURVE",
"187 58 CURVE SMOOTH",
"183 20 OFFCURVE",
"212 -20 OFFCURVE",
"253 -20 CURVE SMOOTH",
"277 -20 OFFCURVE",
"304 -4 OFFCURVE",
"326 12 CURVE SMOOTH",
"397 65 OFFCURVE",
"555 230 OFFCURVE",
"645 341 CURVE",
"662 324 OFFCURVE",
"669 298 OFFCURVE",
"669 266 CURVE SMOOTH",
"669 175 OFFCURVE",
"607 33 OFFCURVE",
"512 -90 CURVE SMOOTH",
"419 -210 OFFCURVE",
"273 -340 OFFCURVE",
"112 -340 CURVE SMOOTH",
"80 -340 OFFCURVE",
"55 -334 OFFCURVE",
"42 -325 CURVE SMOOTH",
"28 -315 OFFCURVE",
"21 -302 OFFCURVE",
"21 -287 CURVE SMOOTH",
"21 -253 OFFCURVE",
"59 -207 OFFCURVE",
"140 -160 CURVE SMOOTH",
"237 -104 OFFCURVE",
"419 -61 OFFCURVE",
"516 -53 CURVE SMOOTH",
"521 -53 OFFCURVE",
"524 -51 OFFCURVE",
"524 -49 CURVE SMOOTH",
"524 -47 OFFCURVE",
"520 -45 OFFCURVE",
"513 -45 CURVE SMOOTH",
"384 -45 OFFCURVE",
"210 -88 OFFCURVE",
"117 -140 CURVE SMOOTH",
"28 -189 OFFCURVE",
"-8 -241 OFFCURVE",
"-8 -280 CURVE SMOOTH",
"-8 -295 OFFCURVE",
"-3 -309 OFFCURVE",
"8 -320 CURVE SMOOTH",
"17 -329 OFFCURVE",
"26 -336 OFFCURVE",
"36 -341 CURVE SMOOTH",
"58 -353 OFFCURVE",
"89 -358 OFFCURVE",
"120 -358 CURVE SMOOTH"
);
}
);
width = 706;
},
{
layerId = "10EE7422-BC27-45A8-8DF8-0D41623AEA15";
paths = (
{
closed = 1;
nodes = (
"176 -351 OFFCURVE",
"234 -341 OFFCURVE",
"300 -317 CURVE SMOOTH",
"492 -248 OFFCURVE",
"716 6 OFFCURVE",
"716 203 CURVE SMOOTH",
"716 258 OFFCURVE",
"699 307 OFFCURVE",
"660 348 CURVE SMOOTH",
"659 349 OFFCURVE",
"658 350 OFFCURVE",
"656 351 CURVE",
"672 370 OFFCURVE",
"684 387 OFFCURVE",
"692 399 CURVE SMOOTH",
"695 404 OFFCURVE",
"686 402 OFFCURVE",
"682 398 CURVE SMOOTH",
"671 384 OFFCURVE",
"658 371 OFFCURVE",
"646 358 CURVE",
"635 364 OFFCURVE",
"619 366 OFFCURVE",
"610 366 CURVE SMOOTH",
"593 366 OFFCURVE",
"581 360 OFFCURVE",
"581 355 CURVE SMOOTH",
"581 352 OFFCURVE",
"586 350 OFFCURVE",
"596 350 CURVE SMOOTH",
"611 350 OFFCURVE",
"622 347 OFFCURVE",
"632 342 CURVE",
"586 293 OFFCURVE",
"537 246 OFFCURVE",
"490 200 CURVE SMOOTH",
"438 148 OFFCURVE",
"389 92 OFFCURVE",
"332 45 CURVE SMOOTH",
"312 29 OFFCURVE",
"275 0 OFFCURVE",
"252 0 CURVE SMOOTH",
"239 0 OFFCURVE",
"231 8 OFFCURVE",
"231 30 CURVE SMOOTH",
"231 34 OFFCURVE",
"232 38 OFFCURVE",
"232 42 CURVE SMOOTH",
"256 261 OFFCURVE",
"562 424 OFFCURVE",
"579 541 CURVE SMOOTH",
"586 581 OFFCURVE",
"489 607 OFFCURVE",
"455 607 CURVE SMOOTH",
"400 607 OFFCURVE",
"217 509 OFFCURVE",
"176 482 CURVE SMOOTH",
"79 418 OFFCURVE",
"7 342 OFFCURVE",
"-1 271 CURVE SMOOTH",
"-3 245 OFFCURVE",
"25 186 OFFCURVE",
"40 186 CURVE SMOOTH",
"43 186 OFFCURVE",
"45 188 OFFCURVE",
"45 191 CURVE SMOOTH",
"45 192 OFFCURVE",
"44 195 OFFCURVE",
"42 197 CURVE SMOOTH",
"34 206 OFFCURVE",
"31 216 OFFCURVE",
"31 228 CURVE SMOOTH",
"31 304 OFFCURVE",
"174 428 OFFCURVE",
"225 462 CURVE SMOOTH",
"308 515 OFFCURVE",
"418 575 OFFCURVE",
"477 575 CURVE SMOOTH",
"485 575 OFFCURVE",
"488 573 OFFCURVE",
"488 567 CURVE SMOOTH",
"488 538 OFFCURVE",
"410 442 OFFCURVE",
"344 356 CURVE SMOOTH",
"288 282 OFFCURVE",
"182 145 OFFCURVE",
"173 60 CURVE SMOOTH",
"169 20 OFFCURVE",
"209 -24 OFFCURVE",
"253 -24 CURVE SMOOTH",
"278 -24 OFFCURVE",
"307 -7 OFFCURVE",
"329 9 CURVE SMOOTH",
"400 62 OFFCURVE",
"556 229 OFFCURVE",
"642 334 CURVE",
"655 321 OFFCURVE",
"662 300 OFFCURVE",
"662 274 CURVE SMOOTH",
"662 128 OFFCURVE",
"472 -182 OFFCURVE",
"281 -285 CURVE SMOOTH",
"219 -319 OFFCURVE",
"160 -333 OFFCURVE",
"114 -333 CURVE SMOOTH",
"61 -333 OFFCURVE",
"27 -314 OFFCURVE",
"27 -282 CURVE SMOOTH",
"27 -251 OFFCURVE",
"60 -208 OFFCURVE",
"143 -161 CURVE SMOOTH",
"239 -106 OFFCURVE",
"416 -58 OFFCURVE",
"512 -50 CURVE SMOOTH",
"517 -49 OFFCURVE",
"520 -46 OFFCURVE",
"520 -44 CURVE SMOOTH",
"520 -41 OFFCURVE",
"518 -39 OFFCURVE",
"513 -39 CURVE SMOOTH",
"384 -38 OFFCURVE",
"209 -81 OFFCURVE",
"114 -133 CURVE SMOOTH",
"27 -181 OFFCURVE",
"-11 -231 OFFCURVE",
"-11 -271 CURVE SMOOTH",
"-11 -318 OFFCURVE",
"41 -351 OFFCURVE",
"128 -351 CURVE SMOOTH"
);
}
);
width = 706;
}
);
note = Y;
unicode = 0059;
},
{
glyphname = Z;
lastChange = "2021-10-20 21:03:02 +0000";
layers = (
{
layerId = "E1C4CDDB-EFDF-468A-8ACC-65E2DFDE53DF";
paths = (
{
closed = 1;
nodes = (
"629 -95 OFFCURVE",
"652 -73 OFFCURVE",
"654 -21 CURVE",
"659 -13 OFFCURVE",
"668 2 OFFCURVE",
"668 11 CURVE SMOOTH",
"668 25 OFFCURVE",
"660 30 OFFCURVE",
"650 37 CURVE SMOOTH",
"646 39 OFFCURVE",
"642 44 OFFCURVE",
"638 47 CURVE SMOOTH",
"631 51 OFFCURVE",
"631 46 OFFCURVE",
"634 41 CURVE SMOOTH",
"642 29 OFFCURVE",
"651 13 OFFCURVE",
"651 -2 CURVE SMOOTH",
"651 -35 OFFCURVE",
"625 -45 OFFCURVE",
"593 -45 CURVE SMOOTH",
"565 -45 OFFCURVE",
"531 -37 OFFCURVE",
"498 -27 CURVE SMOOTH",
"427 -6 OFFCURVE",
"353 30 OFFCURVE",
"332 39 CURVE SMOOTH",
"314 46 OFFCURVE",
"288 59 OFFCURVE",
"260 72 CURVE SMOOTH",
"232 84 OFFCURVE",
"201 95 OFFCURVE",
"164 101 CURVE",
"205 139 OFFCURVE",
"258 182 OFFCURVE",
"325 229 CURVE",
"386 240 OFFCURVE",
"445 255 OFFCURVE",
"507 252 CURVE SMOOTH",
"538 251 OFFCURVE",
"576 236 OFFCURVE",
"576 224 CURVE SMOOTH",
"576 225 LINE SMOOTH",
"569 252 OFFCURVE",
"552 273 OFFCURVE",
"542 278 CURVE SMOOTH",
"529 285 OFFCURVE",
"512 288 OFFCURVE",
"492 288 CURVE SMOOTH",
"464 288 OFFCURVE",
"430 282 OFFCURVE",
"390 274 CURVE",
"530 363 OFFCURVE",
"676 459 OFFCURVE",
"736 491 CURVE",
"725 504 OFFCURVE",
"718 505 OFFCURVE",
"702 507 CURVE",
"699 533 OFFCURVE",
"689 532 OFFCURVE",
"665 539 CURVE SMOOTH",
"627 549 OFFCURVE",
"568 554 OFFCURVE",
"505 554 CURVE SMOOTH",
"368 554 OFFCURVE",
"210 530 OFFCURVE",
"196 483 CURVE SMOOTH",
"193 474 OFFCURVE",
"197 443 OFFCURVE",
"208 443 CURVE SMOOTH",
"221 443 OFFCURVE",
"241 445 OFFCURVE",
"262 449 CURVE SMOOTH",
"266 450 OFFCURVE",
"270 455 OFFCURVE",
"263 455 CURVE SMOOTH",
"258 455 OFFCURVE",
"253 455 OFFCURVE",
"244 456 CURVE SMOOTH",
"235 457 OFFCURVE",
"231 459 OFFCURVE",
"231 461 CURVE SMOOTH",
"231 467 OFFCURVE",
"256 475 OFFCURVE",
"265 478 CURVE SMOOTH",
"328 498 OFFCURVE",
"426 515 OFFCURVE",
"522 515 CURVE SMOOTH",
"576 515 OFFCURVE",
"629 509 OFFCURVE",
"676 496 CURVE",
"625 470 OFFCURVE",
"548 422 OFFCURVE",
"491 380 CURVE SMOOTH",
"435 338 OFFCURVE",
"384 298 OFFCURVE",
"365 285 CURVE SMOOTH",
"352 275 OFFCURVE",
"347 273 OFFCURVE",
"333 263 CURVE",
"286 245 OFFCURVE",
"234 232 OFFCURVE",
"196 221 CURVE SMOOTH",
"160 212 OFFCURVE",
"125 210 OFFCURVE",
"107 209 CURVE SMOOTH",
"103 209 OFFCURVE",
"98 207 OFFCURVE",
"98 205 CURVE SMOOTH",
"98 202 OFFCURVE",
"103 200 OFFCURVE",
"121 200 CURVE SMOOTH",
"156 200 OFFCURVE",
"208 206 OFFCURVE",
"283 221 CURVE",
"217 166 OFFCURVE",
"176 127 OFFCURVE",
"156 101 CURVE",
"113 102 OFFCURVE",
"64 65 OFFCURVE",
"57 13 CURVE SMOOTH",
"56 5 OFFCURVE",
"60 -7 OFFCURVE",
"71 -18 CURVE",
"73 -21 OFFCURVE",
"80 -18 OFFCURVE",
"75 -12 CURVE SMOOTH",
"69 -5 OFFCURVE",
"66 2 OFFCURVE",
"66 8 CURVE SMOOTH",
"66 16 OFFCURVE",
"70 23 OFFCURVE",
"77 28 CURVE SMOOTH",
"83 33 OFFCURVE",
"95 44 OFFCURVE",
"115 51 CURVE",
"101 29 OFFCURVE",
"90 10 OFFCURVE",
"86 1 CURVE SMOOTH",
"84 -2 OFFCURVE",
"89 -6 OFFCURVE",
"91 -2 CURVE SMOOTH",
"97 10 OFFCURVE",
"116 40 OFFCURVE",
"127 54 CURVE",
"135 59 OFFCURVE",
"146 61 OFFCURVE",
"160 61 CURVE SMOOTH",
"190 61 OFFCURVE",
"235 49 OFFCURVE",
"291 19 CURVE SMOOTH",
"330 -1 OFFCURVE",
"372 -24 OFFCURVE",
"415 -44 CURVE SMOOTH",
"458 -63 OFFCURVE",
"500 -80 OFFCURVE",
"537 -89 CURVE SMOOTH",
"555 -93 OFFCURVE",
"571 -95 OFFCURVE",
"585 -95 CURVE SMOOTH"
);
}
);
width = 623;
},
{
layerId = "10EE7422-BC27-45A8-8DF8-0D41623AEA15";
paths = (
{
closed = 1;
nodes = (
"618 -111 OFFCURVE",
"652 -86 OFFCURVE",
"655 -16 CURVE",
"668 4 OFFCURVE",
"672 4 OFFCURVE",
"673 6 CURVE",
"673 14 LINE SMOOTH",
"673 36 OFFCURVE",
"656 41 OFFCURVE",
"641 51 CURVE SMOOTH",
"634 55 OFFCURVE",
"629 65 OFFCURVE",
"619 69 CURVE",
"618 69 OFFCURVE",
"613 64 OFFCURVE",
"619 58 CURVE SMOOTH",
"632 46 OFFCURVE",
"646 25 OFFCURVE",
"646 4 CURVE SMOOTH",
"646 -25 OFFCURVE",
"624 -36 OFFCURVE",
"592 -36 CURVE SMOOTH",
"511 -36 OFFCURVE",
"364 33 OFFCURVE",
"334 46 CURVE SMOOTH",
"298 61 OFFCURVE",
"230 98 OFFCURVE",
"175 106 CURVE",
"208 136 OFFCURVE",
"261 178 OFFCURVE",
"327 224 CURVE",
"371 232 OFFCURVE",
"415 239 OFFCURVE",
"451 241 CURVE SMOOTH",
"460 241 OFFCURVE",
"481 243 OFFCURVE",
"502 243 CURVE SMOOTH",
"532 243 OFFCURVE",
"564 239 OFFCURVE",
"566 221 CURVE SMOOTH",
"566 215 OFFCURVE",
"569 213 OFFCURVE",
"571 213 CURVE SMOOTH",
"574 213 OFFCURVE",
"577 216 OFFCURVE",
"577 221 CURVE SMOOTH",
"577 225 LINE",
"569 254 OFFCURVE",
"549 274 OFFCURVE",
"538 280 CURVE SMOOTH",
"522 288 OFFCURVE",
"502 291 OFFCURVE",
"480 291 CURVE SMOOTH",
"459 291 OFFCURVE",
"437 288 OFFCURVE",
"416 284 CURVE",
"534 357 OFFCURVE",
"694 452 OFFCURVE",
"752 482 CURVE SMOOTH",
"760 486 OFFCURVE",
"733 505 OFFCURVE",
"716 512 CURVE",
"710 519 OFFCURVE",
"704 524 OFFCURVE",
"698 527 CURVE SMOOTH",
"666 545 OFFCURVE",
"588 554 OFFCURVE",
"502 554 CURVE SMOOTH",
"364 554 OFFCURVE",
"206 530 OFFCURVE",
"191 481 CURVE SMOOTH",
"188 470 OFFCURVE",
"196 415 OFFCURVE",
"208 418 CURVE SMOOTH",
"293 437 LINE",
"293 438 OFFCURVE",
"292 440 OFFCURVE",
"292 440 CURVE",
"278 440 OFFCURVE",
"259 439 OFFCURVE",
"249 440 CURVE",
"302 461 OFFCURVE",
"456 495 OFFCURVE",
"568 495 CURVE SMOOTH",
"598 495 OFFCURVE",
"626 493 OFFCURVE",
"647 487 CURVE",
"566 446 OFFCURVE",
"399 314 OFFCURVE",
"362 288 CURVE SMOOTH",
"331 267 LINE",
"203 232 OFFCURVE",
"132 208 OFFCURVE",
"105 211 CURVE SMOOTH",
"100 212 OFFCURVE",
"93 207 OFFCURVE",
"93 203 CURVE SMOOTH",
"93 199 OFFCURVE",
"97 196 OFFCURVE",
"107 196 CURVE SMOOTH",
"143 193 OFFCURVE",
"199 199 OFFCURVE",
"265 212 CURVE",
"214 170 OFFCURVE",
"172 132 OFFCURVE",
"154 108 CURVE",
"111 109 OFFCURVE",
"60 71 OFFCURVE",
"52 17 CURVE SMOOTH",
"51 7 OFFCURVE",
"56 -7 OFFCURVE",
"67 -18 CURVE SMOOTH",
"72 -23 OFFCURVE",
"82 -19 OFFCURVE",
"82 -12 CURVE SMOOTH",
"82 -10 OFFCURVE",
"81 -8 OFFCURVE",
"79 -5 CURVE SMOOTH",
"74 1 OFFCURVE",
"71 7 OFFCURVE",
"71 12 CURVE SMOOTH",
"71 18 OFFCURVE",
"75 23 OFFCURVE",
"80 27 CURVE SMOOTH",
"86 31 OFFCURVE",
"92 34 OFFCURVE",
"98 36 CURVE",
"91 26 OFFCURVE",
"86 16 OFFCURVE",
"81 7 CURVE",
"79 1 OFFCURVE",
"83 -3 OFFCURVE",
"87 -3 CURVE SMOOTH",
"90 -3 OFFCURVE",
"93 -1 OFFCURVE",
"95 3 CURVE SMOOTH",
"101 15 OFFCURVE",
"109 27 OFFCURVE",
"119 40 CURVE",
"127 45 OFFCURVE",
"138 48 OFFCURVE",
"154 48 CURVE SMOOTH",
"183 48 OFFCURVE",
"224 38 OFFCURVE",
"276 9 CURVE SMOOTH",
"370 -44 OFFCURVE",
"490 -111 OFFCURVE",
"570 -111 CURVE SMOOTH"
);
}
);
width = 623;
}
);
note = Z;
unicode = 005A;
},
{
glyphname = a;
lastChange = "2021-10-20 21:03:02 +0000";
layers = (
{
layerId = "E1C4CDDB-EFDF-468A-8ACC-65E2DFDE53DF";
paths = (
{
closed = 1;
nodes = (
"86 -21 OFFCURVE",
"154 54 OFFCURVE",
"197 118 CURVE",
"187 96 OFFCURVE",
"176 57 OFFCURVE",
"174 45 CURVE SMOOTH",
"171 20 OFFCURVE",
"174 -1 OFFCURVE",
"211 -9 CURVE SMOOTH",
"227 -12 OFFCURVE",
"248 8 OFFCURVE",
"271 37 CURVE SMOOTH",
"296 68 OFFCURVE",
"319 104 OFFCURVE",
"340 138 CURVE SMOOTH",
"344 146 OFFCURVE",
"339 147 OFFCURVE",
"334 140 CURVE SMOOTH",
"318 115 OFFCURVE",
"306 99 OFFCURVE",
"291 78 CURVE SMOOTH",
"275 57 OFFCURVE",
"260 38 OFFCURVE",
"245 24 CURVE SMOOTH",
"238 17 OFFCURVE",
"228 11 OFFCURVE",
"221 11 CURVE SMOOTH",
"214 11 OFFCURVE",
"209 15 OFFCURVE",
"209 26 CURVE SMOOTH",
"209 31 OFFCURVE",
"209 36 OFFCURVE",
"211 42 CURVE SMOOTH",
"222 85 OFFCURVE",
"249 129 OFFCURVE",
"274 167 CURVE",
"278 178 OFFCURVE",
"257 182 OFFCURVE",
"246 182 CURVE SMOOTH",
"237 182 OFFCURVE",
"231 182 OFFCURVE",
"227 177 CURVE SMOOTH",
"208 147 OFFCURVE",
"132 42 OFFCURVE",
"77 0 CURVE SMOOTH",
"69 -6 OFFCURVE",
"63 -8 OFFCURVE",
"58 -8 CURVE SMOOTH",
"50 -8 OFFCURVE",
"47 -1 OFFCURVE",
"47 7 CURVE SMOOTH",
"47 15 OFFCURVE",
"50 26 OFFCURVE",
"54 36 CURVE SMOOTH",
"84 123 OFFCURVE",
"187 219 OFFCURVE",
"248 219 CURVE SMOOTH",
"266 219 OFFCURVE",
"274 212 OFFCURVE",
"278 207 CURVE SMOOTH",
"279 205 LINE",
"283 211 OFFCURVE",
"277 222 OFFCURVE",
"274 225 CURVE",
"260 246 OFFCURVE",
"244 256 OFFCURVE",
"232 256 CURVE SMOOTH",
"150 256 OFFCURVE",
"22 127 OFFCURVE",
"22 35 CURVE SMOOTH",
"22 15 OFFCURVE",
"36 -21 OFFCURVE",
"64 -21 CURVE SMOOTH"
);
}
);
width = 270;
},
{
anchors = (
{
name = bottom;
position = "{64, -21}";
},
{
name = ogonek;
position = "{290, 0}";
},
{
name = top;
position = "{293, 383}";
}
);
layerId = "10EE7422-BC27-45A8-8DF8-0D41623AEA15";
paths = (
{
closed = 1;
nodes = (
"89 -21 OFFCURVE",
"163 69 OFFCURVE",
"184 99 CURVE",
"178 82 OFFCURVE",
"171 61 OFFCURVE",
"169 48 CURVE SMOOTH",
"168 43 OFFCURVE",
"168 39 OFFCURVE",
"168 35 CURVE SMOOTH",
"168 14 OFFCURVE",
"177 -2 OFFCURVE",
"210 -9 CURVE SMOOTH",
"249 -17 OFFCURVE",
"311 84 OFFCURVE",
"324 103 CURVE SMOOTH",
"332 114 OFFCURVE",
"342 129 OFFCURVE",
"348 142 CURVE SMOOTH",
"349 144 OFFCURVE",
"350 147 OFFCURVE",
"350 150 CURVE SMOOTH",
"350 153 OFFCURVE",
"349 155 OFFCURVE",
"347 155 CURVE SMOOTH",
"345 155 OFFCURVE",
"341 152 OFFCURVE",
"335 145 CURVE SMOOTH",
"302 103 OFFCURVE",
"270 58 OFFCURVE",
"242 31 CURVE SMOOTH",
"236 26 OFFCURVE",
"228 22 OFFCURVE",
"222 22 CURVE SMOOTH",
"218 22 OFFCURVE",
"214 24 OFFCURVE",
"214 32 CURVE SMOOTH",
"214 35 OFFCURVE",
"215 39 OFFCURVE",
"216 44 CURVE SMOOTH",
"226 84 OFFCURVE",
"253 126 OFFCURVE",
"278 163 CURVE",
"284 175 OFFCURVE",
"255 184 OFFCURVE",
"241 184 CURVE SMOOTH",
"225 184 OFFCURVE",
"222 183 OFFCURVE",
"218 176 CURVE",
"208 138 OFFCURVE",
"129 49 OFFCURVE",
"74 9 CURVE SMOOTH",
"67 4 OFFCURVE",
"62 2 OFFCURVE",
"58 2 CURVE SMOOTH",
"54 2 OFFCURVE",
"52 5 OFFCURVE",
"52 11 CURVE SMOOTH",
"52 18 OFFCURVE",
"55 27 OFFCURVE",
"58 37 CURVE SMOOTH",
"86 111 OFFCURVE",
"207 209 OFFCURVE",
"252 209 CURVE SMOOTH",
"276 209 OFFCURVE",
"276 194 OFFCURVE",
"278 195 CURVE SMOOTH",
"283 197 OFFCURVE",
"285 202 OFFCURVE",
"285 207 CURVE SMOOTH",
"285 214 OFFCURVE",
"281 221 OFFCURVE",
"278 225 CURVE SMOOTH",
"264 244 OFFCURVE",
"246 256 OFFCURVE",
"232 256 CURVE SMOOTH",
"147 256 OFFCURVE",
"17 129 OFFCURVE",
"17 38 CURVE SMOOTH",
"17 18 OFFCURVE",
"31 -21 OFFCURVE",
"64 -21 CURVE SMOOTH"
);
}
);
width = 270;
}
);
note = a;
unicode = 0061;
},
{
glyphname = ae;
lastChange = "2021-10-20 21:03:02 +0000";
layers = (
{
layerId = "E1C4CDDB-EFDF-468A-8ACC-65E2DFDE53DF";
paths = (
{
closed = 1;
nodes = (
"302 -27 OFFCURVE",
"340 -2 OFFCURVE",
"368 34 CURVE SMOOTH",
"392 64 OFFCURVE",
"401 81 OFFCURVE",
"407 91 CURVE",
"407 92 OFFCURVE",
"405 97 OFFCURVE",
"403 94 CURVE SMOOTH",
"397 85 OFFCURVE",
"381 64 OFFCURVE",
"372 52 CURVE SMOOTH",
"359 35 OFFCURVE",
"338 15 OFFCURVE",
"317 2 CURVE SMOOTH",
"302 -6 OFFCURVE",
"283 -12 OFFCURVE",
"266 -12 CURVE SMOOTH",
"241 -12 OFFCURVE",
"220 -1 OFFCURVE",
"220 31 CURVE SMOOTH",
"220 38 OFFCURVE",
"221 45 OFFCURVE",
"223 54 CURVE SMOOTH",
"240 121 OFFCURVE",
"293 188 OFFCURVE",
"347 226 CURVE SMOOTH",
"359 234 OFFCURVE",
"371 238 OFFCURVE",
"380 238 CURVE SMOOTH",
"393 238 OFFCURVE",
"402 230 OFFCURVE",
"402 219 CURVE SMOOTH",
"402 211 OFFCURVE",
"398 200 OFFCURVE",
"387 189 CURVE SMOOTH",
"377 179 OFFCURVE",
"364 169 OFFCURVE",
"351 160 CURVE SMOOTH",
"338 151 OFFCURVE",
"323 143 OFFCURVE",
"309 133 CURVE SMOOTH",
"282 115 OFFCURVE",
"250 91 OFFCURVE",
"241 68 CURVE SMOOTH",
"239 63 OFFCURVE",
"245 65 OFFCURVE",
"245 65 CURVE",
"254 84 OFFCURVE",
"277 100 OFFCURVE",
"305 115 CURVE SMOOTH",
"350 139 LINE SMOOTH",
"365 146 OFFCURVE",
"379 155 OFFCURVE",
"391 163 CURVE SMOOTH",
"413 178 OFFCURVE",
"425 200 OFFCURVE",
"425 217 CURVE SMOOTH",
"425 230 OFFCURVE",
"418 241 OFFCURVE",
"403 245 CURVE SMOOTH",
"377 251 LINE SMOOTH",
"370 253 OFFCURVE",
"362 256 OFFCURVE",
"357 261 CURVE",
"332 260 OFFCURVE",
"304 244 OFFCURVE",
"278 219 CURVE",
"277 222 OFFCURVE",
"275 224 OFFCURVE",
"274 225 CURVE SMOOTH",
"260 246 OFFCURVE",
"244 256 OFFCURVE",
"232 256 CURVE SMOOTH",
"150 256 OFFCURVE",
"22 127 OFFCURVE",
"22 35 CURVE SMOOTH",
"22 15 OFFCURVE",
"36 -21 OFFCURVE",
"64 -21 CURVE SMOOTH",
"86 -21 OFFCURVE",
"154 54 OFFCURVE",
"197 118 CURVE",
"190 102 OFFCURVE",
"187 84 OFFCURVE",
"187 66 CURVE SMOOTH",
"187 24 OFFCURVE",
"206 -17 OFFCURVE",
"253 -22 CURVE SMOOTH"
);
},
{
closed = 1;
nodes = (
"50 -8 OFFCURVE",
"47 -1 OFFCURVE",
"47 7 CURVE SMOOTH",
"47 15 OFFCURVE",
"50 26 OFFCURVE",
"54 36 CURVE SMOOTH",
"84 123 OFFCURVE",
"187 219 OFFCURVE",
"248 219 CURVE SMOOTH",
"251 219 OFFCURVE",
"255 219 OFFCURVE",
"258 218 CURVE SMOOTH",
"264 217 OFFCURVE",
"268 215 OFFCURVE",
"271 213 CURVE",
"262 204 OFFCURVE",
"253 193 OFFCURVE",
"245 182 CURVE",
"236 182 OFFCURVE",
"230 182 OFFCURVE",
"227 177 CURVE SMOOTH",
"208 147 OFFCURVE",
"132 42 OFFCURVE",
"77 0 CURVE SMOOTH",
"69 -6 OFFCURVE",
"63 -8 OFFCURVE",
"58 -8 CURVE SMOOTH"
);
}
);
width = 368;
},
{
layerId = "10EE7422-BC27-45A8-8DF8-0D41623AEA15";
paths = (
{
closed = 1;
nodes = (
"309 -23 OFFCURVE",
"344 5 OFFCURVE",
"370 37 CURVE SMOOTH",
"397 70 OFFCURVE",
"405 90 OFFCURVE",
"398 90 CURVE SMOOTH",
"393 90 OFFCURVE",
"382 81 OFFCURVE",
"366 61 CURVE SMOOTH",
"353 45 OFFCURVE",
"331 23 OFFCURVE",
"311 11 CURVE SMOOTH",
"297 3 OFFCURVE",
"279 -2 OFFCURVE",
"262 -2 CURVE SMOOTH",
"239 -2 OFFCURVE",
"219 8 OFFCURVE",
"219 36 CURVE SMOOTH",
"219 41 OFFCURVE",
"220 48 OFFCURVE",
"222 55 CURVE SMOOTH",
"239 123 OFFCURVE",
"300 180 OFFCURVE",
"354 216 CURVE SMOOTH",
"364 223 OFFCURVE",
"373 226 OFFCURVE",
"380 226 CURVE SMOOTH",
"389 226 OFFCURVE",
"394 221 OFFCURVE",
"394 213 CURVE SMOOTH",
"394 206 OFFCURVE",
"390 197 OFFCURVE",
"381 187 CURVE SMOOTH",
"346 145 OFFCURVE",
"269 116 OFFCURVE",
"249 57 CURVE SMOOTH",
"247 52 OFFCURVE",
"250 49 OFFCURVE",
"253 49 CURVE SMOOTH",
"255 49 OFFCURVE",
"257 50 OFFCURVE",
"259 54 CURVE SMOOTH",
"272 86 OFFCURVE",
"352 119 OFFCURVE",
"398 156 CURVE SMOOTH",
"417 172 OFFCURVE",
"430 194 OFFCURVE",
"430 212 CURVE SMOOTH",
"430 227 OFFCURVE",
"422 240 OFFCURVE",
"403 245 CURVE SMOOTH",
"387 249 OFFCURVE",
"366 252 OFFCURVE",
"358 261 CURVE",
"333 261 OFFCURVE",
"305 247 OFFCURVE",
"279 224 CURVE",
"278 225 LINE SMOOTH",
"263 243 OFFCURVE",
"246 256 OFFCURVE",
"232 256 CURVE SMOOTH",
"147 256 OFFCURVE",
"17 129 OFFCURVE",
"17 38 CURVE SMOOTH",
"17 18 OFFCURVE",
"31 -21 OFFCURVE",
"64 -21 CURVE SMOOTH",
"89 -21 OFFCURVE",
"163 69 OFFCURVE",
"184 99 CURVE",
"183 95 OFFCURVE",
"182 86 OFFCURVE",
"182 76 CURVE SMOOTH",
"182 63 OFFCURVE",
"183 50 OFFCURVE",
"184 43 CURVE SMOOTH",
"191 -6 OFFCURVE",
"232 -23 OFFCURVE",
"263 -23 CURVE SMOOTH"
);
},
{
closed = 1;
nodes = (
"54 2 OFFCURVE",
"52 5 OFFCURVE",
"52 11 CURVE SMOOTH",
"52 18 OFFCURVE",
"55 27 OFFCURVE",
"58 37 CURVE SMOOTH",
"87 114 OFFCURVE",
"216 217 OFFCURVE",
"257 209 CURVE",
"259 209 OFFCURVE",
"261 209 OFFCURVE",
"262 208 CURVE",
"255 201 OFFCURVE",
"248 193 OFFCURVE",
"241 184 CURVE",
"225 184 OFFCURVE",
"222 183 OFFCURVE",
"218 176 CURVE",
"208 138 OFFCURVE",
"129 49 OFFCURVE",
"74 9 CURVE SMOOTH",
"67 4 OFFCURVE",
"62 2 OFFCURVE",
"58 2 CURVE SMOOTH"
);
}
);
width = 365;
}
);
note = ae;
unicode = 00E6;
},
{
glyphname = b;
lastChange = "2021-10-20 21:03:02 +0000";
layers = (
{
layerId = "E1C4CDDB-EFDF-468A-8ACC-65E2DFDE53DF";
paths = (
{
closed = 1;
nodes = (
"131 -28 OFFCURVE",
"163 -11 OFFCURVE",
"187 16 CURVE SMOOTH",
"210 43 OFFCURVE",
"240 85 OFFCURVE",
"258 124 CURVE SMOOTH",
"266 142 OFFCURVE",
"281 180 OFFCURVE",
"281 207 CURVE SMOOTH",
"281 223 OFFCURVE",
"275 235 OFFCURVE",
"259 235 CURVE SMOOTH",
"240 235 OFFCURVE",
"219 211 OFFCURVE",
"219 165 CURVE SMOOTH",
"219 144 OFFCURVE",
"223 120 OFFCURVE",
"232 99 CURVE",
"227 89 OFFCURVE",
"209 56 OFFCURVE",
"171 15 CURVE SMOOTH",
"156 -2 OFFCURVE",
"133 -15 OFFCURVE",
"114 -15 CURVE SMOOTH",
"96 -15 OFFCURVE",
"82 -3 OFFCURVE",
"82 29 CURVE SMOOTH",
"82 203 OFFCURVE",
"256 427 OFFCURVE",
"340 528 CURVE SMOOTH",
"362 555 OFFCURVE",
"381 566 OFFCURVE",
"393 566 CURVE SMOOTH",
"401 566 OFFCURVE",
"406 561 OFFCURVE",
"406 550 CURVE SMOOTH",
"406 538 OFFCURVE",
"399 519 OFFCURVE",
"383 495 CURVE SMOOTH",
"368 474 OFFCURVE",
"349 450 OFFCURVE",
"329 425 CURVE SMOOTH",
"307 397 OFFCURVE",
"159 212 OFFCURVE",
"125 145 CURVE SMOOTH",
"122 139 OFFCURVE",
"125 134 OFFCURVE",
"131 144 CURVE SMOOTH",
"148 174 OFFCURVE",
"182 224 OFFCURVE",
"223 275 CURVE SMOOTH",
"274 339 OFFCURVE",
"331 405 OFFCURVE",
"359 439 CURVE SMOOTH",
"402 493 OFFCURVE",
"436 542 OFFCURVE",
"438 573 CURVE",
"416 586 OFFCURVE",
"413 620 OFFCURVE",
"380 620 CURVE SMOOTH",
"332 620 OFFCURVE",
"219 476 OFFCURVE",
"136 319 CURVE SMOOTH",
"82 214 OFFCURVE",
"44 112 OFFCURVE",
"44 46 CURVE SMOOTH",
"44 -6 OFFCURVE",
"71 -28 OFFCURVE",
"103 -28 CURVE SMOOTH"
);
}
);
width = 258;
},
{
layerId = "10EE7422-BC27-45A8-8DF8-0D41623AEA15";
paths = (
{
closed = 1;
nodes = (
"143 -27 OFFCURVE",
"174 -15 OFFCURVE",
"201 17 CURVE SMOOTH",
"224 44 OFFCURVE",
"255 86 OFFCURVE",
"273 125 CURVE SMOOTH",
"281 143 OFFCURVE",
"296 177 OFFCURVE",
"296 204 CURVE SMOOTH",
"296 216 OFFCURVE",
"294 227 OFFCURVE",
"286 235 CURVE SMOOTH",
"281 240 OFFCURVE",
"275 243 OFFCURVE",
"268 243 CURVE SMOOTH",
"252 243 OFFCURVE",
"233 226 OFFCURVE",
"222 183 CURVE SMOOTH",
"220 176 OFFCURVE",
"220 168 OFFCURVE",
"220 160 CURVE SMOOTH",
"220 135 OFFCURVE",
"226 110 OFFCURVE",
"229 102 CURVE",
"222 80 OFFCURVE",
"212 62 OFFCURVE",
"175 22 CURVE SMOOTH",
"161 7 OFFCURVE",
"142 -5 OFFCURVE",
"126 -5 CURVE SMOOTH",
"111 -5 OFFCURVE",
"98 8 OFFCURVE",
"98 41 CURVE SMOOTH",
"98 180 OFFCURVE",
"280 410 OFFCURVE",
"363 508 CURVE SMOOTH",
"397 548 OFFCURVE",
"415 558 OFFCURVE",
"415 547 CURVE SMOOTH",
"415 539 OFFCURVE",
"407 520 OFFCURVE",
"389 495 CURVE SMOOTH",
"375 474 OFFCURVE",
"356 450 OFFCURVE",
"336 426 CURVE SMOOTH",
"312 396 OFFCURVE",
"131 173 OFFCURVE",
"125 131 CURVE SMOOTH",
"124 125 OFFCURVE",
"126 121 OFFCURVE",
"129 121 CURVE SMOOTH",
"130 121 OFFCURVE",
"133 123 OFFCURVE",
"134 128 CURVE SMOOTH",
"148 172 OFFCURVE",
"317 366 OFFCURVE",
"373 434 CURVE SMOOTH",
"417 488 OFFCURVE",
"454 539 OFFCURVE",
"454 572 CURVE",
"430 583 OFFCURVE",
"428 616 OFFCURVE",
"393 620 CURVE SMOOTH",
"310 629 OFFCURVE",
"49 224 OFFCURVE",
"49 50 CURVE SMOOTH",
"49 3 OFFCURVE",
"68 -27 OFFCURVE",
"116 -27 CURVE SMOOTH"
);
}
);
width = 265;
}
);
note = b;
unicode = 0062;
},
{
glyphname = c;
lastChange = "2021-10-20 21:03:02 +0000";
layers = (
{
layerId = "E1C4CDDB-EFDF-468A-8ACC-65E2DFDE53DF";
paths = (
{
closed = 1;
nodes = (
"130 -25 OFFCURVE",
"150 -19 OFFCURVE",
"169 -5 CURVE SMOOTH",
"199 16 OFFCURVE",
"225 54 OFFCURVE",
"245 84 CURVE SMOOTH",
"248 89 OFFCURVE",
"249 92 OFFCURVE",
"249 94 CURVE SMOOTH",
"249 95 OFFCURVE",
"249 96 OFFCURVE",
"248 96 CURVE SMOOTH",
"246 96 OFFCURVE",
"244 94 OFFCURVE",
"242 91 CURVE SMOOTH",
"218 55 OFFCURVE",
"193 25 OFFCURVE",
"164 3 CURVE SMOOTH",
"149 -8 OFFCURVE",
"128 -15 OFFCURVE",
"110 -15 CURVE SMOOTH",
"86 -15 OFFCURVE",
"66 -3 OFFCURVE",
"66 31 CURVE SMOOTH",
"66 41 OFFCURVE",
"68 51 OFFCURVE",
"71 64 CURVE SMOOTH",
"83 112 OFFCURVE",
"132 182 OFFCURVE",
"188 224 CURVE SMOOTH",
"197 230 OFFCURVE",
"206 233 OFFCURVE",
"215 233 CURVE SMOOTH",
"229 233 OFFCURVE",
"241 225 OFFCURVE",
"245 213 CURVE",
"245 211 OFFCURVE",
"250 213 OFFCURVE",
"251 217 CURVE SMOOTH",
"258 248 OFFCURVE",
"226 261 OFFCURVE",
"201 261 CURVE SMOOTH",
"145 261 OFFCURVE",
"80 191 OFFCURVE",
"51 122 CURVE SMOOTH",
"42 99 OFFCURVE",
"38 79 OFFCURVE",
"38 60 CURVE SMOOTH",
"38 8 OFFCURVE",
"71 -25 OFFCURVE",
"112 -25 CURVE SMOOTH"
);
}
);
width = 210;
},
{
anchors = (
{
name = bottom;
position = "{71, -20}";
},
{
name = top;
position = "{264, 396}";
}
);
layerId = "10EE7422-BC27-45A8-8DF8-0D41623AEA15";
paths = (
{
closed = 1;
nodes = (
"126 -25 OFFCURVE",
"147 -18 OFFCURVE",
"168 -5 CURVE SMOOTH",
"187 6 OFFCURVE",
"206 26 OFFCURVE",
"223 46 CURVE SMOOTH",
"248 77 OFFCURVE",
"251 94 OFFCURVE",
"244 94 CURVE SMOOTH",
"241 94 OFFCURVE",
"236 91 OFFCURVE",
"231 84 CURVE SMOOTH",
"206 53 OFFCURVE",
"189 35 OFFCURVE",
"160 14 CURVE SMOOTH",
"147 5 OFFCURVE",
"126 -4 OFFCURVE",
"108 -4 CURVE SMOOTH",
"91 -4 OFFCURVE",
"77 5 OFFCURVE",
"77 29 CURVE SMOOTH",
"77 37 OFFCURVE",
"78 46 OFFCURVE",
"81 57 CURVE SMOOTH",
"93 102 OFFCURVE",
"159 178 OFFCURVE",
"196 205 CURVE SMOOTH",
"205 212 OFFCURVE",
"220 219 OFFCURVE",
"232 219 CURVE SMOOTH",
"241 219 OFFCURVE",
"249 214 OFFCURVE",
"249 200 CURVE",
"255 203 OFFCURVE",
"257 210 OFFCURVE",
"257 218 CURVE SMOOTH",
"257 227 OFFCURVE",
"254 236 OFFCURVE",
"252 239 CURVE SMOOTH",
"238 260 OFFCURVE",
"215 261 OFFCURVE",
"201 261 CURVE SMOOTH",
"142 261 OFFCURVE",
"75 191 OFFCURVE",
"47 124 CURVE SMOOTH",
"37 100 OFFCURVE",
"32 78 OFFCURVE",
"32 59 CURVE SMOOTH",
"32 8 OFFCURVE",
"64 -25 OFFCURVE",
"107 -25 CURVE SMOOTH"
);
}
);
width = 212;
}
);
note = c;
unicode = 0063;
},
